SplineFontDB: 3.0
FontName: TaijituSerif
FullName: Taijitu Serif
FamilyName: Taijitu Serif
Weight: Book
Copyright: Copyright (c) 2015, Gulliver Pembroke
UComments: "2015-1-23: Created with FontForge (http://fontforge.org)"
Version: 002.000
ItalicAngle: 0
UnderlinePosition: -354
UnderlineWidth: 204
Ascent: 1638
Descent: 410
InvalidEm: 0
LayerCount: 2
Layer: 0 1 "Back" 1
Layer: 1 1 "Fore" 0
XUID: [1021 275 1773992033 1378]
FSType: 0
OS2Version: 0
OS2_WeightWidthSlopeOnly: 0
OS2_UseTypoMetrics: 1
CreationTime: 1422062799
ModificationTime: 1426465834
PfmFamily: 17
TTFWeight: 400
TTFWidth: 5
LineGap: 87
VLineGap: 0
OS2TypoAscent: 1420
OS2TypoAOffset: 0
OS2TypoDescent: -442
OS2TypoDOffset: 0
OS2TypoLinegap: 307
OS2WinAscent: 1825
OS2WinAOffset: 0
OS2WinDescent: 443
OS2WinDOffset: 0
HheadAscent: 1825
HheadAOffset: 0
HheadDescent: -443
HheadDOffset: 0
OS2SubXSize: 1434
OS2SubYSize: 1331
OS2SubXOff: 0
OS2SubYOff: 293
OS2SupXSize: 1434
OS2SupYSize: 1331
OS2SupXOff: 0
OS2SupYOff: 928
OS2StrikeYSize: 102
OS2StrikeYPos: 530
OS2CapHeight: 0
OS2XHeight: 0
OS2Vendor: 'PfEd'
MarkAttachClasses: 1
DEI: 91125
LangName: 1033
Encoding: UnicodeBmp
UnicodeInterp: none
NameList: AGL For New Fonts
DisplaySize: -48
AntiAlias: 1
FitToEm: 1
WinInfo: 57267 27 9
BeginPrivate: 0
EndPrivate
BeginChars: 65536 197

StartChar: uniE000
Encoding: 57344 57344 0
Width: 1479
VWidth: 0
GlyphClass: 2
Flags: W
LayerCount: 2
Back
Fore
SplineSet
937 454 m 1,0,-1
 412 454 l 1,1,-1
 320 240 l 2,2,3
 291.5 167.5 291.5 167.5 286 122 c 0,4,5
 291 92 291 92 316 68 c 0,6,7
 356.5 47 356.5 47 443 37 c 1,8,-1
 443 0 l 1,9,-1
 16 0 l 1,10,-1
 16 37 l 1,11,12
 91 53.5 91 53.5 126 76 c 0,13,14
 179 140.5 179 140.5 239 271 c 2,15,-1
 716 1387 l 1,16,-1
 751 1387 l 1,17,-1
 1223 259 l 2,18,19
 1278.5 139 1278.5 139 1326 82 c 0,20,21
 1379.5 48 1379.5 48 1456 37 c 1,22,-1
 1456 0 l 1,23,-1
 921 0 l 1,24,-1
 921 37 l 1,25,26
 993.5 44.5 993.5 44.5 1030 64 c 0,27,28
 1054.5 88.5 1054.5 88.5 1059 120 c 0,29,30
 1052.5 172.5 1052.5 172.5 1019 259 c 2,31,-1
 937 454 l 1,0,-1
909 528 m 1,32,-1
 679 1076 l 1,33,-1
 443 528 l 1,34,-1
 909 528 l 1,32,-1
EndSplineSet
Validated: 1
EndChar

StartChar: uniE001
Encoding: 57345 57345 1
Width: 1821
VWidth: 0
GlyphClass: 2
Flags: W
LayerCount: 2
Back
Fore
SplineSet
1027 1282 m 1,0,-1
 1027 746 l 1,1,-1
 1284 746 l 2,2,3
 1388 753 1388 753 1446 789 c 0,4,5
 1486.5 843.5 1486.5 843.5 1501 943 c 1,6,-1
 1537 943 l 1,7,-1
 1537 472 l 1,8,-1
 1501 472 l 1,9,10
 1487.5 561.5 1487.5 561.5 1468 606 c 0,11,12
 1443.5 639 1443.5 639 1400 662 c 0,13,14
 1365.5 671 1365.5 671 1284 673 c 2,15,-1
 1027 673 l 1,16,-1
 1027 224 l 2,17,18
 1028 145 1028 145 1034 116 c 0,19,20
 1043.5 99 1043.5 99 1063 86 c 0,21,22
 1091 76 1091 76 1142 74 c 2,23,-1
 1324 74 l 2,24,25
 1425 77 1425 77 1492 92 c 0,26,27
 1550 115.5 1550 115.5 1606 162 c 0,28,29
 1675 237 1675 237 1726 341 c 1,30,-1
 1764 341 l 1,31,-1
 1656 0 l 1,32,-1
 638 0 l 1,33,-1
 638 37 l 1,34,-1
 689 37 l 2,35,36
 764.5 45 764.5 45 811 86 c 0,37,38
 831 132.5 831 132.5 835 239 c 2,39,-1
 835 525 l 1,40,-1
 439 525 l 1,41,-1
 315 292 l 2,42,43
 256.5 175 256.5 175 245 119 c 0,44,45
 250 91.5 250 91.5 276 68 c 0,46,47
 317 47 317 47 402 37 c 1,48,-1
 402 0 l 1,49,-1
 -24 0 l 1,50,-1
 -24 37 l 1,51,52
 17.5 41 17.5 41 52 56 c 0,53,54
 83.5 79 83.5 79 120 121 c 0,55,56
 160.5 177.5 160.5 177.5 214 274 c 2,57,-1
 626 1045 l 2,58,59
 690 1172.5 690 1172.5 703 1238 c 0,60,61
 698.5 1267.5 698.5 1267.5 676 1288 c 0,62,63
 629 1310 629 1310 530 1319 c 1,64,-1
 530 1356 l 1,65,-1
 1641 1356 l 1,66,-1
 1656 1058 l 1,67,-1
 1622 1058 l 1,68,69
 1605 1153 1605 1153 1572 1215 c 0,70,71
 1541 1250.5 1541 1250.5 1494 1272 c 0,72,73
 1452 1280.5 1452 1280.5 1358 1282 c 2,74,-1
 1027 1282 l 1,0,-1
835 1282 m 1,75,-1
 478 598 l 1,76,-1
 835 598 l 1,77,-1
 835 1282 l 1,75,-1
EndSplineSet
Validated: 1
EndChar

StartChar: uniE002
Encoding: 57346 57346 2
Width: 1366
VWidth: 0
Flags: W
LayerCount: 2
Back
Fore
SplineSet
946 692 m 1,0,1
 1075 656 1075 656 1157 596 c 0,2,3
 1238 497.5 1238 497.5 1254 371 c 0,4,5
 1243.5 271.5 1243.5 271.5 1190 178 c 0,6,7
 1118 93.5 1118 93.5 1014 42 c 0,8,9
 883.5 7 883.5 7 674 0 c 2,10,-1
 34 0 l 1,11,-1
 34 37 l 1,12,-1
 85 37 l 2,13,14
 162 46 162 46 207 91 c 0,15,16
 226 139 226 139 230 240 c 2,17,-1
 230 1116 l 2,18,19
 225 1226.5 225 1226.5 201 1275 c 0,20,21
 155.5 1311.5 155.5 1311.5 85 1319 c 2,22,-1
 34 1319 l 1,23,-1
 34 1356 l 1,24,-1
 620 1356 l 2,25,26
 773 1352 773 1352 883 1332 c 0,27,28
 1021 1287 1021 1287 1112 1204 c 0,29,30
 1178 1108.5 1178 1108.5 1191 994 c 0,31,32
 1180.5 895.5 1180.5 895.5 1129 812 c 0,33,34
 1057.5 738 1057.5 738 946 692 c 1,0,1
422 746 m 1,35,36
 461 739.5 461 739.5 506 736 c 0,37,38
 555.5 732.5 555.5 732.5 611 732 c 0,39,40
 745 737 745 737 830 764 c 0,41,42
 898.5 800.5 898.5 800.5 943 860 c 0,43,44
 975.5 927 975.5 927 982 1002 c 0,45,46
 966 1115 966 1115 885 1205 c 0,47,48
 773 1275 773 1275 602 1289 c 0,49,50
 505 1285.5 505 1285.5 422 1267 c 1,51,-1
 422 746 l 1,35,36
422 98 m 1,52,53
 537.5 75.5 537.5 75.5 651 71 c 0,54,55
 818 84.5 818 84.5 927 152 c 0,56,57
 1006 240.5 1006 240.5 1022 354 c 0,58,59
 1015 432 1015 432 979 506 c 0,60,61
 927 574 927 574 839 621 c 0,62,63
 734 656 734 656 599 663 c 0,64,65
 540 662.5 540 662.5 493 661 c 0,66,67
 452 658.5 452 658.5 422 654 c 1,68,-1
 422 98 l 1,52,53
EndSplineSet
Validated: 1
EndChar

StartChar: uniE003
Encoding: 57347 57347 3
Width: 1176
VWidth: 0
Flags: W
LayerCount: 2
Back
Fore
SplineSet
1009 1356 m 1,0,-1
 1023 1060 l 1,1,-1
 987 1060 l 1,2,3
 949.5 1186.5 949.5 1186.5 888 1243 c 0,4,5
 804.5 1275.5 804.5 1275.5 652 1282 c 2,6,-1
 424 1282 l 1,7,-1
 424 745 l 1,8,-1
 478 745 l 2,9,10
 705 739.5 705 739.5 844 714 c 0,11,12
 954 672 954 672 1034 593 c 0,13,14
 1096 498 1096 498 1108 379 c 0,15,16
 1089.5 234 1089.5 234 996 114 c 0,17,18
 857 19 857 19 610 0 c 2,19,-1
 36 0 l 1,20,-1
 36 37 l 1,21,22
 147 46.5 147 46.5 197 77 c 0,23,24
 226 129.5 226 129.5 232 247 c 2,25,-1
 232 1109 l 2,26,27
 229.5 1201 229.5 1201 218 1248 c 0,28,29
 200 1280.5 200 1280.5 170 1299 c 0,30,31
 127.5 1312.5 127.5 1312.5 48 1319 c 1,32,-1
 48 1356 l 1,33,-1
 1009 1356 l 1,0,-1
424 81 m 1,34,35
 505.5 69.5 505.5 69.5 561 67 c 0,36,37
 680 80.5 680 80.5 784 149 c 0,38,39
 866.5 241.5 866.5 241.5 883 376 c 0,40,41
 865.5 513 865.5 513 779 598 c 0,42,43
 666 659 666 659 515 671 c 0,44,45
 470 669.5 470 669.5 424 663 c 1,46,-1
 424 81 l 1,34,35
EndSplineSet
Validated: 1
EndChar

StartChar: uniE004
Encoding: 57348 57348 4
Width: 1184
VWidth: 0
Flags: W
LayerCount: 2
Back
Fore
SplineSet
1125 1356 m 1,0,-1
 1130 1039 l 1,1,-1
 1091 1039 l 1,2,3
 1081.5 1128.5 1081.5 1128.5 1050 1193 c 0,4,5
 1010 1244 1010 1244 960 1266 c 0,6,7
 898 1279.5 898 1279.5 805 1282 c 2,8,-1
 425 1282 l 1,9,-1
 425 247 l 2,10,11
 430.5 129.5 430.5 129.5 460 77 c 0,12,13
 509 46.5 509 46.5 619 37 c 1,14,-1
 619 0 l 1,15,-1
 37 0 l 1,16,-1
 37 37 l 1,17,18
 148 46.5 148 46.5 198 77 c 0,19,20
 227 129.5 227 129.5 233 247 c 2,21,-1
 233 1109 l 2,22,23
 227 1226.5 227 1226.5 198 1279 c 0,24,25
 148 1309.5 148 1309.5 37 1319 c 1,26,-1
 37 1356 l 1,27,-1
 1125 1356 l 1,0,-1
EndSplineSet
Validated: 1
EndChar

StartChar: uniE006
Encoding: 57350 57350 5
Width: 1317
VWidth: 0
Flags: W
LayerCount: 2
Back
Fore
SplineSet
50 0 m 1,0,-1
 658 1387 l 1,1,-1
 692 1387 l 1,2,-1
 1266 0 l 1,3,-1
 50 0 l 1,0,-1
1027 85 m 1,4,-1
 622 1081 l 1,5,-1
 184 85 l 1,6,-1
 1027 85 l 1,4,-1
EndSplineSet
Validated: 1
EndChar

StartChar: uniE007
Encoding: 57351 57351 6
Width: 1479
VWidth: 0
Flags: W
LayerCount: 2
Back
Fore
SplineSet
35 0 m 1,0,-1
 35 37 l 1,1,-1
 86 37 l 2,2,3
 163.5 46 163.5 46 208 92 c 0,4,5
 226.5 138.5 226.5 138.5 230 240 c 2,6,-1
 230 1116 l 2,7,8
 225.5 1227.5 225.5 1227.5 202 1275 c 0,9,10
 156.5 1311.5 156.5 1311.5 86 1319 c 2,11,-1
 35 1319 l 1,12,-1
 35 1356 l 1,13,-1
 587 1356 l 2,14,15
 867 1344.5 867 1344.5 1050 1287 c 0,16,17
 1197.5 1202.5 1197.5 1202.5 1304 1057 c 0,18,19
 1385 888 1385 888 1401 685 c 0,20,21
 1372.5 417.5 1372.5 417.5 1229 212 c 0,22,23
 1002 35.5 1002 35.5 641 0 c 2,24,-1
 35 0 l 1,0,-1
422 98 m 1,25,26
 542.5 74.5 542.5 74.5 635 70 c 0,27,28
 854 97 854 97 1020 233 c 0,29,30
 1147.5 415.5 1147.5 415.5 1173 675 c 0,31,32
 1147.5 936 1147.5 936 1020 1118 c 0,33,34
 852.5 1253 852.5 1253 627 1280 c 0,35,36
 533 1275 533 1275 422 1251 c 1,37,-1
 422 98 l 1,25,26
EndSplineSet
Validated: 1
EndChar

StartChar: uniE008
Encoding: 57352 57352 7
Width: 1251
VWidth: 0
Flags: W
LayerCount: 2
Back
Fore
SplineSet
428 1282 m 1,0,-1
 428 746 l 1,1,-1
 726 746 l 2,2,3
 829 752 829 752 881 781 c 0,4,5
 925.5 839 925.5 839 939 943 c 1,6,-1
 976 943 l 1,7,-1
 976 471 l 1,8,-1
 939 471 l 1,9,10
 925 558 925 558 911 598 c 0,11,12
 889 630.5 889 630.5 852 653 c 0,13,14
 804 669.5 804 669.5 726 673 c 2,15,-1
 428 673 l 1,16,-1
 428 226 l 2,17,18
 429.5 148 429.5 148 436 116 c 0,19,20
 446 98.5 446 98.5 464 86 c 0,21,22
 490 76 490 76 540 74 c 2,23,-1
 770 74 l 2,24,25
 874.5 76.5 874.5 76.5 937 90 c 0,26,27
 988.5 111.5 988.5 111.5 1037 153 c 0,28,29
 1099.5 225.5 1099.5 225.5 1164 340 c 1,30,-1
 1204 340 l 1,31,-1
 1087 0 l 1,32,-1
 42 0 l 1,33,-1
 42 37 l 1,34,-1
 90 37 l 2,35,36
 137 41 137 41 181 60 c 0,37,38
 209.5 79 209.5 79 224 108 c 0,39,40
 234 151 234 151 236 239 c 2,41,-1
 236 1120 l 2,42,43
 231.5 1232.5 231.5 1232.5 210 1279 c 0,44,45
 166 1312.5 166 1312.5 90 1319 c 2,46,-1
 42 1319 l 1,47,-1
 42 1356 l 1,48,-1
 1087 1356 l 1,49,-1
 1102 1059 l 1,50,-1
 1063 1059 l 1,51,52
 1041.5 1154.5 1041.5 1154.5 1016 1206 c 0,53,54
 987 1243 987 1243 941 1267 c 0,55,56
 890.5 1279.5 890.5 1279.5 800 1282 c 2,57,-1
 428 1282 l 1,0,-1
EndSplineSet
Validated: 1
EndChar

StartChar: uniE009
Encoding: 57353 57353 8
Width: 1352
VWidth: 0
Flags: W
LayerCount: 2
Back
Fore
SplineSet
1237 931 m 1,0,-1
 1200 931 l 1,1,2
 1154.5 1094.5 1154.5 1094.5 1036 1212 c 0,3,4
 898 1299.5 898 1299.5 756 1317 c 0,5,6
 598 1293.5 598 1293.5 460 1178 c 0,7,8
 345.5 1010 345.5 1010 306 732 c 1,9,-1
 834 732 l 1,10,-1
 834 658 l 1,11,-1
 306 658 l 1,12,13
 317.5 474.5 317.5 474.5 376 325 c 0,14,15
 451.5 196 451.5 196 549 115 c 0,16,17
 659 57.5 659 57.5 795 46 c 0,18,19
 1061.5 89 1061.5 89 1266 303 c 1,20,-1
 1293 282 l 1,21,22
 1074.5 21 1074.5 21 756 -31 c 0,23,24
 474 3 474 3 266 174 c 0,25,26
 106.5 393.5 106.5 393.5 75 674 c 4,27,28
 92 879.5 92 879.5 177 1050 c 0,29,30
 286.5 1198 286.5 1198 424 1298 c 0,31,32
 577 1372.5 577 1372.5 757 1387 c 0,33,34
 892 1377.5 892 1377.5 1047 1329 c 0,35,36
 1084.5 1316.5 1084.5 1316.5 1104 1314 c 0,37,38
 1140.5 1326 1140.5 1326 1180 1385 c 1,39,-1
 1214 1385 l 1,40,-1
 1237 931 l 1,0,-1
EndSplineSet
Validated: 1
EndChar

StartChar: uniE00A
Encoding: 57354 57354 9
Width: 1251
VWidth: 0
Flags: W
LayerCount: 2
Back
Fore
SplineSet
1178 1356 m 1,0,-1
 287 82 l 1,1,-1
 843 82 l 2,2,3
 961 91.5 961 91.5 1040 138 c 0,4,5
 1105.5 213 1105.5 213 1161 365 c 1,6,-1
 1194 359 l 1,7,-1
 1130 0 l 1,8,-1
 26 0 l 1,9,-1
 26 37 l 1,10,-1
 896 1275 l 1,11,-1
 462 1275 l 2,12,13
 364 1271 364 1271 306 1252 c 0,14,15
 260.5 1224.5 260.5 1224.5 232 1184 c 0,16,17
 206.5 1126 206.5 1126 185 1017 c 1,18,-1
 147 1017 l 1,19,-1
 175 1356 l 1,20,-1
 1178 1356 l 1,0,-1
EndSplineSet
Validated: 1
EndChar

StartChar: uniE00B
Encoding: 57355 57355 10
Width: 1139
VWidth: 0
Flags: W
LayerCount: 2
Back
Fore
SplineSet
1011 1030 m 0,0,1
 986 874 986 874 862 748 c 0,2,3
 775 686 775 686 632 605 c 0,4,5
 485.5 523.5 485.5 523.5 401 465 c 0,6,7
 307 375 307 375 288 269 c 0,8,9
 302 172 302 172 373 103 c 0,10,11
 455 56.5 455 56.5 558 47 c 0,12,13
 656.5 54 656.5 54 747 90 c 0,14,15
 834 141 834 141 891 216 c 0,16,17
 932 301 932 301 961 434 c 1,18,-1
 998 434 l 1,19,-1
 998 -31 l 1,20,-1
 961 -31 l 1,21,22
 943.5 33 943.5 33 900 46 c 0,23,24
 856.5 41 856.5 41 778 17 c 0,25,26
 689.5 -12.5 689.5 -12.5 648 -22 c 0,27,28
 594.5 -29.5 594.5 -29.5 537 -31 c 0,29,30
 373 -14 373 -14 242 70 c 0,31,32
 132 188 132 188 110 346 c 0,33,34
 134 506.5 134 506.5 255 630 c 0,35,36
 344 692 344 692 514 786 c 0,37,38
 718 902.5 718 902.5 809 986 c 0,39,40
 845 1039.5 845 1039.5 852 1099 c 0,41,42
 839.5 1185.5 839.5 1185.5 776 1251 c 0,43,44
 702 1297.5 702 1297.5 612 1307 c 0,45,46
 519.5 1299 519.5 1299 433 1260 c 0,47,48
 354 1207.5 354 1207.5 302 1132 c 0,49,50
 259.5 1043 259.5 1043 237 918 c 1,51,-1
 200 918 l 1,52,-1
 200 1387 l 1,53,-1
 237 1387 l 1,54,55
 259.5 1322 259.5 1322 306 1309 c 0,56,57
 334 1313 334 1313 385 1334 c 0,58,59
 503 1378 503 1378 614 1387 c 0,60,61
 768 1371 768 1371 890 1291 c 0,62,63
 991 1179.5 991 1179.5 1011 1030 c 0,0,1
EndSplineSet
Validated: 1
EndChar

StartChar: uniE00C
Encoding: 57356 57356 11
Width: 1479
VWidth: 0
Flags: W
LayerCount: 2
Back
Fore
SplineSet
421 727 m 1,0,-1
 1051 727 l 1,1,-1
 1051 1115 l 2,2,3
 1049 1207 1049 1207 1038 1252 c 0,4,5
 1024 1276 1024 1276 996 1295 c 0,6,7
 952 1315 952 1315 905 1319 c 2,8,-1
 857 1319 l 1,9,-1
 857 1356 l 1,10,-1
 1437 1356 l 1,11,-1
 1437 1319 l 1,12,-1
 1389 1319 l 2,13,14
 1342 1315 1342 1315 1298 1296 c 0,15,16
 1269.5 1277 1269.5 1277 1254 1248 c 0,17,18
 1245 1204 1245 1204 1243 1115 c 2,19,-1
 1243 240 l 2,20,21
 1245 148.5 1245 148.5 1256 104 c 0,22,23
 1269.5 80 1269.5 80 1297 61 c 0,24,25
 1341.5 41 1341.5 41 1389 37 c 2,26,-1
 1437 37 l 1,27,-1
 1437 0 l 1,28,-1
 857 0 l 1,29,-1
 857 37 l 1,30,-1
 905 37 l 2,31,32
 980.5 45 980.5 45 1026 86 c 0,33,34
 1047 133 1047 133 1051 240 c 2,35,-1
 1051 653 l 1,36,-1
 421 653 l 1,37,-1
 421 240 l 2,38,39
 423 148.5 423 148.5 434 104 c 0,40,41
 448 80 448 80 476 61 c 0,42,43
 520 41 520 41 567 37 c 2,44,-1
 616 37 l 1,45,-1
 616 0 l 1,46,-1
 35 0 l 1,47,-1
 35 37 l 1,48,-1
 83 37 l 2,49,50
 159.5 45 159.5 45 205 86 c 0,51,52
 225 133 225 133 229 240 c 2,53,-1
 229 1115 l 2,54,55
 227 1207 227 1207 216 1252 c 0,56,57
 202.5 1276 202.5 1276 175 1295 c 0,58,59
 130.5 1315 130.5 1315 83 1319 c 2,60,-1
 35 1319 l 1,61,-1
 35 1356 l 1,62,-1
 616 1356 l 1,63,-1
 616 1319 l 1,64,-1
 567 1319 l 2,65,66
 520 1315 520 1315 476 1296 c 0,67,68
 448 1277 448 1277 433 1248 c 0,69,70
 423 1204 423 1204 421 1115 c 2,71,-1
 421 727 l 1,0,-1
EndSplineSet
Validated: 1
EndChar

StartChar: uniE00D
Encoding: 57357 57357 12
Width: 1479
VWidth: 0
Flags: W
LayerCount: 2
Back
Fore
SplineSet
1400 686 m 0,0,1
 1369.5 405 1369.5 405 1216 184 c 0,2,3
 1008.5 5 1008.5 5 733 -31 c 0,4,5
 455.5 4 455.5 4 250 180 c 0,6,7
 101.5 399 101.5 399 72 683 c 0,8,9
 108.5 986 108.5 986 292 1210 c 0,10,11
 495.5 1357.5 495.5 1357.5 749 1387 c 0,12,13
 1015.5 1351.5 1015.5 1351.5 1219 1175 c 0,14,15
 1370 958.5 1370 958.5 1400 686 c 0,0,1
1170 727 m 1,16,17
 1146.5 960.5 1146.5 960.5 1071 1126 c 0,18,19
 939 1282.5 939 1282.5 730 1314 c 0,20,21
 528 1282 528 1282 398 1122 c 0,22,23
 323 953.5 323 953.5 302 727 c 1,24,-1
 1170 727 l 1,16,17
1171 653 m 1,25,-1
 301 653 l 1,26,27
 329.5 368.5 329.5 368.5 443 176 c 0,28,29
 563 62.5 563 62.5 731 40 c 0,30,31
 946.5 73 946.5 73 1080 239 c 0,32,33
 1156 415 1156 415 1171 653 c 1,25,-1
EndSplineSet
Validated: 1
EndChar

StartChar: uniE00E
Encoding: 57358 57358 13
Width: 682
VWidth: 0
Flags: W
LayerCount: 2
Back
Fore
SplineSet
632 37 m 1,0,-1
 632 0 l 1,1,-1
 51 0 l 1,2,-1
 51 37 l 1,3,-1
 99 37 l 2,4,5
 175.5 45 175.5 45 221 86 c 0,6,7
 241 133 241 133 245 240 c 2,8,-1
 245 1116 l 2,9,10
 243 1207.5 243 1207.5 232 1252 c 0,11,12
 218.5 1276 218.5 1276 191 1295 c 0,13,14
 146.5 1315 146.5 1315 99 1319 c 2,15,-1
 51 1319 l 1,16,-1
 51 1356 l 1,17,-1
 632 1356 l 1,18,-1
 632 1319 l 1,19,-1
 583 1319 l 2,20,21
 507.5 1311 507.5 1311 462 1270 c 0,22,23
 441 1223 441 1223 437 1116 c 2,24,-1
 437 240 l 2,25,26
 439 148.5 439 148.5 450 104 c 0,27,28
 464 80 464 80 492 61 c 0,29,30
 536 41 536 41 583 37 c 2,31,-1
 632 37 l 1,0,-1
EndSplineSet
Validated: 1
EndChar

StartChar: uniE00F
Encoding: 57359 57359 14
Width: 797
VWidth: 0
Flags: W
LayerCount: 2
Back
Fore
SplineSet
204 1319 m 1,0,-1
 204 1356 l 1,1,-1
 785 1356 l 1,2,-1
 785 1319 l 1,3,-1
 736 1319 l 2,4,5
 660.5 1311 660.5 1311 615 1270 c 0,6,7
 595 1223 595 1223 591 1116 c 2,8,-1
 591 453 l 2,9,10
 585.5 309.5 585.5 309.5 558 205 c 0,11,12
 516 114 516 114 442 40 c 0,13,14
 354 -19.5 354 -19.5 244 -31 c 0,15,16
 156.5 -23.5 156.5 -23.5 96 16 c 0,17,18
 51 64 51 64 42 122 c 0,19,20
 46 167 46 167 67 196 c 0,21,22
 102 222 102 222 144 227 c 0,23,24
 174.5 223.5 174.5 223.5 202 206 c 0,25,26
 229 173.5 229 173.5 266 94 c 0,27,28
 291 49 291 49 325 40 c 0,29,30
 351.5 45.5 351.5 45.5 376 73 c 0,31,32
 395 114.5 395 114.5 399 190 c 2,33,-1
 399 1116 l 2,34,35
 397 1207.5 397 1207.5 386 1252 c 0,36,37
 372 1276 372 1276 344 1295 c 0,38,39
 300 1315 300 1315 253 1319 c 2,40,-1
 204 1319 l 1,0,-1
EndSplineSet
Validated: 1
EndChar

StartChar: uniE010
Encoding: 57360 57360 15
Width: 1479
VWidth: 0
Flags: W
LayerCount: 2
Back
Fore
SplineSet
612 752 m 1,0,-1
 1112 255 l 2,1,2
 1229 145 1229 145 1322 88 c 0,3,4
 1409 49.5 1409 49.5 1496 37 c 1,5,-1
 1496 0 l 1,6,-1
 851 0 l 1,7,-1
 851 37 l 1,8,9
 904 40.5 904 40.5 934 56 c 0,10,11
 956 77 956 77 960 100 c 0,12,13
 958.5 123 958.5 123 950 143 c 0,14,15
 933.5 167.5 933.5 167.5 888 214 c 2,16,-1
 420 677 l 1,17,-1
 420 240 l 2,18,19
 422 148.5 422 148.5 433 104 c 0,20,21
 447 80 447 80 475 61 c 0,22,23
 519 41 519 41 566 37 c 2,24,-1
 612 37 l 1,25,-1
 612 0 l 1,26,-1
 34 0 l 1,27,-1
 34 37 l 1,28,-1
 82 37 l 2,29,30
 158.5 45 158.5 45 204 86 c 0,31,32
 224 133 224 133 228 240 c 2,33,-1
 228 1116 l 2,34,35
 226 1207.5 226 1207.5 215 1253 c 0,36,37
 201.5 1276 201.5 1276 174 1295 c 0,38,39
 129.5 1315 129.5 1315 82 1319 c 2,40,-1
 34 1319 l 1,41,-1
 34 1356 l 1,42,-1
 612 1356 l 1,43,-1
 612 1319 l 1,44,-1
 566 1319 l 2,45,46
 519.5 1315 519.5 1315 475 1296 c 0,47,48
 447 1277 447 1277 432 1248 c 0,49,50
 422 1205 422 1205 420 1116 c 2,51,-1
 420 701 l 1,52,53
 456 735 456 735 557 828 c 0,54,55
 815 1069.5 815 1069.5 916 1191 c 0,56,57
 938.5 1229.5 938.5 1229.5 943 1261 c 0,58,59
 939.5 1283 939.5 1283 922 1302 c 0,60,61
 896 1316 896 1316 851 1319 c 2,62,-1
 820 1319 l 1,63,-1
 820 1356 l 1,64,-1
 1318 1356 l 1,65,-1
 1318 1319 l 1,66,67
 1275.5 1316 1275.5 1316 1238 1307 c 0,68,69
 1199.5 1293 1199.5 1293 1150 1264 c 0,70,71
 1094 1227 1094 1227 1022 1163 c 0,72,73
 973.5 1115.5 973.5 1115.5 819 958 c 2,74,-1
 612 752 l 1,0,-1
EndSplineSet
Validated: 1
EndChar

StartChar: uniE011
Encoding: 57361 57361 16
Width: 1479
VWidth: 0
Flags: W
LayerCount: 2
Back
Fore
SplineSet
1054 1132 m 1,0,1
 1047.5 1239 1047.5 1239 1014 1286 c 0,2,3
 961.5 1313.5 961.5 1313.5 855 1319 c 1,4,-1
 855 1356 l 1,5,-1
 1442 1356 l 1,6,-1
 1442 1319 l 1,7,8
 1331 1309.5 1331 1309.5 1281 1279 c 0,9,10
 1252 1226.5 1252 1226.5 1246 1109 c 2,11,-1
 1246 247 l 2,12,13
 1252 129.5 1252 129.5 1281 77 c 0,14,15
 1331 46.5 1331 46.5 1442 37 c 1,16,-1
 1442 0 l 1,17,-1
 855 0 l 1,18,-1
 855 37 l 1,19,20
 968.5 46.5 968.5 46.5 1019 78 c 0,21,22
 1048 130 1048 130 1054 247 c 2,23,-1
 1054 1025 l 1,24,-1
 425 219 l 1,25,26
 428 141.5 428 141.5 436 102 c 0,27,28
 452 75 452 75 486 56 c 0,29,30
 534 41.5 534 41.5 622 37 c 1,31,-1
 622 0 l 1,32,-1
 37 0 l 1,33,-1
 37 37 l 1,34,35
 148 46.5 148 46.5 198 77 c 0,36,37
 227 129.5 227 129.5 233 247 c 2,38,-1
 233 1109 l 2,39,40
 227 1226.5 227 1226.5 198 1279 c 0,41,42
 148 1309.5 148 1309.5 37 1319 c 1,43,-1
 37 1356 l 1,44,-1
 622 1356 l 1,45,-1
 622 1319 l 1,46,47
 510 1309.5 510 1309.5 460 1279 c 0,48,49
 431 1226.5 431 1226.5 425 1109 c 2,50,-1
 425 328 l 1,51,-1
 1054 1132 l 1,0,1
EndSplineSet
Validated: 1
EndChar

StartChar: uniE012
Encoding: 57362 57362 17
Width: 1485
VWidth: 0
Flags: W
LayerCount: 2
Back
Fore
SplineSet
28 0 m 1,0,-1
 28 37 l 1,1,2
 99 53.5 99 53.5 146 87 c 0,3,4
 187.5 136.5 187.5 136.5 232 233 c 2,5,-1
 705 1387 l 1,6,-1
 742 1387 l 1,7,-1
 1246 227 l 2,8,9
 1294.5 123 1294.5 123 1334 74 c 0,10,11
 1380.5 45.5 1380.5 45.5 1464 37 c 1,12,-1
 1464 0 l 1,13,-1
 911 0 l 1,14,-1
 911 37 l 1,15,16
 994.5 47.5 994.5 47.5 1034 69 c 0,17,18
 1056.5 95.5 1056.5 95.5 1061 131 c 0,19,20
 1053.5 187.5 1053.5 187.5 1015 284 c 2,21,-1
 670 1079 l 1,22,-1
 350 294 l 2,23,24
 312.5 194.5 312.5 194.5 305 134 c 0,25,26
 309.5 95 309.5 95 333 68 c 0,27,28
 370.5 46 370.5 46 446 37 c 1,29,-1
 446 0 l 1,30,-1
 28 0 l 1,0,-1
EndSplineSet
Validated: 1
EndChar

StartChar: uniE013
Encoding: 57363 57363 18
Width: 1821
VWidth: 0
Flags: W
LayerCount: 2
Back
Fore
SplineSet
838 0 m 1,0,-1
 314 1141 l 1,1,-1
 314 235 l 2,2,3
 318.5 126 318.5 126 341 79 c 0,4,5
 385.5 44 385.5 44 458 37 c 2,6,-1
 506 37 l 1,7,-1
 506 0 l 1,8,-1
 34 0 l 1,9,-1
 34 37 l 1,10,-1
 82 37 l 2,11,12
 159.5 45.5 159.5 45.5 204 89 c 0,13,14
 222.5 134.5 222.5 134.5 226 235 c 2,15,-1
 226 1121 l 2,16,17
 222.5 1202.5 222.5 1202.5 206 1251 c 0,18,19
 188.5 1278 188.5 1278 154 1300 c 0,20,21
 109.5 1315.5 109.5 1315.5 34 1319 c 1,22,-1
 34 1356 l 1,23,-1
 418 1356 l 1,24,-1
 910 295 l 1,25,-1
 1394 1356 l 1,26,-1
 1778 1356 l 1,27,-1
 1778 1319 l 1,28,-1
 1731 1319 l 2,29,30
 1652.5 1310.5 1652.5 1310.5 1608 1267 c 0,31,32
 1589.5 1221.5 1589.5 1221.5 1586 1121 c 2,33,-1
 1586 235 l 2,34,35
 1590.5 126 1590.5 126 1614 79 c 0,36,37
 1658.5 44 1658.5 44 1731 37 c 2,38,-1
 1778 37 l 1,39,-1
 1778 0 l 1,40,-1
 1202 0 l 1,41,-1
 1202 37 l 1,42,-1
 1250 37 l 2,43,44
 1328.5 45.5 1328.5 45.5 1372 89 c 0,45,46
 1390.5 134.5 1390.5 134.5 1394 235 c 2,47,-1
 1394 1141 l 1,48,-1
 871 0 l 1,49,-1
 838 0 l 1,0,-1
EndSplineSet
Validated: 1
EndChar

StartChar: uniE014
Encoding: 57364 57364 19
Width: 2048
Flags: W
LayerCount: 2
Back
Fore
SplineSet
978 1356 m 1,0,-1
 1691 1356 l 1,1,-1
 1706 1056 l 1,2,-1
 1666 1056 l 1,3,4
 1649 1232 1649 1232 1535 1266 c 0,5,6
 1481 1282 1481 1282 1344 1282 c 2,7,-1
 1258 1282 l 1,8,-1
 1258 -22 l 1,9,-1
 1222 -22 l 1,10,-1
 328 1070 l 1,11,-1
 328 235 l 2,12,13
 328 110 328 110 355 79 c 0,14,15
 392 37 392 37 472 37 c 2,16,-1
 520 37 l 1,17,-1
 520 0 l 1,18,-1
 48 0 l 1,19,-1
 48 37 l 1,20,-1
 95 37 l 2,21,22
 182 37 182 37 218 89 c 0,23,24
 240 121 240 121 240 235 c 2,25,-1
 240 1178 l 1,26,27
 181 1247 181 1247 151 1269 c 0,28,29
 120 1291 120 1291 61 1310 c 0,30,31
 33 1319 33 1319 -27 1319 c 1,32,-1
 -27 1356 l 1,33,-1
 341 1356 l 1,34,-1
 1170 339 l 1,35,-1
 1170 1121 l 2,36,37
 1170 1246 1170 1246 1142 1277 c 0,38,39
 1104 1319 1104 1319 1025 1319 c 2,40,-1
 978 1319 l 1,41,-1
 978 1356 l 1,0,-1
EndSplineSet
Validated: 1
EndChar

StartChar: uniE015
Encoding: 57365 57365 20
Width: 1760
VWidth: 0
Flags: W
LayerCount: 2
Back
Fore
SplineSet
978 1356 m 1,0,-1
 1691 1356 l 1,1,-1
 1706 1056 l 5,2,-1
 1666 1056 l 1,3,4
 1633 1208 1633 1208 1535 1266 c 0,5,6
 1468 1279.5 1468 1279.5 1344 1282 c 2,7,-1
 1258 1282 l 1,8,-1
 1258 -22 l 1,9,-1
 1222 -22 l 1,10,-1
 328 1070 l 1,11,-1
 328 235 l 2,12,13
 332.5 126 332.5 126 355 79 c 0,14,15
 399.5 44 399.5 44 472 37 c 2,16,-1
 520 37 l 1,17,-1
 520 0 l 1,18,-1
 48 0 l 1,19,-1
 48 37 l 1,20,-1
 95 37 l 2,21,22
 173.5 45.5 173.5 45.5 218 89 c 0,23,24
 236.5 134.5 236.5 134.5 240 235 c 2,25,-1
 240 1178 l 1,26,27
 186 1239 186 1239 150 1269 c 0,28,29
 115 1290.5 115 1290.5 61 1310 c 0,30,31
 27 1317.5 27 1317.5 -27 1319 c 1,32,-1
 -27 1356 l 1,33,-1
 341 1356 l 1,34,-1
 1170 339 l 1,35,-1
 1170 1121 l 2,36,37
 1165.5 1230 1165.5 1230 1142 1277 c 0,38,39
 1097.5 1312 1097.5 1312 1025 1319 c 2,40,-1
 978 1319 l 1,41,-1
 978 1356 l 1,0,-1
EndSplineSet
Validated: 1
EndChar

StartChar: uniE016
Encoding: 57366 57366 21
Width: 1479
VWidth: 0
Flags: W
LayerCount: 2
Back
Fore
SplineSet
749 1387 m 0,0,1
 1001.5 1353.5 1001.5 1353.5 1206 1186 c 0,2,3
 1368 969.5 1368 969.5 1400 686 c 0,4,5
 1367.5 394.5 1367.5 394.5 1205 173 c 0,6,7
 996.5 3 996.5 3 733 -31 c 0,8,9
 468 2 468 2 262 168 c 0,10,11
 104 386.5 104 386.5 72 683 c 0,12,13
 108.5 986 108.5 986 292 1210 c 0,14,15
 495.5 1357.5 495.5 1357.5 749 1387 c 0,0,1
730 1314 m 0,16,17
 560 1291.5 560 1291.5 438 1179 c 0,18,19
 324 985 324 985 301 687 c 0,20,21
 324.5 380.5 324.5 380.5 443 176 c 0,22,23
 564 62.5 564 62.5 731 40 c 0,24,25
 911 65 911 65 1046 189 c 0,26,27
 1150.5 366.5 1150.5 366.5 1171 659 c 0,28,29
 1148 977.5 1148 977.5 1034 1178 c 0,30,31
 910 1291.5 910 1291.5 730 1314 c 0,16,17
EndSplineSet
Validated: 1
EndChar

StartChar: uniE017
Encoding: 57367 57367 22
Width: 1331
VWidth: 0
Flags: W
LayerCount: 2
Back
Fore
SplineSet
906 696 m 1,0,-1
 906 1104 l 2,1,2
 906 1219 906 1219 892 1251.5 c 128,-1,3
 878 1284 878 1284 835 1301 c 128,-1,4
 792 1318 792 1318 710 1319 c 1,5,-1
 710 1356 l 1,6,-1
 1294 1356 l 1,7,-1
 1294 1319 l 1,8,9
 1210 1318 1210 1318 1168 1301 c 128,-1,10
 1126 1284 1126 1284 1112 1249.5 c 128,-1,11
 1098 1215 1098 1215 1098 1104 c 2,12,-1
 1098 252 l 2,13,14
 1098 135 1098 135 1114.5 102 c 128,-1,15
 1131 69 1131 69 1170.5 54.5 c 128,-1,16
 1210 40 1210 40 1294 37 c 1,17,-1
 1294 0 l 1,18,-1
 710 0 l 1,19,-1
 710 37 l 1,20,21
 798 39 798 39 837 55.5 c 128,-1,22
 876 72 876 72 891 104 c 128,-1,23
 906 136 906 136 906 252 c 2,24,-1
 906 616 l 1,25,26
 654 503 654 503 495 503 c 0,27,28
 376 503 376 503 301.5 550 c 128,-1,29
 227 597 227 597 208.5 652.5 c 128,-1,30
 190 708 190 708 190 874 c 2,31,-1
 190 1104 l 2,32,33
 190 1217 190 1217 175.5 1251 c 128,-1,34
 161 1285 161 1285 117.5 1301.5 c 128,-1,35
 74 1318 74 1318 -6 1319 c 1,36,-1
 -6 1356 l 1,37,-1
 580 1356 l 1,38,-1
 580 1319 l 1,39,40
 495 1319 495 1319 450 1300 c 128,-1,41
 405 1281 405 1281 393.5 1243.5 c 128,-1,42
 382 1206 382 1206 382 1104 c 2,43,-1
 382 916 l 2,44,45
 382 784 382 784 397 728.5 c 128,-1,46
 412 673 412 673 458 643.5 c 128,-1,47
 504 614 504 614 575 614 c 0,48,49
 725 614 725 614 906 696 c 1,0,-1
EndSplineSet
Validated: 1
EndChar

StartChar: uniE018
Encoding: 57368 57368 23
Width: 1139
VWidth: 0
Flags: W
LayerCount: 2
Back
Fore
SplineSet
420 635 m 1,0,-1
 420 240 l 2,1,2
 424.5 128.5 424.5 128.5 448 81 c 0,3,4
 492.5 44.5 492.5 44.5 563 37 c 2,5,-1
 615 37 l 1,6,-1
 615 0 l 1,7,-1
 34 0 l 1,8,-1
 34 37 l 1,9,-1
 85 37 l 2,10,11
 162.5 46.5 162.5 46.5 208 93 c 0,12,13
 224.5 138.5 224.5 138.5 228 240 c 2,14,-1
 228 1116 l 2,15,16
 223.5 1227.5 223.5 1227.5 201 1275 c 0,17,18
 155.5 1311.5 155.5 1311.5 85 1319 c 2,19,-1
 34 1319 l 1,20,-1
 34 1356 l 1,21,-1
 531 1356 l 2,22,23
 700 1350 700 1350 818 1318 c 0,24,25
 917.5 1272.5 917.5 1272.5 995 1192 c 0,26,27
 1055 1097.5 1055 1097.5 1067 981 c 0,28,29
 1048.5 825 1048.5 825 958 711 c 0,30,31
 832.5 624.5 832.5 624.5 648 607 c 0,32,33
 597.5 608 597.5 608 542 614 c 0,34,35
 483.5 622.5 483.5 622.5 420 635 c 1,0,-1
420 692 m 1,36,37
 471 682.5 471 682.5 514 677 c 0,38,39
 553 673 553 673 584 672 c 0,40,41
 683 685.5 683 685.5 764 752 c 0,42,43
 826.5 841 826.5 841 839 961 c 0,44,45
 833 1047 833 1047 803 1124 c 0,46,47
 762 1193.5 762 1193.5 701 1238 c 0,48,49
 632 1268.5 632 1268.5 551 1275 c 0,50,51
 495 1272 495 1272 420 1256 c 1,52,-1
 420 692 l 1,36,37
EndSplineSet
Validated: 1
EndChar

StartChar: uniE019
Encoding: 57369 57369 24
Width: 1192
VWidth: 0
Flags: W
LayerCount: 2
Back
Fore
SplineSet
32 1356 m 1,0,-1
 1049 1356 l 1,1,-1
 1076 1015 l 1,2,-1
 1038 1015 l 1,3,4
 1027.5 1108 1027.5 1108 1004 1170 c 0,5,6
 973.5 1218 973.5 1218 930 1247 c 0,7,8
 874 1267 874 1267 781 1271 c 2,9,-1
 318 1271 l 1,10,-1
 731 741 l 1,11,-1
 261 186 l 1,12,-1
 776 186 l 2,13,14
 905 193.5 905 193.5 990 231 c 0,15,16
 1057.5 292.5 1057.5 292.5 1101 419 c 1,17,-1
 1139 410 l 1,18,-1
 1081 0 l 1,19,-1
 32 0 l 1,20,-1
 32 36 l 1,21,-1
 554 652 l 1,22,-1
 32 1320 l 1,23,-1
 32 1356 l 1,0,-1
EndSplineSet
Validated: 1
EndChar

StartChar: uniE01A
Encoding: 57370 57370 25
Width: 1366
VWidth: 0
Flags: W
LayerCount: 2
Back
Fore
SplineSet
1233 1387 m 1,0,-1
 1264 926 l 1,1,-1
 1233 926 l 1,2,3
 1162.5 1113.5 1162.5 1113.5 1056 1224 c 0,4,5
 933 1300 933 1300 780 1315 c 0,6,7
 649.5 1303.5 649.5 1303.5 536 1246 c 0,8,9
 434.5 1164.5 434.5 1164.5 364 1028 c 0,10,11
 312.5 866 312.5 866 302 655 c 0,12,13
 312 479 312 479 361 336 c 0,14,15
 430 211.5 430 211.5 538 129 c 0,16,17
 663 69 663 69 809 57 c 0,18,19
 936 66.5 936 66.5 1042 114 c 0,20,21
 1146 188.5 1146 188.5 1264 338 c 1,22,-1
 1295 318 l 1,23,24
 1187.5 153 1187.5 153 1057 53 c 0,25,26
 912.5 -17 912.5 -17 734 -31 c 0,27,28
 422 10.5 422 10.5 212 219 c 0,29,30
 97 416 97 416 74 657 c 0,31,32
 89 854.5 89 854.5 165 1030 c 0,33,34
 267.5 1187 267.5 1187 416 1294 c 0,35,36
 580 1371.5 580 1371.5 764 1387 c 0,37,38
 910.5 1375 910.5 1375 1054 1315 c 0,39,40
 1092 1296.5 1092 1296.5 1114 1293 c 0,41,42
 1140 1296 1140 1296 1161 1312 c 0,43,44
 1184.5 1342.5 1184.5 1342.5 1198 1387 c 1,45,-1
 1233 1387 l 1,0,-1
EndSplineSet
Validated: 1
EndChar

StartChar: uniE01B
Encoding: 57371 57371 26
Width: 1251
VWidth: 0
Flags: W
LayerCount: 2
Back
Fore
SplineSet
1185 1356 m 1,0,-1
 1200 1038 l 1,1,-1
 1162 1038 l 1,2,3
 1150 1114 1150 1114 1132 1158 c 0,4,5
 1097.5 1211 1097.5 1211 1050 1244 c 0,6,7
 992.5 1266.5 992.5 1266.5 914 1271 c 2,8,-1
 723 1271 l 1,9,-1
 723 235 l 2,10,11
 727.5 126 727.5 126 750 79 c 0,12,13
 794.5 44 794.5 44 867 37 c 2,14,-1
 914 37 l 1,15,-1
 914 0 l 1,16,-1
 339 0 l 1,17,-1
 339 37 l 1,18,-1
 387 37 l 2,19,20
 464.5 45.5 464.5 45.5 509 89 c 0,21,22
 527.5 134.5 527.5 134.5 531 235 c 2,23,-1
 531 1271 l 1,24,-1
 368 1271 l 2,25,26
 282.5 1268.5 282.5 1268.5 233 1257 c 0,27,28
 183.5 1232 183.5 1232 144 1184 c 0,29,30
 112 1123.5 112 1123.5 100 1038 c 1,31,-1
 62 1038 l 1,32,-1
 78 1356 l 1,33,-1
 1185 1356 l 1,0,-1
EndSplineSet
Validated: 1
EndChar

StartChar: uniE01C
Encoding: 57372 57372 27
Width: 1450
Flags: W
LayerCount: 2
Back
Fore
SplineSet
26 1356 m 1,0,-1
 576 1356 l 1,1,-1
 576 1319 l 1,2,3
 431 1313 431 1313 431 1241 c 0,4,5
 431 1190 431 1190 538 1003 c 2,6,-1
 834 483 l 1,7,-1
 1050 1003 l 2,8,9
 1118 1167 1118 1167 1118 1223 c 0,10,11
 1118 1301 1118 1301 992 1319 c 1,12,-1
 992 1356 l 1,13,-1
 1417 1356 l 1,14,-1
 1417 1319 l 1,15,16
 1267 1301 1267 1301 1189 1115 c 2,17,-1
 930 499 l 2,18,19
 829 262 829 262 766 162 c 128,-1,20
 703 62 703 62 628.5 15.5 c 128,-1,21
 554 -31 554 -31 474 -31 c 0,22,23
 405 -31 405 -31 357.5 -1.5 c 128,-1,24
 310 28 310 28 310 79 c 0,25,26
 310 116 310 116 335 140.5 c 128,-1,27
 360 165 360 165 403 165 c 0,28,29
 445 165 445 165 503 131 c 0,30,31
 542 110 542 110 562 110 c 0,32,33
 641 110 641 110 739 274 c 1,34,-1
 247 1139 l 2,35,36
 195 1230 195 1230 148.5 1268 c 128,-1,37
 102 1306 102 1306 26 1319 c 1,38,-1
 26 1356 l 1,0,-1
EndSplineSet
Validated: 1
EndChar

StartChar: uniE01D
Encoding: 57373 57373 28
Width: 1450
VWidth: 0
Flags: W
LayerCount: 2
Back
Fore
SplineSet
26 1356 m 1,0,-1
 576 1356 l 1,1,-1
 576 1319 l 1,2,3
 455 1302 455 1302 431 1241 c 0,4,5
 449 1167.5 449 1167.5 538 1003 c 2,6,-1
 834 483 l 1,7,-1
 1050 1003 l 2,8,9
 1106.5 1149 1106.5 1149 1118 1223 c 0,10,11
 1097 1291 1097 1291 992 1319 c 1,12,-1
 992 1356 l 1,13,-1
 1417 1356 l 1,14,-1
 1417 1319 l 1,15,16
 1279 1273 1279 1273 1189 1115 c 2,17,-1
 930 499 l 2,18,19
 835.5 285 835.5 285 766 162 c 0,20,21
 701 70.5 701 70.5 628 16 c 0,22,23
 553 -23.5 553 -23.5 474 -31 c 0,24,25
 408.5 -26 408.5 -26 358 -2 c 0,26,27
 318 31.5 318 31.5 310 79 c 0,28,29
 314 114 314 114 335 140 c 0,30,31
 363 161 363 161 403 165 c 0,32,33
 447.5 159.5 447.5 159.5 503 131 c 0,34,35
 539 113.5 539 113.5 562 110 c 0,36,37
 644.5 137.5 644.5 137.5 739 274 c 1,38,-1
 247 1139 l 2,39,40
 196 1221.5 196 1221.5 148 1268 c 0,41,42
 97.5 1301.5 97.5 1301.5 26 1319 c 1,43,-1
 26 1356 l 1,0,-1
EndSplineSet
Validated: 1
EndChar

StartChar: uniE01E
Encoding: 57374 57374 29
Width: 1139
VWidth: 0
Flags: W
LayerCount: 2
Back
Fore
SplineSet
420 1048 m 1,0,-1
 494 1048 l 2,1,2
 644 1048 644 1048 718 1036 c 0,3,4
 826 1017 826 1017 897.5 971.5 c 128,-1,5
 969 926 969 926 1014.5 850 c 128,-1,6
 1060 774 1060 774 1060 680 c 0,7,8
 1060 603 1060 603 1031 537.5 c 128,-1,9
 1002 472 1002 472 953 425 c 128,-1,10
 904 378 904 378 842 350 c 128,-1,11
 780 322 780 322 681 309 c 0,12,13
 645 304 645 304 490 304 c 2,14,-1
 420 304 l 1,15,-1
 420 243 l 2,16,17
 420 114 420 114 454.5 75.5 c 128,-1,18
 489 37 489 37 573 37 c 2,19,-1
 614 37 l 1,20,-1
 614 0 l 1,21,-1
 36 0 l 1,22,-1
 36 37 l 1,23,-1
 74 37 l 2,24,25
 167 37 167 37 207 93 c 0,26,27
 227 121 227 121 227 240 c 2,28,-1
 227 1108 l 2,29,30
 227 1222 227 1222 216 1248.5 c 128,-1,31
 205 1275 205 1275 167.5 1297 c 128,-1,32
 130 1319 130 1319 76 1319 c 2,33,-1
 36 1319 l 1,34,-1
 36 1356 l 1,35,-1
 614 1356 l 1,36,-1
 614 1319 l 1,37,-1
 574 1319 l 2,38,39
 530 1319 530 1319 480 1296 c 0,40,41
 450 1282 450 1282 435 1247 c 128,-1,42
 420 1212 420 1212 420 1113 c 2,43,-1
 420 1048 l 1,0,-1
420 970 m 1,44,-1
 420 375 l 1,45,-1
 464 375 l 2,46,47
 586 375 586 375 654 403 c 0,48,49
 744 441 744 441 787 512 c 128,-1,50
 830 583 830 583 830 677 c 0,51,52
 830 752 830 752 799 815 c 128,-1,53
 768 878 768 878 717.5 913.5 c 128,-1,54
 667 949 667 949 605 962 c 0,55,56
 565 970 565 970 468 970 c 2,57,-1
 420 970 l 1,44,-1
EndSplineSet
Validated: 1
EndChar

StartChar: uniE01F
Encoding: 57375 57375 30
Width: 1479
VWidth: 0
Flags: W
LayerCount: 2
Back
Fore
SplineSet
937 454 m 1,0,-1
 412 454 l 1,1,-1
 320 240 l 2,2,3
 291.5 167.5 291.5 167.5 286 122 c 0,4,5
 291 92 291 92 316 68 c 0,6,7
 356.5 47 356.5 47 443 37 c 1,8,-1
 443 0 l 1,9,-1
 16 0 l 1,10,-1
 16 37 l 1,11,12
 91 53.5 91 53.5 126 76 c 0,13,14
 179 140.5 179 140.5 239 271 c 2,15,-1
 716 1387 l 1,16,-1
 751 1387 l 1,17,-1
 1223 259 l 2,18,19
 1278.5 139 1278.5 139 1326 82 c 0,20,21
 1379.5 48 1379.5 48 1456 37 c 1,22,-1
 1456 0 l 1,23,-1
 921 0 l 1,24,-1
 921 37 l 1,25,26
 993.5 44.5 993.5 44.5 1030 64 c 0,27,28
 1054.5 88.5 1054.5 88.5 1059 120 c 0,29,30
 1052.5 172.5 1052.5 172.5 1019 259 c 2,31,-1
 937 454 l 1,0,-1
909 528 m 1,32,-1
 679 1076 l 1,33,-1
 443 528 l 1,34,-1
 909 528 l 1,32,-1
959 1797 m 1,35,-1
 664 1452 l 1,36,-1
 630 1452 l 1,37,-1
 735 1797 l 1,38,-1
 959 1797 l 1,35,-1
EndSplineSet
Validated: 1
EndChar

StartChar: uniE020
Encoding: 57376 57376 31
Width: 1821
VWidth: 0
Flags: W
LayerCount: 2
Back
Fore
SplineSet
1027 1282 m 1,0,-1
 1027 746 l 1,1,-1
 1284 746 l 2,2,3
 1388 753 1388 753 1446 789 c 0,4,5
 1486.5 843.5 1486.5 843.5 1501 943 c 1,6,-1
 1537 943 l 1,7,-1
 1537 472 l 1,8,-1
 1501 472 l 1,9,10
 1487.5 561.5 1487.5 561.5 1468 606 c 0,11,12
 1443.5 639 1443.5 639 1400 662 c 0,13,14
 1365.5 671 1365.5 671 1284 673 c 2,15,-1
 1027 673 l 1,16,-1
 1027 224 l 2,17,18
 1028 145 1028 145 1034 116 c 0,19,20
 1043.5 99 1043.5 99 1063 86 c 0,21,22
 1091 76 1091 76 1142 74 c 2,23,-1
 1324 74 l 2,24,25
 1425 77 1425 77 1492 92 c 0,26,27
 1550 115.5 1550 115.5 1606 162 c 0,28,29
 1675 237 1675 237 1726 341 c 1,30,-1
 1764 341 l 1,31,-1
 1656 0 l 1,32,-1
 638 0 l 1,33,-1
 638 37 l 1,34,-1
 689 37 l 2,35,36
 764.5 45 764.5 45 811 86 c 0,37,38
 831 132.5 831 132.5 835 239 c 2,39,-1
 835 525 l 1,40,-1
 439 525 l 1,41,-1
 315 292 l 2,42,43
 256.5 175 256.5 175 245 119 c 0,44,45
 250 91.5 250 91.5 276 68 c 0,46,47
 317 47 317 47 402 37 c 1,48,-1
 402 0 l 1,49,-1
 -24 0 l 1,50,-1
 -24 37 l 1,51,52
 17.5 41 17.5 41 52 56 c 0,53,54
 83.5 79 83.5 79 120 121 c 0,55,56
 160.5 177.5 160.5 177.5 214 274 c 2,57,-1
 626 1045 l 2,58,59
 690 1172.5 690 1172.5 703 1238 c 0,60,61
 698.5 1267.5 698.5 1267.5 676 1288 c 0,62,63
 629 1310 629 1310 530 1319 c 1,64,-1
 530 1356 l 1,65,-1
 1641 1356 l 1,66,-1
 1656 1058 l 1,67,-1
 1622 1058 l 1,68,69
 1605 1153 1605 1153 1572 1215 c 0,70,71
 1541 1250.5 1541 1250.5 1494 1272 c 0,72,73
 1452 1280.5 1452 1280.5 1358 1282 c 2,74,-1
 1027 1282 l 1,0,-1
835 1282 m 1,75,-1
 478 598 l 1,76,-1
 835 598 l 1,77,-1
 835 1282 l 1,75,-1
1135 1836 m 1,78,-1
 840 1491 l 1,79,-1
 806 1491 l 1,80,-1
 911 1836 l 1,81,-1
 1135 1836 l 1,78,-1
EndSplineSet
Validated: 1
EndChar

StartChar: uniE022
Encoding: 57378 57378 32
Width: 1352
VWidth: 0
Flags: W
LayerCount: 2
Back
Fore
SplineSet
753 1797 m 1,0,-1
 977 1797 l 1,1,-1
 682 1452 l 1,2,-1
 648 1452 l 1,3,-1
 753 1797 l 1,0,-1
758 1390 m 0,4,5
 893 1380.5 893 1380.5 1048 1332 c 0,6,7
 1086 1319.5 1086 1319.5 1106 1317 c 0,8,9
 1142.5 1329 1142.5 1329 1182 1388 c 1,10,-1
 1216 1388 l 1,11,-1
 1239 933 l 1,12,-1
 1202 933 l 1,13,14
 1156.5 1097 1156.5 1097 1037 1215 c 0,15,16
 899 1302.5 899 1302.5 757 1320 c 0,17,18
 598.5 1297 598.5 1297 460 1180 c 0,19,20
 345.5 1012.5 345.5 1012.5 306 734 c 1,21,-1
 835 734 l 1,22,-1
 835 660 l 1,23,-1
 306 660 l 1,24,25
 317.5 475.5 317.5 475.5 376 326 c 0,26,27
 451.5 196.5 451.5 196.5 549 115 c 0,28,29
 659 57.5 659 57.5 796 46 c 0,30,31
 1063 89 1063 89 1268 304 c 1,32,-1
 1295 283 l 1,33,34
 1076.5 21.5 1076.5 21.5 757 -31 c 0,35,36
 474 3 474 3 265 174 c 0,37,38
 106 394.5 106 394.5 74 676 c 0,39,40
 91 882 91 882 176 1052 c 0,41,42
 285.5 1201 285.5 1201 424 1302 c 0,43,44
 577.5 1375.5 577.5 1375.5 758 1390 c 0,4,5
EndSplineSet
Validated: 1
EndChar

StartChar: uniE023
Encoding: 57379 57379 33
Width: 682
VWidth: 0
Flags: W
LayerCount: 2
Back
Fore
SplineSet
632 37 m 1,0,-1
 632 0 l 1,1,-1
 51 0 l 1,2,-1
 51 37 l 1,3,-1
 99 37 l 2,4,5
 175.5 45 175.5 45 221 86 c 0,6,7
 241 133 241 133 245 240 c 2,8,-1
 245 1116 l 2,9,10
 243 1207.5 243 1207.5 232 1252 c 0,11,12
 218.5 1276 218.5 1276 191 1295 c 0,13,14
 146.5 1315 146.5 1315 99 1319 c 2,15,-1
 51 1319 l 1,16,-1
 51 1356 l 1,17,-1
 632 1356 l 1,18,-1
 632 1319 l 1,19,-1
 583 1319 l 2,20,21
 507.5 1311 507.5 1311 462 1270 c 0,22,23
 441 1223 441 1223 437 1116 c 2,24,-1
 437 240 l 2,25,26
 439 148.5 439 148.5 450 104 c 0,27,28
 464 80 464 80 492 61 c 0,29,30
 536 41 536 41 583 37 c 2,31,-1
 632 37 l 1,0,-1
565 1797 m 1,32,-1
 270 1452 l 1,33,-1
 236 1452 l 1,34,-1
 341 1797 l 1,35,-1
 565 1797 l 1,32,-1
EndSplineSet
Validated: 1
EndChar

StartChar: uniE024
Encoding: 57380 57380 34
Width: 682
VWidth: 0
Flags: W
LayerCount: 2
Back
Fore
SplineSet
632 37 m 1,0,-1
 632 0 l 1,1,-1
 51 0 l 1,2,-1
 51 37 l 1,3,-1
 99 37 l 2,4,5
 175.5 45 175.5 45 221 86 c 0,6,7
 241 133 241 133 245 240 c 2,8,-1
 245 1116 l 2,9,10
 243 1207.5 243 1207.5 232 1252 c 0,11,12
 218.5 1276 218.5 1276 191 1295 c 0,13,14
 146.5 1315 146.5 1315 99 1319 c 2,15,-1
 51 1319 l 1,16,-1
 51 1356 l 1,17,-1
 632 1356 l 1,18,-1
 632 1319 l 1,19,-1
 583 1319 l 2,20,21
 507.5 1311 507.5 1311 462 1270 c 0,22,23
 441 1223 441 1223 437 1116 c 2,24,-1
 437 240 l 2,25,26
 439 148.5 439 148.5 450 104 c 0,27,28
 464 80 464 80 492 61 c 0,29,30
 536 41 536 41 583 37 c 2,31,-1
 632 37 l 1,0,-1
517 1708 m 0,32,33
 559.5 1702.5 559.5 1702.5 594 1676 c 0,34,35
 619.5 1642 619.5 1642 625 1599 c 0,36,37
 619.5 1556.5 619.5 1556.5 594 1522 c 0,38,39
 559.5 1496.5 559.5 1496.5 517 1491 c 0,40,41
 474 1496.5 474 1496.5 440 1522 c 0,42,43
 413.5 1556.5 413.5 1556.5 408 1599 c 0,44,45
 413.5 1642 413.5 1642 440 1676 c 0,46,47
 474 1702.5 474 1702.5 517 1708 c 0,32,33
164 1708 m 0,48,49
 207.5 1702.5 207.5 1702.5 242 1676 c 0,50,51
 267.5 1642 267.5 1642 273 1599 c 0,52,53
 267.5 1556.5 267.5 1556.5 241 1522 c 0,54,55
 207 1496.5 207 1496.5 165 1491 c 0,56,57
 122 1496.5 122 1496.5 88 1522 c 0,58,59
 61.5 1556.5 61.5 1556.5 56 1599 c 0,60,61
 61 1642 61 1642 88 1676 c 0,62,63
 121 1702.5 121 1702.5 164 1708 c 0,48,49
EndSplineSet
Validated: 1
EndChar

StartChar: uniE025
Encoding: 57381 57381 35
Width: 1479
VWidth: 0
Flags: W
LayerCount: 2
Back
Fore
SplineSet
976 1356 m 1,0,-1
 1449 1356 l 1,1,-1
 1449 1319 l 1,2,-1
 1423 1319 l 2,3,4
 1393 1315 1393 1315 1347 1296 c 0,5,6
 1298.5 1270 1298.5 1270 1256 1230 c 0,7,8
 1212 1178 1212 1178 1155 1090 c 2,9,-1
 828 575 l 1,10,-1
 828 235 l 2,11,12
 832.5 126 832.5 126 856 79 c 0,13,14
 901 44 901 44 976 37 c 2,15,-1
 1020 37 l 1,16,-1
 1020 0 l 1,17,-1
 444 0 l 1,18,-1
 444 37 l 1,19,-1
 492 37 l 2,20,21
 569.5 45.5 569.5 45.5 614 89 c 0,22,23
 632.5 134.5 632.5 134.5 636 235 c 2,24,-1
 636 556 l 1,25,-1
 264 1124 l 2,26,27
 205 1211.5 205 1211.5 174 1249 c 0,28,29
 142.5 1276 142.5 1276 77 1309 c 0,30,31
 54 1317.5 54 1317.5 19 1319 c 1,32,-1
 19 1356 l 1,33,-1
 599 1356 l 1,34,-1
 599 1319 l 1,35,-1
 569 1319 l 2,36,37
 523.5 1315.5 523.5 1315.5 482 1297 c 0,38,39
 449.5 1271 449.5 1271 443 1231 c 0,40,41
 453 1185.5 453 1185.5 504 1101 c 2,42,-1
 787 664 l 1,43,-1
 1053 1082 l 2,44,45
 1103 1168 1103 1168 1113 1222 c 0,46,47
 1110.5 1249 1110.5 1249 1098 1272 c 0,48,49
 1082 1292.5 1082 1292.5 1057 1306 c 0,50,51
 1025.5 1317 1025.5 1317 976 1319 c 1,52,-1
 976 1356 l 1,0,-1
936 1708 m 0,53,54
 979 1702.5 979 1702.5 1012 1676 c 0,55,56
 1039 1642 1039 1642 1044 1599 c 0,57,58
 1039 1556.5 1039 1556.5 1012 1522 c 0,59,60
 979 1496.5 979 1496.5 936 1491 c 0,61,62
 893 1496.5 893 1496.5 859 1522 c 0,63,64
 832.5 1556.5 832.5 1556.5 827 1599 c 0,65,66
 832.5 1642 832.5 1642 859 1676 c 0,67,68
 893 1702.5 893 1702.5 936 1708 c 0,53,54
583 1708 m 0,69,70
 627 1702.5 627 1702.5 660 1676 c 0,71,72
 687 1642 687 1642 692 1599 c 0,73,74
 686.5 1556.5 686.5 1556.5 660 1522 c 0,75,76
 626 1496.5 626 1496.5 584 1491 c 0,77,78
 541 1496.5 541 1496.5 507 1522 c 0,79,80
 480.5 1556.5 480.5 1556.5 475 1599 c 0,81,82
 480.5 1642 480.5 1642 506 1676 c 0,83,84
 540.5 1702.5 540.5 1702.5 583 1708 c 0,69,70
EndSplineSet
Validated: 1
EndChar

StartChar: uniE028
Encoding: 57384 57384 36
Width: 909
VWidth: 0
Flags: W
LayerCount: 2
Back
Fore
SplineSet
443 943 m 0,0,1
 564.999511719 943 564.999511719 943 643 902 c 0,2,3
 701.999511719 870.999511719 701.999511719 870.999511719 730 805 c 0,4,5
 748 761.999511719 748 761.999511719 748 629 c 0,6,7
 748 590.268265106 748 590.268265106 747.497747113 508.948381401 c 128,-1,8
 746.995494226 427.628497696 746.995494226 427.628497696 747.121317218 387.345762276 c 128,-1,9
 747.247140211 347.063026855 747.247140211 347.063026855 749.216100384 284.643846489 c 128,-1,10
 751.185060558 222.224666124 751.185060558 222.224666124 755.5 166.5 c 1,11,12
 762.998535156 130.999511719 762.998535156 130.999511719 779.5 117 c 128,-1,13
 795.998535156 103.000488281 795.998535156 103.000488281 818 103 c 0,14,15
 848.999023438 103 848.999023438 103 888 120 c 1,16,-1
 902 85 l 1,17,-1
 628 -28 l 1,18,-1
 583 -28 l 1,19,-1
 583 132 l 1,20,21
 442 22.9995117188 442 22.9995117188 406 6 c 0,22,23
 352 -19.0004882812 352 -19.0004882812 291 -19 c 0,24,25
 196.000488281 -19 196.000488281 -19 134.5 46 c 128,-1,26
 73 110.999511719 73 110.999511719 73 217 c 0,27,28
 73 284.000488281 73 284.000488281 103 333 c 0,29,30
 143.999511719 400.999511719 143.999511719 400.999511719 245.5 461 c 128,-1,31
 347.000488281 521 347.000488281 521 583 607 c 1,32,-1
 583 643 l 2,33,34
 583 779.999511719 583 779.999511719 539.5 831 c 128,-1,35
 496 882 496 882 413 882 c 0,36,37
 350 882 350 882 313 848 c 0,38,39
 275.000488281 813.999511719 275.000488281 813.999511719 275 770 c 2,40,-1
 277 712 l 2,41,42
 277 665.999511719 277 665.999511719 253.5 641 c 128,-1,43
 229.999511719 615.999511719 229.999511719 615.999511719 192 616 c 0,44,45
 154.999511719 616 154.999511719 616 131.5 642 c 128,-1,46
 107.999511719 667.999511719 107.999511719 667.999511719 108 713 c 0,47,48
 108 798.999511719 108 798.999511719 196 871 c 128,-1,49
 284.000488281 943 284.000488281 943 443 943 c 0,0,1
583 546 m 1,50,51
 431.999511719 486 431.999511719 486 388 461 c 0,52,53
 308.999511719 417.000488281 308.999511719 417.000488281 275 369 c 128,-1,54
 240.999511719 321 240.999511719 321 241 264 c 0,55,56
 241 192 241 192 284 144.5 c 128,-1,57
 327.000488281 96.9995117188 327.000488281 96.9995117188 383 97 c 0,58,59
 459.000488281 97 459.000488281 97 583 197 c 1,60,-1
 583 546 l 1,50,51
EndSplineSet
EndChar

StartChar: uniE029
Encoding: 57385 57385 37
Width: 1366
VWidth: 0
Flags: W
LayerCount: 2
Back
Fore
SplineSet
440 944 m 0,0,1
 564.000488281 944 564.000488281 944 627 908.5 c 0,2,3
 651.074115638 894.934290476 651.074115638 894.934290476 665.248042191 885.505058883 c 128,-1,4
 679.421968744 876.07582729 679.421968744 876.07582729 692.898442184 860.931790075 c 128,-1,5
 706.374915623 845.787752861 706.374915623 845.787752861 708.15625 830.4375 c 1,6,7
 824.707761785 943 824.707761785 943 982.4375 943 c 0,8,9
 1112.01611328 943 1112.01611328 943 1195.53125 871.5 c 128,-1,10
 1279.03759766 799.999511719 1279.03759766 799.999511719 1279.03125 723 c 0,11,12
 1279.03125 684.983898094 1279.03125 684.983898094 1255.53125 661.5 c 128,-1,13
 1232.01611328 637.999511719 1232.01611328 637.999511719 1189.78125 638 c 0,14,15
 1133.15039062 638 1133.15039062 638 1104.34375 676 c 0,16,17
 1088.02685547 697 1088.02685547 697 1082.75 756 c 128,-1,18
 1077.47070312 814.999511719 1077.47070312 814.999511719 1043.875 846 c 0,19,20
 1010.28027344 876 1010.28027344 876 950.78125 876 c 0,21,22
 854.797363281 876 854.797363281 876 796.25 802 c 0,23,24
 718.501953125 704.000488281 718.501953125 704.000488281 718.5 543 c 0,25,26
 718.5 531.073778195 718.5 531.073778195 718.875 520 c 1,27,-1
 1035.25 520 l 1,28,-1
 1035.25 455 l 1,29,-1
 724.46875 455 l 1,30,31
 739.959472656 344.143554688 739.959472656 344.143554688 795.75 253.5 c 0,32,33
 873.017578125 127.999511719 873.017578125 127.999511719 1004.53125 128 c 0,34,35
 1098.59619141 128 1098.59619141 128 1173.46875 195 c 0,36,37
 1226.23554701 240.978959645 1226.23554701 240.978959645 1276.15625 362 c 1,38,-1
 1304 348 l 1,39,40
 1268.48486328 166.999511719 1268.48486328 166.999511719 1164.8125 69.5 c 128,-1,41
 1061.14990234 -28 1061.14990234 -28 935.40625 -28 c 0,42,43
 785.669921875 -28 785.669921875 -28 674.34375 103 c 0,44,45
 659.410608809 120.570217212 659.410608809 120.570217212 646.5625 139.65625 c 1,46,-1
 638 132 l 2,47,48
 635 129 635 129 627.5 123.5 c 128,-1,49
 620 118 620 118 607.5 108 c 128,-1,50
 595 98 595 98 583 89 c 0,51,52
 524.999511719 42.0004882812 524.999511719 42.0004882812 505 31 c 0,53,54
 458.000488281 4 458.000488281 4 405 -12 c 128,-1,55
 352.000488281 -28.0004882812 352.000488281 -28.0004882812 296 -28 c 0,56,57
 201.999511719 -28 201.999511719 -28 137.5 38.5 c 128,-1,58
 73 104.999511719 73 104.999511719 73 201 c 0,59,60
 73 288 73 288 116.5 349 c 128,-1,61
 160 410.000488281 160 410.000488281 287 475 c 0,62,63
 443 554.999511719 443 554.999511719 563 597 c 1,64,-1
 563 689 l 2,65,66
 563 797 563 797 523 841.5 c 128,-1,67
 482.999511719 886.000488281 482.999511719 886.000488281 416 886 c 0,68,69
 350 886 350 886 313 854 c 0,70,71
 275.000488281 821 275.000488281 821 275 781 c 0,72,73
 275 697 275 697 266.5 672 c 128,-1,74
 257.999511719 646.999511719 257.999511719 646.999511719 240 634 c 128,-1,75
 222 620.999511719 222 620.999511719 195 621 c 0,76,77
 156 621 156 621 135 644 c 0,78,79
 105 675.999511719 105 675.999511719 105 716 c 0,80,81
 105 767.998816069 105 767.998816069 141.5 820 c 128,-1,82
 177.999511719 872.000488281 177.999511719 872.000488281 256.5 908 c 128,-1,83
 334.999511719 944 334.999511719 944 440 944 c 0,0,1
576 301.5 m 128,-1,85
 563 373.996788732 563 373.996788732 563 450 c 2,86,-1
 563 532 l 1,87,88
 428 490 428 490 315 404 c 0,89,90
 241.000488281 347 241.000488281 347 241 258 c 0,91,92
 241 178.999511719 241 178.999511719 288.5 129 c 128,-1,93
 336.000488281 79.0004882812 336.000488281 79.0004882812 402 79 c 0,94,95
 441 79 441 79 484.5 99.5 c 128,-1,96
 528 120.000488281 528 120.000488281 610 184 c 1,97,84
 589 229 589 229 576 301.5 c 128,-1,85
EndSplineSet
EndChar

StartChar: uniE02B
Encoding: 57387 57387 38
Width: 1042
VWidth: 0
Flags: W
LayerCount: 2
Back
Fore
SplineSet
150 654 m 1,0,1
 291.5 895 291.5 895 538 943 c 0,2,3
 717.5 919 717.5 919 850 800 c 0,4,5
 952 650.5 952 650.5 972 473 c 0,6,7
 951.5 288.5 951.5 288.5 849 128 c 0,8,9
 711.5 -2 711.5 -2 516 -28 c 0,10,11
 319 1.5 319 1.5 190 150 c 0,12,13
 96.5 340 96.5 340 78 582 c 0,14,15
 87.5 775.5 87.5 775.5 136 952 c 0,16,17
 195 1108.5 195 1108.5 258 1208 c 0,18,19
 325.5 1285.5 325.5 1285.5 406 1332 c 0,20,21
 511.5 1365 511.5 1365 703 1373 c 0,22,23
 836 1375.5 836 1375.5 888 1382 c 0,24,25
 919.5 1393.5 919.5 1393.5 949 1422 c 1,26,-1
 988 1422 l 1,27,28
 952.5 1333.5 952.5 1333.5 908 1282 c 0,29,30
 860 1244.5 860 1244.5 807 1226 c 0,31,32
 739 1213 739 1213 614 1207 c 0,33,34
 479.5 1200.5 479.5 1200.5 406 1184 c 0,35,36
 348 1157 348 1157 287 1094 c 0,37,38
 230 1015.5 230 1015.5 190 907 c 0,39,40
 161 787.5 161 787.5 150 654 c 1,0,1
504 875 m 0,41,42
 410 861 410 861 340 792 c 0,43,44
 286.5 693.5 286.5 693.5 276 531 c 0,45,46
 290.5 309.5 290.5 309.5 362 166 c 0,47,48
 452.5 62.5 452.5 62.5 561 42 c 0,49,50
 657.5 56.5 657.5 56.5 724 128 c 0,51,52
 774 232 774 232 784 405 c 0,53,54
 771 596 771 596 706 741 c 0,55,56
 620.5 852.5 620.5 852.5 504 875 c 0,41,42
EndSplineSet
EndChar

StartChar: uniE02C
Encoding: 57388 57388 39
Width: 1042
VWidth: 0
Flags: W
LayerCount: 2
Back
Fore
SplineSet
1023 878 m 1,0,1
 969.5 874 969.5 874 936 855 c 0,2,3
 893 809 893 809 853 723 c 2,4,-1
 597 108 l 1,5,-1
 597 -194 l 2,6,7
 599 -294 599 -294 608 -337 c 0,8,9
 619 -358 619 -358 642 -375 c 0,10,11
 680 -393.5 680 -393.5 727 -397 c 2,12,-1
 768 -397 l 1,13,-1
 768 -438 l 1,14,-1
 253 -438 l 1,15,-1
 253 -397 l 1,16,-1
 285 -397 l 2,17,18
 386.5 -383 386.5 -383 422 -314 c 0,19,20
 425.5 -282 425.5 -282 426 -194 c 2,21,-1
 426 89 l 1,22,-1
 163 734 l 2,23,24
 134.5 800 134.5 800 107 836 c 0,25,26
 63.5 870 63.5 870 2 878 c 1,27,-1
 2 916 l 1,28,-1
 444 916 l 1,29,-1
 444 878 l 1,30,31
 343 862.5 343 862.5 323 816 c 0,32,33
 325.5 796 325.5 796 338 757 c 2,34,-1
 555 197 l 1,35,-1
 771 742 l 2,36,37
 786 787.5 786 787.5 789 817 c 0,38,39
 785.5 838 785.5 838 768 858 c 0,40,41
 748 870 748 870 704 875 c 0,42,43
 694.5 876.5 694.5 876.5 677 878 c 1,44,-1
 677 916 l 1,45,-1
 1023 916 l 1,46,-1
 1023 878 l 1,0,1
EndSplineSet
EndChar

StartChar: uniE02E
Encoding: 57390 57390 40
Width: 1024
VWidth: 0
Flags: W
LayerCount: 2
Back
Fore
SplineSet
277.022460938 1286.06445312 m 1,0,-1
 789.508789062 848.192382812 l 2,1,2
 818.096016767 823.764851885 818.096016767 823.764851885 847.638671875 786.71875 c 0,3,4
 954.990234375 651.276299878 954.990234375 651.276299878 954.990234375 476.244140625 c 0,5,6
 954.988768418 352.872102856 954.988768418 352.872102856 895.747070312 226.350585938 c 0,7,8
 836.648041808 100.138753952 836.648041808 100.138753952 733.158203125 36.1435546875 c 0,9,10
 629.423713649 -28 629.423713649 -28 501.97265625 -28 c 0,11,12
 294.53086325 -28 294.53086325 -28 172.34375 137.260742188 c 0,13,14
 69 276.718715316 69 276.718715316 69 449.961914062 c 0,15,16
 69 576.080921501 69 576.080921501 131.806640625 701.193359375 c 0,17,18
 194.468812103 826.018022691 194.468812103 826.018022691 296.622070312 885.609375 c 0,19,20
 386.279183201 937.907522238 386.279183201 937.907522238 484.599609375 944.408203125 c 1,21,-1
 75.234375 1290.51855469 l 1,22,-1
 75.234375 1356 l 1,23,-1
 819.575195312 1356 l 1,24,-1
 825.365234375 1101.64941406 l 1,25,-1
 785.276367188 1101.64941406 l 1,26,27
 781.274761381 1175.59295552 781.274761381 1175.59295552 754.09375 1225.9296875 c 0,28,29
 734.982575664 1261.13618493 734.982575664 1261.13618493 705.096679688 1273.59179688 c 128,-1,30
 675.154720752 1286.06445312 675.154720752 1286.06445312 577.697265625 1286.06445312 c 2,31,-1
 277.022460938 1286.06445312 l 1,0,-1
481.927734375 879.818359375 m 0,32,33
 428.740641087 879.818359375 428.740641087 879.818359375 375.020507812 848.192382812 c 0,34,35
 321.618586107 816.750225283 321.618586107 816.750225283 288.603515625 737.721679688 c 0,36,37
 255.194335938 657.74176961 255.194335938 657.74176961 255.194335938 534.15234375 c 0,38,39
 255.194335938 333.915891748 255.194335938 333.915891748 334.930664062 188.486328125 c 0,40,41
 414.546337846 43.271484375 414.546337846 43.271484375 545.180664062 43.271484375 c 0,42,43
 642.399414062 43.271484375 642.399414062 43.271484375 705.541015625 123.451171875 c 0,44,45
 768.34765625 203.208203424 768.34765625 203.208203424 768.34765625 398.736328125 c 0,46,47
 768.34765625 643.436846874 768.34765625 643.436846874 663.22265625 783.6015625 c 0,48,49
 592.063476562 879.818359375 592.063476562 879.818359375 481.927734375 879.818359375 c 0,32,33
EndSplineSet
EndChar

StartChar: uniE02F
Encoding: 57391 57391 41
Width: 1024
VWidth: 0
Flags: W
LayerCount: 2
Back
Fore
SplineSet
852 858 m 0,0,1
 933 661 933 661 949 474 c 0,2,3
 939.5 338.5 939.5 338.5 892 218 c 0,4,5
 826 110.5 826 110.5 730 37 c 0,6,7
 622.5 -17 622.5 -17 499 -28 c 0,8,9
 329 -6 329 -6 194 106 c 0,10,11
 89 250 89 250 68 441 c 0,12,13
 91 642.5 91 642.5 206 806 c 0,14,15
 332 913.5 332 913.5 488 935 c 0,16,17
 535.5 933 535.5 933 576 922 c 0,18,19
 610.5 907.5 610.5 907.5 657 876 c 1,20,21
 573.5 1036 573.5 1036 447 1195 c 0,22,23
 365.5 1282.5 365.5 1282.5 326 1316 c 0,24,25
 288.5 1344.5 288.5 1344.5 237 1379 c 1,26,-1
 264 1422 l 1,27,28
 386.5 1358 386.5 1358 538 1244 c 0,29,30
 741 1052.5 741 1052.5 852 858 c 0,0,1
479 874 m 0,31,32
 388 860.5 388 860.5 318 793 c 0,33,34
 264 693 264 693 253 518 c 0,35,36
 259.5 385.5 259.5 385.5 294 268 c 0,37,38
 338.5 162.5 338.5 162.5 403 98 c 0,39,40
 473 51 473 51 547 42 c 0,41,42
 633.5 55 633.5 55 701 121 c 0,43,44
 753.5 216.5 753.5 216.5 764 377 c 0,45,46
 751 587 751 587 685 738 c 0,47,48
 598 851.5 598 851.5 479 874 c 0,31,32
EndSplineSet
EndChar

StartChar: uniE030
Encoding: 57392 57392 42
Width: 860
VWidth: 0
Flags: W
LayerCount: 2
Back
Fore
SplineSet
612 778 m 0,0,1
 556 866.5 556 866.5 465 885 c 0,2,3
 463 885 463 885 460 885 c 0,4,5
 390.5 877 390.5 877 338 838 c 0,6,7
 296 787.5 296 787.5 288 721 c 0,8,9
 299.5 632.5 299.5 632.5 357 570 c 0,10,11
 426.5 526.5 426.5 526.5 518 518 c 1,12,-1
 518 460 l 1,13,14
 304 417 304 417 261 249 c 0,15,16
 269.5 166 269.5 166 314 102 c 0,17,18
 371.5 54 371.5 54 453 44 c 0,19,20
 603 65 603 65 764 171 c 1,21,-1
 790 145 l 1,22,23
 607.5 1 607.5 1 415 -28 c 0,24,25
 285.5 -17.5 285.5 -17.5 183 35 c 0,26,27
 89.5 117.5 89.5 117.5 71 238 c 0,28,29
 116.5 414 116.5 414 345 495 c 1,30,31
 149 579.5 149 579.5 110 720 c 0,32,33
 127.5 822.5 127.5 822.5 214 892 c 0,34,35
 305.5 933.5 305.5 933.5 420 944 c 0,36,37
 451.5 943.5 451.5 943.5 483 943 c 0,38,39
 583 938 583 938 671 913 c 0,40,41
 770 863 770 863 790 785 c 0,42,43
 785.5 752 785.5 752 764 726 c 0,44,45
 737 704 737 704 704 700 c 0,46,47
 651.5 713 651.5 713 612 778 c 0,0,1
EndSplineSet
EndChar

StartChar: uniE031
Encoding: 57393 57393 43
Width: 879
VWidth: 0
Flags: W
LayerCount: 2
Back
Fore
SplineSet
507 943 m 0,0,1
 634 931 634 931 729 872 c 0,2,3
 801.5 799 801.5 799 816 723 c 0,4,5
 812 687.5 812 687.5 792 662 c 0,6,7
 763.5 642 763.5 642 723 638 c 0,8,9
 669 644.5 669 644.5 634 676 c 0,10,11
 619 703.5 619 703.5 612 756 c 0,12,13
 601 810 601 810 571 846 c 0,14,15
 531.5 871 531.5 871 474 876 c 0,16,17
 380.5 863.5 380.5 863.5 313 802 c 0,18,19
 245.5 693.5 245.5 693.5 232 543 c 0,20,21
 232 531.5 232 531.5 232 520 c 1,22,-1
 562 520 l 1,23,-1
 562 455 l 1,24,-1
 238 455 l 1,25,26
 261.5 347.5 261.5 347.5 312 254 c 0,27,28
 402.5 149 402.5 149 530 128 c 0,29,30
 624.5 139 624.5 139 706 195 c 0,31,32
 760.5 253.5 760.5 253.5 813 362 c 1,33,-1
 842 348 l 1,34,35
 793 180.5 793 180.5 697 70 c 0,36,37
 585 -12 585 -12 458 -28 c 0,38,39
 308.5 -6 308.5 -6 186 103 c 0,40,41
 89.5 249 89.5 249 70 457 c 0,42,43
 91.5 659.5 91.5 659.5 198 808 c 0,44,45
 335.5 920.5 335.5 920.5 507 943 c 0,0,1
EndSplineSet
EndChar

StartChar: uniE032
Encoding: 57394 57394 44
Width: 909
VWidth: 0
Flags: W
LayerCount: 2
Back
Fore
SplineSet
839 879 m 1,0,-1
 471 405 l 1,1,2
 601.5 367.5 601.5 367.5 701 281 c 0,3,4
 787.5 157.5 787.5 157.5 805 -3 c 0,5,6
 789 -177 789 -177 709 -309 c 0,7,8
 589.5 -420 589.5 -420 417 -442 c 0,9,10
 273 -422.5 273 -422.5 159 -326 c 0,11,12
 75 -214.5 75 -214.5 33 -66 c 1,13,-1
 62 -52 l 1,14,15
 176.5 -247 176.5 -247 345 -286 c 0,16,17
 482 -269.5 482 -269.5 573 -188 c 0,18,19
 631.5 -91.5 631.5 -91.5 643 43 c 0,20,21
 579.5 299 579.5 299 262 350 c 1,22,-1
 262 386 l 1,23,-1
 622 846 l 1,24,-1
 312 846 l 2,25,26
 243.5 845.5 243.5 845.5 212 842 c 0,27,28
 164.5 825.5 164.5 825.5 136 786 c 0,29,30
 113 732 113 732 105 662 c 1,31,-1
 65 662 l 1,32,-1
 71 916 l 1,33,-1
 839 916 l 1,34,-1
 839 879 l 1,0,-1
EndSplineSet
EndChar

StartChar: uniE033
Encoding: 57395 57395 45
Width: 797
VWidth: 0
Flags: W
LayerCount: 2
Back
Fore
SplineSet
697 678 m 0,0,1
 685 580.5 685 580.5 626 507 c 0,2,3
 568.5 460.5 568.5 460.5 462 404 c 0,4,5
 356.5 350 356.5 350 305 316 c 0,6,7
 234 248.5 234 248.5 220 169 c 0,8,9
 228 111.5 228 111.5 268 68 c 0,10,11
 316 37 316 37 376 31 c 0,12,13
 485 45.5 485 45.5 568 117 c 0,14,15
 628.5 200.5 628.5 200.5 660 313 c 1,16,-1
 693 313 l 1,17,-1
 693 -14 l 1,18,-1
 660 -14 l 1,19,20
 645 7.5 645 7.5 624 12 c 0,21,22
 602 10.5 602 10.5 570 2 c 0,23,24
 467 -23 467 -23 378 -28 c 0,25,26
 261.5 -15 261.5 -15 166 49 c 0,27,28
 87.5 136.5 87.5 136.5 72 250 c 0,29,30
 106 401.5 106 401.5 275 511 c 2,31,-1
 421 582 l 2,32,33
 552.5 663.5 552.5 663.5 579 765 c 0,34,35
 570 816.5 570 816.5 526 854 c 0,36,37
 479 879 479 879 423 884 c 0,38,39
 321.5 871.5 321.5 871.5 252 809 c 0,40,41
 208 742 208 742 174 631 c 1,42,-1
 141 631 l 1,43,-1
 141 943 l 1,44,-1
 174 943 l 1,45,46
 194.5 911.5 194.5 911.5 220 905 c 0,47,48
 242.5 907.5 242.5 907.5 288 920 c 0,49,50
 361 939 361 939 419 943 c 0,51,52
 531 931 531 931 617 871 c 0,53,54
 683.5 789 683.5 789 697 678 c 0,0,1
EndSplineSet
EndChar

StartChar: uniE034
Encoding: 57396 57396 46
Width: 1024
VWidth: 0
Flags: W
LayerCount: 2
Back
Fore
SplineSet
1015 -438 m 1,0,-1
 562 -438 l 1,1,-1
 562 -402 l 1,2,-1
 581 -402 l 2,3,4
 672 -389 672 -389 706 -325 c 0,5,6
 709.5 -299.5 709.5 -299.5 710 -231 c 2,7,-1
 710 582 l 2,8,9
 706.5 679.5 706.5 679.5 690 740 c 0,10,11
 647.5 806.5 647.5 806.5 568 820 c 0,12,13
 449.5 798.5 449.5 798.5 331 690 c 1,14,-1
 331 207 l 2,15,16
 333 126 333 126 342 92 c 0,17,18
 383 45.5 383 45.5 480 36 c 1,19,-1
 480 0 l 1,20,-1
 27 0 l 1,21,-1
 27 36 l 1,22,-1
 47 36 l 2,23,24
 116 44.5 116 44.5 149 86 c 0,25,26
 163 128 163 128 166 207 c 2,27,-1
 166 547 l 2,28,29
 161 738.5 161 738.5 136 797 c 0,30,31
 118 808 118 808 94 810 c 0,32,33
 64 807.5 64 807.5 27 795 c 1,34,-1
 12 831 l 1,35,-1
 288 943 l 1,36,-1
 331 943 l 1,37,-1
 331 749 l 1,38,39
 489.5 910.5 489.5 910.5 638 943 c 0,40,41
 777 916 777 916 853 782 c 0,42,43
 871.5 712 871.5 712 875 598 c 2,44,-1
 875 -231 l 2,45,46
 883.5 -342.5 883.5 -342.5 925 -388 c 0,47,48
 957 -399.5 957 -399.5 1015 -402 c 1,49,-1
 1015 -438 l 1,0,-1
EndSplineSet
EndChar

StartChar: uniE035
Encoding: 57397 57397 47
Width: 1024
VWidth: 0
Flags: W
LayerCount: 2
Back
Fore
SplineSet
953 475 m 0,0,1
 943.5 349 943.5 349 895 228 c 0,2,3
 827 110 827 110 731 36 c 0,4,5
 624 -17.5 624 -17.5 501 -28 c 0,6,7
 308 -0.5 308 -0.5 172 137 c 0,8,9
 86 282 86 282 69 449 c 0,10,11
 79 573 79 573 129 695 c 0,12,13
 199.5 812.5 199.5 812.5 295 884 c 0,14,15
 399 933 399 933 512 943 c 0,16,17
 706.5 916.5 706.5 916.5 846 785 c 0,18,19
 935 643.5 935 643.5 953 475 c 0,0,1
760 520 m 1,20,21
 735 652 735 652 681 755 c 0,22,23
 596.5 857.5 596.5 857.5 481 878 c 0,24,25
 359.5 854.5 359.5 854.5 288 736 c 0,26,27
 260.5 652 260.5 652 255 543 c 0,28,29
 255 538 255 538 255 533 c 2,30,-1
 255 520 l 1,31,-1
 760 520 l 1,20,21
767 398 m 0,32,33
 766.5 420.5 766.5 420.5 765 455 c 1,34,-1
 258 455 l 1,35,36
 279.5 310.5 279.5 310.5 335 188 c 0,37,38
 422.5 67 422.5 67 544 43 c 0,39,40
 730 102 730 102 767 398 c 0,32,33
EndSplineSet
EndChar

StartChar: uniE036
Encoding: 57398 57398 48
Width: 569
VWidth: 0
Flags: W
LayerCount: 2
Back
Fore
SplineSet
515 0 m 1,0,-1
 54 0 l 1,1,-1
 54 37 l 1,2,3
 112.5 40 112.5 40 134 42 c 0,4,5
 173 55.5 173 55.5 195 86 c 0,6,7
 208.5 128.5 208.5 128.5 211 215 c 2,8,-1
 211 701 l 2,9,10
 210.5 765 210.5 765 208 793 c 0,11,12
 194.5 844 194.5 844 162 866 c 0,13,14
 127 875 127 875 54 878 c 1,15,-1
 54 916 l 1,16,-1
 515 916 l 5,17,-1
 515 878 l 1,18,19
 423 869 423 869 388 825 c 0,20,21
 379 785.5 379 785.5 377 701 c 2,22,-1
 377 215 l 2,23,24
 377.5 148 377.5 148 379 124 c 0,25,26
 392 77 392 77 425 52 c 0,27,28
 461 39.5 461 39.5 515 37 c 1,29,-1
 515 0 l 1,0,-1
EndSplineSet
EndChar

StartChar: uniE037
Encoding: 57399 57399 49
Width: 574
VWidth: 0
Flags: W
LayerCount: 2
Back
Fore
SplineSet
217 -94 m 0,0,1
 216.598439415 -9.91764705882 216.598439415 -9.91764705882 216.5 32 c 2,2,-1
 216 733 l 2,3,4
 216 806 216 806 213 825 c 0,5,6
 204 883.000488281 204 883.000488281 167 898 c 0,7,8
 141.000488281 908.999511719 141.000488281 908.999511719 59 910 c 1,9,-1
 59 948 l 1,10,-1
 520 948 l 1,11,-1
 520 910 l 1,12,13
 413.999511719 910 413.999511719 910 393 857 c 0,14,15
 382.000488281 828.999511719 382.000488281 828.999511719 382 733 c 2,16,-1
 382 26.5 l 2,17,18
 382 -214 382 -214 282 -328 c 128,-1,19
 181.999511719 -442 181.999511719 -442 22 -442 c 0,20,21
 -69.0004882812 -442 -69.0004882812 -442 -113 -409 c 128,-1,22
 -156.999511719 -376 -156.999511719 -376 -157 -341 c 128,-1,23
 -157 -306.000488281 -157 -306.000488281 -132.5 -281 c 128,-1,24
 -108.000488281 -255.999511719 -108.000488281 -255.999511719 -75 -256 c 0,25,26
 -49.0004882812 -256 -49.0004882812 -256 -22 -269 c 0,27,28
 -5.00048828125 -276.000488281 -5.00048828125 -276.000488281 43.5 -319.5 c 128,-1,29
 91.9995117188 -363 91.9995117188 -363 125 -363 c 0,30,31
 149 -363 149 -363 172 -344.5 c 128,-1,32
 194.999511719 -326.000488281 194.999511719 -326.000488281 206 -282.5 c 128,-1,33
 216.999511719 -239 216.999511719 -239 217 -94 c 0,0,1
EndSplineSet
EndChar

StartChar: uniE038
Encoding: 57400 57400 50
Width: 1105
VWidth: 0
Flags: W
LayerCount: 2
Back
Fore
SplineSet
1100 0 m 1,0,-1
 624 0 l 1,1,-1
 624 37 l 1,2,3
 698 37 698 37 698 80 c 0,4,5
 698 109 698 109 649 157 c 2,6,-1
 343 457 l 1,7,-1
 343 174 l 2,8,9
 343 75 343 75 380 54 c 0,10,11
 410 37 410 37 442 37 c 2,12,-1
 473 37 l 1,13,-1
 473 0 l 1,14,-1
 45 0 l 1,15,-1
 45 37 l 1,16,-1
 77 37 l 2,17,18
 134 37 134 37 159 70 c 0,19,20
 176 92 176 92 176 174 c 2,21,-1
 176 742 l 2,22,23
 176 811 176 811 167 834 c 0,24,25
 149 879 149 879 77 879 c 2,26,-1
 45 879 l 1,27,-1
 45 916 l 1,28,-1
 473 916 l 1,29,-1
 473 879 l 1,30,-1
 442 879 l 2,31,32
 369 879 369 879 351 831 c 0,33,34
 343 810 343 810 343 742 c 2,35,-1
 343 474 l 1,36,37
 363 492 363 492 436 559 c 0,38,39
 626 733 626 733 667 794 c 0,40,41
 685 820 685 820 685 840 c 0,42,43
 685 879 685 879 623 879 c 2,44,-1
 602 879 l 1,45,-1
 602 916 l 1,46,-1
 953 916 l 1,47,-1
 953 879 l 1,48,49
 899 878 899 878 840 842 c 0,50,51
 788 810 788 810 728 751 c 2,52,-1
 626 647 l 1,53,-1
 496 523 l 1,54,-1
 841 184 l 2,55,56
 982 45 982 45 1100 37 c 1,57,-1
 1100 0 l 1,0,-1
EndSplineSet
EndChar

StartChar: uniE039
Encoding: 57401 57401 51
Width: 1024
VWidth: 0
Flags: W
LayerCount: 2
Back
Fore
SplineSet
1005 0 m 1,0,-1
 574 0 l 1,1,-1
 574 37 l 1,2,-1
 602 37 l 2,3,4
 682 37 682 37 682 107 c 0,5,6
 682 140 682 140 661 190 c 2,7,-1
 448 696 l 1,8,-1
 234 171 l 2,9,10
 211 115 211 115 211 86 c 0,11,12
 211 72 211 72 219 63 c 0,13,14
 238 37 238 37 316 37 c 1,15,-1
 316 0 l 1,16,-1
 17 0 l 1,17,-1
 17 37 l 1,18,19
 69 41 69 41 89 58 c 0,20,21
 122 87 122 87 152 158 c 2,22,-1
 477 944 l 1,23,-1
 518 944 l 1,24,-1
 845 171 l 2,25,26
 882 83 882 83 938 54 c 0,27,28
 955 45 955 45 1005 37 c 1,29,-1
 1005 0 l 1,0,-1
EndSplineSet
EndChar

StartChar: uniE03A
Encoding: 57402 57402 52
Width: 1296
VWidth: 0
Flags: W
LayerCount: 2
Back
Fore
SplineSet
656 239 m 1,0,-1
 942 916 l 1,1,-1
 1251 916 l 1,2,-1
 1251 878 l 1,3,4
 1183 878 1183 878 1160.5 864.5 c 128,-1,5
 1138 851 1138 851 1125 831 c 128,-1,6
 1112 811 1112 811 1112 701 c 2,7,-1
 1112 215 l 2,8,9
 1112 120 1112 120 1121.5 92.5 c 128,-1,10
 1131 65 1131 65 1160.5 51 c 128,-1,11
 1190 37 1190 37 1251 37 c 1,12,-1
 1251 0 l 1,13,-1
 808 0 l 1,14,-1
 808 37 l 1,15,16
 890 37 890 37 918 67.5 c 128,-1,17
 946 98 946 98 946 215 c 2,18,-1
 946 766 l 1,19,-1
 622 0 l 1,20,-1
 587 0 l 1,21,-1
 257 766 l 1,22,-1
 257 215 l 2,23,24
 257 120 257 120 267 92.5 c 128,-1,25
 277 65 277 65 306 51 c 128,-1,26
 335 37 335 37 396 37 c 1,27,-1
 396 0 l 1,28,-1
 46 0 l 1,29,-1
 46 37 l 1,30,31
 135 37 135 37 160 69.5 c 128,-1,32
 185 102 185 102 185 215 c 2,33,-1
 185 701 l 2,34,35
 185 808 185 808 174 827.5 c 128,-1,36
 163 847 163 847 140 862.5 c 128,-1,37
 117 878 117 878 46 878 c 1,38,-1
 46 916 l 1,39,-1
 368 916 l 1,40,-1
 656 239 l 1,0,-1
EndSplineSet
EndChar

StartChar: uniE03B
Encoding: 57403 57403 53
Width: 1024
VWidth: 0
Flags: W
LayerCount: 2
Back
Fore
SplineSet
17 916 m 1,0,-1
 448 916 l 1,1,-1
 448 879 l 1,2,-1
 420 879 l 2,3,4
 384 876 384 876 360 860 c 0,5,6
 343.5 838.5 343.5 838.5 340 809 c 0,7,8
 343.5 772 343.5 772 361 726 c 2,9,-1
 574 220 l 1,10,-1
 788 745 l 2,11,12
 807 796.5 807 796.5 811 830 c 0,13,14
 809.5 843 809.5 843 803 853 c 0,15,16
 791 866.5 791 866.5 775 874 c 0,17,18
 752.5 878 752.5 878 706 879 c 1,19,-1
 706 916 l 1,20,-1
 1005 916 l 1,21,-1
 1005 879 l 1,22,23
 958 872.5 958 872.5 933 858 c 0,24,25
 899.5 821.5 899.5 821.5 870 758 c 2,26,-1
 545 -28 l 1,27,-1
 504 -28 l 1,28,-1
 177 745 l 2,29,30
 155 794 155 794 135 822 c 0,31,32
 113.5 844.5 113.5 844.5 84 862 c 0,33,34
 61.5 871 61.5 871 17 879 c 1,35,-1
 17 916 l 1,0,-1
EndSplineSet
EndChar

StartChar: uniE03C
Encoding: 57404 57404 54
Width: 1479
VWidth: 0
Flags: W
LayerCount: 2
Back
Fore
SplineSet
13 916 m 1,0,-1
 397 916 l 1,1,-1
 397 879 l 1,2,3
 350 873 350 873 328 860 c 0,4,5
 313.5 843 313.5 843 311 817 c 0,6,7
 314 783.5 314 783.5 328 742 c 2,8,-1
 524 215 l 1,9,-1
 721 644 l 1,10,-1
 669 779 l 2,11,12
 642.5 833 642.5 833 606 862 c 0,13,14
 577.5 874 577.5 874 524 879 c 1,15,-1
 524 916 l 1,16,-1
 960 916 l 1,17,-1
 960 879 l 1,18,19
 895 872.5 895 872.5 858 853 c 0,20,21
 841.5 833.5 841.5 833.5 838 802 c 0,22,23
 839.5 782 839.5 782 846 761 c 2,24,-1
 1054 235 l 1,25,-1
 1247 742 l 2,26,27
 1263.5 792.5 1263.5 792.5 1267 828 c 0,28,29
 1263.5 846.5 1263.5 846.5 1248 862 c 0,30,31
 1221.5 875 1221.5 875 1171 879 c 1,32,-1
 1171 916 l 1,33,-1
 1460 916 l 1,34,-1
 1460 879 l 1,35,36
 1380.5 850.5 1380.5 850.5 1332 761 c 2,37,-1
 1096 153 l 1,38,-1
 1096 -194 l 2,39,40
 1098 -294 1098 -294 1107 -337 c 0,41,42
 1118 -358 1118 -358 1141 -375 c 0,43,44
 1179 -393.5 1179 -393.5 1226 -397 c 2,45,-1
 1267 -397 l 1,46,-1
 1267 -438 l 1,47,-1
 752 -438 l 1,48,-1
 752 -397 l 1,49,-1
 784 -397 l 2,50,51
 885.5 -383 885.5 -383 921 -314 c 0,52,53
 924.5 -282 924.5 -282 925 -194 c 2,54,-1
 925 125 l 1,55,-1
 756 557 l 1,56,-1
 489 -28 l 1,57,-1
 452 -28 l 1,58,-1
 158 742 l 2,59,60
 129.5 807.5 129.5 807.5 101 840 c 0,61,62
 67.5 864 67.5 864 13 879 c 1,63,-1
 13 916 l 1,0,-1
EndSplineSet
EndChar

StartChar: uniE03D
Encoding: 57405 57405 55
Width: 1024
VWidth: 0
Flags: W
LayerCount: 2
Back
Fore
SplineSet
512 943 m 0,0,1
 706.5 916.5 706.5 916.5 846 785 c 0,2,3
 935 643.5 935 643.5 953 475 c 0,4,5
 943 351.5 943 351.5 894 226 c 0,6,7
 827.5 110.5 827.5 110.5 732 36 c 0,8,9
 624 -17.5 624 -17.5 501 -28 c 0,10,11
 308 -0.5 308 -0.5 172 137 c 0,12,13
 86 282 86 282 69 449 c 0,14,15
 79.5 574.5 79.5 574.5 132 700 c 0,16,17
 200.5 813 200.5 813 296 884 c 0,18,19
 400 933 400 933 512 943 c 0,0,1
481 878 m 0,20,21
 428 873 428 873 374 846 c 0,22,23
 324.5 807.5 324.5 807.5 288 736 c 0,24,25
 260.5 649.5 260.5 649.5 255 533 c 0,26,27
 268.5 342.5 268.5 342.5 334 188 c 0,28,29
 422.5 67 422.5 67 544 43 c 0,30,31
 635.5 56.5 635.5 56.5 704 123 c 0,32,33
 756.5 222 756.5 222 767 398 c 0,34,35
 749.5 625 749.5 625 662 782 c 0,36,37
 584.5 862 584.5 862 481 878 c 0,20,21
EndSplineSet
EndChar

StartChar: uniE03E
Encoding: 57406 57406 56
Width: 1293
VWidth: 0
Flags: W
LayerCount: 2
Back
Fore
SplineSet
448 917 m 1,0,-1
 1240 917 l 1,1,-1
 1280 669 l 1,2,-1
 1235 669 l 1,3,4
 1220.5 738.5 1220.5 738.5 1195 785 c 0,5,6
 1165.5 821 1165.5 821 1131 839 c 0,7,8
 1086.5 850 1086.5 850 1008 852 c 1,9,-1
 1008 215 l 2,10,11
 1010 123 1010 123 1019 88 c 0,12,13
 1032 69 1032 69 1054 52 c 0,14,15
 1084.5 39.5 1084.5 39.5 1147 37 c 1,16,-1
 1147 0 l 1,17,-1
 704 0 l 1,18,-1
 704 37 l 1,19,20
 777.5 42 777.5 42 815 68 c 0,21,22
 838.5 112.5 838.5 112.5 843 215 c 2,23,-1
 843 851 l 1,24,-1
 447 851 l 1,25,-1
 447 215 l 2,26,27
 449 123 449 123 458 88 c 0,28,29
 471 69 471 69 492 52 c 0,30,31
 523.5 39.5 523.5 39.5 586 37 c 1,32,-1
 586 0 l 1,33,-1
 143 0 l 1,34,-1
 143 37 l 1,35,36
 221 42.5 221 42.5 257 70 c 0,37,38
 278 115.5 278 115.5 282 215 c 2,39,-1
 282 851 l 1,40,41
 205.5 849.5 205.5 849.5 165 840 c 0,42,43
 134 825.5 134 825.5 106 790 c 0,44,45
 78 743.5 78 743.5 57 668 c 1,46,-1
 12 668 l 1,47,-1
 50 916 l 1,48,-1
 282 916 l 1,49,-1
 455 916 l 1,50,-1
 448 917 l 1,0,-1
EndSplineSet
EndChar

StartChar: uniE03F
Encoding: 57407 57407 57
Width: 1024
VWidth: 0
Flags: W
LayerCount: 2
Back
Fore
SplineSet
702 225 m 1,0,-1
 702 744 l 2,1,2
 702 822 702 822 673.5 849.5 c 128,-1,3
 645 876.999511719 645 876.999511719 555 879 c 1,4,-1
 555 916 l 1,5,-1
 830 916 l 1,6,-1
 867 916 l 1,7,-1
 868 916 l 1,8,-1
 868 -254 l 2,9,10
 868 -348.000488281 868 -348.000488281 879.5 -373.5 c 128,-1,11
 891.000488281 -399 891.000488281 -399 919.5 -414 c 128,-1,12
 948 -429 948 -429 1023 -429 c 1,13,-1
 1023 -466 l 1,14,-1
 543 -466 l 1,15,-1
 543 -429 l 1,16,-1
 568 -429 l 2,17,18
 623.000488281 -430.000488281 623.000488281 -430.000488281 662 -408 c 0,19,20
 681.000488281 -397.000488281 681.000488281 -397.000488281 691.5 -372.5 c 128,-1,21
 702 -348.000488281 702 -348.000488281 702 -248 c 2,22,-1
 702 -28 l 1,23,-1
 702 166 l 1,24,25
 583.999511719 38.0004882812 583.999511719 38.0004882812 522 5 c 128,-1,26
 460.000488281 -28 460.000488281 -28 391 -28 c 0,27,28
 314.000488281 -28 314.000488281 -28 257.5 16.5 c 128,-1,29
 200.999511719 61.0004882812 200.999511719 61.0004882812 179 131 c 128,-1,30
 156.999511719 201.000488281 156.999511719 201.000488281 157 329 c 2,31,-1
 157 738 l 2,32,33
 157 802.999511719 157 802.999511719 143 828 c 128,-1,34
 129.000488281 853.000488281 129.000488281 853.000488281 101.5 866.5 c 128,-1,35
 74.0004882812 880 74.0004882812 880 2 879 c 1,36,-1
 2 916 l 1,37,-1
 323 916 l 1,38,-1
 323 303 l 2,39,40
 323 175.000488281 323 175.000488281 367.5 135 c 128,-1,41
 412.000488281 94.9995117188 412.000488281 94.9995117188 475 95 c 0,42,43
 518.000488281 95 518.000488281 95 572.5 122 c 128,-1,44
 626.999511719 149 626.999511719 149 702 225 c 1,0,-1
EndSplineSet
EndChar

StartChar: uniE040
Encoding: 57408 57408 58
Width: 1024
VWidth: 0
Flags: W
LayerCount: 2
Back
Fore
SplineSet
-2 825 m 1,0,-1
 280 939 l 1,1,-1
 318 939 l 1,2,-1
 318 725 l 1,3,4
 389 834 389 834 460 894 c 0,5,6
 533 935 533 935 611 943 c 0,7,8
 741.5 925 741.5 925 841 835 c 0,9,10
 935 689.5 935 689.5 954 491 c 0,11,12
 931.5 267.5 931.5 267.5 818 99 c 0,13,14
 696 -7 696 -7 536 -28 c 0,15,16
 465.5 -24.5 465.5 -24.5 408 -7 c 0,17,18
 366 13 366 13 318 53 c 1,19,-1
 318 -226 l 2,20,21
 320 -308.5 320 -308.5 330 -346 c 0,22,23
 343.5 -369 343.5 -369 370 -386 c 0,24,25
 405.5 -398.5 405.5 -398.5 473 -401 c 1,26,-1
 473 -438 l 1,27,-1
 -7 -438 l 1,28,-1
 -7 -401 l 1,29,-1
 18 -401 l 2,30,31
 21.5 -401 21.5 -401 25 -401 c 0,32,33
 73.5 -397.5 73.5 -397.5 112 -380 c 0,34,35
 129.5 -367 129.5 -367 142 -344 c 0,36,37
 150 -307.5 150 -307.5 152 -220 c 2,38,-1
 152 646 l 2,39,40
 150.5 724 150.5 724 144 759 c 0,41,42
 134.5 781 134.5 781 118 795 c 0,43,44
 99 805 99 805 71 807 c 0,45,46
 45 804.5 45 804.5 10 793 c 1,47,-1
 -2 825 l 1,0,-1
318 666 m 1,48,-1
 318 324 l 2,49,50
 319.5 225.5 319.5 225.5 327 178 c 0,51,52
 347.5 122 347.5 122 396 76 c 0,53,54
 455 39.5 455 39.5 533 32 c 0,55,56
 627 45 627 45 695 110 c 0,57,58
 762.5 226 762.5 226 776 397 c 0,59,60
 760.5 591 760.5 591 684 720 c 0,61,62
 616 785 616 785 532 798 c 0,63,64
 484 794 484 794 437 774 c 0,65,66
 393 744 393 744 318 666 c 1,48,-1
EndSplineSet
EndChar

StartChar: uniE041
Encoding: 57409 57409 59
Width: 909
VWidth: 0
Flags: W
LayerCount: 2
Back
Fore
SplineSet
842 348 m 1,0,1
 805 167 805 167 697 69.5 c 128,-1,2
 589 -28 589 -28 458 -28 c 0,3,4
 302 -28 302 -28 186 103 c 128,-1,5
 70 234 70 234 70 457 c 0,6,7
 70 673 70 673 198.5 808 c 128,-1,8
 327 943 327 943 507 943 c 0,9,10
 642 943 642 943 729 871.5 c 128,-1,11
 816 800 816 800 816 723 c 0,12,13
 816 685 816 685 791.5 661.5 c 128,-1,14
 767 638 767 638 723 638 c 0,15,16
 664 638 664 638 634 676 c 0,17,18
 617 697 617 697 611.5 756 c 128,-1,19
 606 815 606 815 571 846 c 0,20,21
 536 876 536 876 474 876 c 0,22,23
 374 876 374 876 313 802 c 0,24,25
 232 704 232 704 232 543 c 0,26,27
 232 379 232 379 312.5 253.5 c 128,-1,28
 393 128 393 128 530 128 c 0,29,30
 628 128 628 128 706 195 c 0,31,32
 761 241 761 241 813 362 c 1,33,-1
 842 348 l 1,0,1
EndSplineSet
EndChar

StartChar: uniE042
Encoding: 57410 57410 60
Width: 895
VWidth: 0
Flags: W
LayerCount: 2
Back
Fore
SplineSet
50 916 m 1,0,-1
 842 916 l 1,1,-1
 882 668 l 1,2,-1
 837 668 l 1,3,4
 822.5 737.5 822.5 737.5 797 784 c 0,5,6
 767.5 820 767.5 820 733 838 c 0,7,8
 688.5 849 688.5 849 610 851 c 2,9,-1
 530 851 l 1,10,-1
 530 215 l 2,11,12
 532 125.5 532 125.5 542 86 c 0,13,14
 557.5 61 557.5 61 583 49 c 0,15,16
 623 41 623 41 711 37 c 1,17,-1
 711 0 l 1,18,-1
 213 0 l 1,19,-1
 213 37 l 1,20,21
 297.5 43.5 297.5 43.5 336 68 c 0,22,23
 359.5 111.5 359.5 111.5 364 215 c 2,24,-1
 364 851 l 1,25,-1
 282 851 l 2,26,27
 205.5 849.5 205.5 849.5 165 840 c 0,28,29
 134 825.5 134 825.5 106 790 c 0,30,31
 78 743.5 78 743.5 57 668 c 1,32,-1
 12 668 l 1,33,-1
 50 916 l 1,0,-1
EndSplineSet
EndChar

StartChar: uniE043
Encoding: 57411 57411 61
Width: 1100
VWidth: 0
Flags: W
LayerCount: 2
Back
Fore
SplineSet
1055 879 m 1,0,-1
 1021 879 l 2,1,2
 971 871.5 971 871.5 938 834 c 0,3,4
 925.5 802.5 925.5 802.5 923 737 c 2,5,-1
 923 378 l 2,6,7
 910 195 910 195 846 83 c 0,8,9
 745 -3 745 -3 571 -20 c 0,10,11
 372 -1.5 372 -1.5 258 92 c 0,12,13
 191.5 208 191.5 208 178 397 c 2,14,-1
 178 742 l 2,15,16
 175.5 805.5 175.5 805.5 163 840 c 0,17,18
 135 872.5 135 872.5 79 879 c 2,19,-1
 45 879 l 1,20,-1
 45 916 l 1,21,-1
 475 916 l 1,22,-1
 475 879 l 1,23,-1
 439 879 l 2,24,25
 387.5 873 387.5 873 358 844 c 0,26,27
 344.5 812 344.5 812 342 742 c 2,28,-1
 342 368 l 2,29,30
 349.5 229.5 349.5 229.5 386 143 c 0,31,32
 455.5 65.5 455.5 65.5 579 50 c 0,33,34
 727.5 66.5 727.5 66.5 806 149 c 0,35,36
 843.5 239.5 843.5 239.5 851 396 c 2,37,-1
 851 742 l 2,38,39
 848 817 848 817 832 850 c 0,40,41
 801.5 874 801.5 874 753 879 c 2,42,-1
 719 879 l 1,43,-1
 719 916 l 1,44,-1
 1055 916 l 1,45,-1
 1055 879 l 1,0,-1
EndSplineSet
EndChar

StartChar: uniE044
Encoding: 57412 57412 62
Width: 1024
VWidth: 0
Flags: W
LayerCount: 2
Back
Fore
SplineSet
12 916 m 1,0,-1
 439 916 l 1,1,-1
 439 879 l 1,2,-1
 418 879 l 2,3,4
 377 875.5 377 875.5 350 860 c 0,5,6
 332 838 332 838 328 811 c 0,7,8
 333.5 767 333.5 767 361 703 c 2,9,-1
 584 241 l 1,10,-1
 789 747 l 2,11,12
 803 787.5 803 787.5 806 828 c 0,13,14
 805 844.5 805 844.5 799 855 c 0,15,16
 789.5 865 789.5 865 774 872 c 0,17,18
 753 878 753 878 714 879 c 1,19,-1
 714 916 l 1,20,-1
 1012 916 l 1,21,-1
 1012 879 l 1,22,23
 977.5 873.5 977.5 873.5 955 863 c 0,24,25
 934.5 847.5 934.5 847.5 911 818 c 0,26,27
 899.5 796 899.5 796 877 741 c 2,28,-1
 504 -173 l 2,29,30
 444.5 -295.5 444.5 -295.5 362 -374 c 0,31,32
 276 -430.5 276 -430.5 194 -442 c 0,33,34
 138.5 -436.5 138.5 -436.5 97 -408 c 0,35,36
 65.5 -372 65.5 -372 59 -330 c 0,37,38
 63.5 -291 63.5 -291 86 -262 c 0,39,40
 117.5 -241.5 117.5 -241.5 162 -237 c 0,41,42
 199 -240.5 199 -240.5 252 -259 c 0,43,44
 287 -271.5 287 -271.5 302 -274 c 0,45,46
 333 -269 333 -269 368 -243 c 0,47,48
 403 -202 403 -202 439 -123 c 2,49,-1
 504 36 l 1,50,-1
 175 727 l 2,51,52
 157 760.5 157 760.5 127 804 c 0,53,54
 103.5 835 103.5 835 86 851 c 0,55,56
 58.5 866.5 58.5 866.5 12 879 c 1,57,-1
 12 916 l 1,0,-1
EndSplineSet
EndChar

StartChar: uniE045
Encoding: 57413 57413 63
Width: 1133
VWidth: 0
Flags: W
LayerCount: 2
Back
Fore
SplineSet
1064 466 m 0,0,1
 1044.5 274 1044.5 274 948 131 c 0,2,3
 826.5 23 826.5 23 657 -21 c 1,4,-1
 657 -223 l 2,5,6
 657.5 -290 657.5 -290 659 -314 c 0,7,8
 672 -361 672 -361 705 -386 c 0,9,10
 741 -398.5 741 -398.5 795 -401 c 1,11,-1
 795 -438 l 1,12,-1
 334 -438 l 1,13,-1
 334 -401 l 1,14,15
 392.5 -398 392.5 -398 414 -396 c 0,16,17
 453 -382.5 453 -382.5 475 -352 c 0,18,19
 488.5 -309.5 488.5 -309.5 491 -223 c 2,20,-1
 491 -25 l 1,21,22
 311 10.5 311 10.5 186 111 c 0,23,24
 88.5 250.5 88.5 250.5 69 449 c 0,25,26
 89 644.5 89 644.5 189 789 c 0,27,28
 315.5 897 315.5 897 491 938 c 1,29,-1
 491 1207 l 2,30,31
 490.5 1271 490.5 1271 488 1299 c 0,32,33
 474.5 1350 474.5 1350 442 1372 c 0,34,35
 407 1381 407 1381 334 1384 c 1,36,-1
 334 1422 l 1,37,-1
 795 1422 l 1,38,-1
 795 1384 l 1,39,40
 703 1375 703 1375 668 1331 c 0,41,42
 659 1291.5 659 1291.5 657 1207 c 2,43,-1
 657 938 l 1,44,45
 831 900 831 900 951 799 c 0,46,47
 1045 660.5 1045 660.5 1064 466 c 0,0,1
878 382 m 0,48,49
 869.5 538.5 869.5 538.5 827 668 c 0,50,51
 760 793.5 760 793.5 657 856 c 1,52,-1
 657 43 l 1,53,54
 841 128.5 841 128.5 878 382 c 0,48,49
491 53 m 1,55,-1
 491 874 l 1,56,57
 384 844 384 844 313 762 c 0,58,59
 264.5 664.5 264.5 664.5 255 533 c 0,60,61
 264 371 264 371 309 239 c 0,62,63
 380.5 112 380.5 112 491 53 c 1,55,-1
EndSplineSet
EndChar

StartChar: uniE046
Encoding: 57414 57414 64
Width: 1024
VWidth: 0
Flags: W
LayerCount: 2
Back
Fore
SplineSet
-2 1308 m 1,0,-1
 280 1422 l 1,1,-1
 318 1422 l 1,2,-1
 318 725 l 1,3,4
 389 846 389 846 460.5 894.5 c 128,-1,5
 532 943 532 943 611 943 c 0,6,7
 749 943 749 943 841 835 c 0,8,9
 954 703 954 703 954 491 c 0,10,11
 954 254 954 254 818 99 c 0,12,13
 706 -28 706 -28 536 -28 c 0,14,15
 462 -28 462 -28 408 -7 c 0,16,17
 368 8 368 8 318 53 c 1,18,-1
 318 -226 l 2,19,20
 318 -319 318 -319 329.5 -344 c 128,-1,21
 341 -369 341 -369 369.5 -384 c 128,-1,22
 398 -399 398 -399 473 -399 c 1,23,-1
 473 -437 l 1,24,-1
 -7 -437 l 1,25,-1
 -7 -399 l 1,26,-1
 18 -400 l 2,27,28
 73 -401 73 -401 112 -379 c 0,29,30
 131 -368 131 -368 141.5 -343.5 c 128,-1,31
 152 -319 152 -319 152 -220 c 2,32,-1
 152 1129 l 2,33,34
 152 1218 152 1218 144 1242.5 c 128,-1,35
 136 1267 136 1267 118.5 1279 c 128,-1,36
 101 1291 101 1291 71 1291 c 0,37,38
 47 1291 47 1291 10 1276 c 1,39,-1
 -2 1308 l 1,0,-1
318 666 m 1,40,-1
 318 324 l 2,41,42
 318 213 318 213 327 178 c 0,43,44
 341 120 341 120 395.5 76 c 128,-1,45
 450 32 450 32 533 32 c 0,46,47
 633 32 633 32 695 110 c 0,48,49
 776 212 776 212 776 397 c 0,50,51
 776 607 776 607 684 720 c 0,52,53
 620 798 620 798 532 798 c 0,54,55
 484 798 484 798 437 774 c 0,56,57
 401 756 401 756 318 666 c 1,40,-1
EndSplineSet
EndChar

StartChar: uniE047
Encoding: 57415 57415 65
Width: 909
VWidth: 0
Flags: W
LayerCount: 2
Back
Fore
SplineSet
458 1390 m 1,0,-1
 682 1390 l 1,1,-1
 387 1045 l 1,2,-1
 353 1045 l 1,3,-1
 458 1390 l 1,0,-1
443 943 m 0,4,5
 564.999511719 943 564.999511719 943 643 902 c 0,6,7
 701.999511719 870.999511719 701.999511719 870.999511719 730 805 c 0,8,9
 748 761.999511719 748 761.999511719 748 629 c 0,10,11
 748 590.268265106 748 590.268265106 747.497747113 508.948381401 c 128,-1,12
 746.995494226 427.628497696 746.995494226 427.628497696 747.121317218 387.345762276 c 128,-1,13
 747.247140211 347.063026855 747.247140211 347.063026855 749.216100384 284.643846489 c 128,-1,14
 751.185060558 222.224666124 751.185060558 222.224666124 755.5 166.5 c 1,15,16
 762.998535156 130.999511719 762.998535156 130.999511719 779.5 117 c 128,-1,17
 795.998535156 103.000488281 795.998535156 103.000488281 818 103 c 0,18,19
 848.999023438 103 848.999023438 103 888 120 c 1,20,-1
 902 85 l 1,21,-1
 628 -28 l 1,22,-1
 583 -28 l 1,23,-1
 583 132 l 1,24,25
 442 22.9995117188 442 22.9995117188 406 6 c 0,26,27
 352 -19.0004882812 352 -19.0004882812 291 -19 c 0,28,29
 196.000488281 -19 196.000488281 -19 134.5 46 c 128,-1,30
 73 110.999511719 73 110.999511719 73 217 c 0,31,32
 73 284.000488281 73 284.000488281 103 333 c 0,33,34
 143.999511719 400.999511719 143.999511719 400.999511719 245.5 461 c 128,-1,35
 347.000488281 521 347.000488281 521 583 607 c 1,36,-1
 583 643 l 2,37,38
 583 779.999511719 583 779.999511719 539.5 831 c 128,-1,39
 496 882 496 882 413 882 c 0,40,41
 350 882 350 882 313 848 c 0,42,43
 275.000488281 813.999511719 275.000488281 813.999511719 275 770 c 2,44,-1
 277 712 l 2,45,46
 277 665.999511719 277 665.999511719 253.5 641 c 128,-1,47
 229.999511719 615.999511719 229.999511719 615.999511719 192 616 c 0,48,49
 154.999511719 616 154.999511719 616 131.5 642 c 128,-1,50
 107.999511719 667.999511719 107.999511719 667.999511719 108 713 c 0,51,52
 108 798.999511719 108 798.999511719 196 871 c 128,-1,53
 284.000488281 943 284.000488281 943 443 943 c 0,4,5
583 546 m 1,54,55
 431.999511719 486 431.999511719 486 388 461 c 0,56,57
 308.999511719 417.000488281 308.999511719 417.000488281 275 369 c 128,-1,58
 240.999511719 321 240.999511719 321 241 264 c 0,59,60
 241 192 241 192 284 144.5 c 128,-1,61
 327.000488281 96.9995117188 327.000488281 96.9995117188 383 97 c 0,62,63
 459.000488281 97 459.000488281 97 583 197 c 1,64,-1
 583 546 l 1,54,55
EndSplineSet
EndChar

StartChar: uniE048
Encoding: 57416 57416 66
Width: 1366
VWidth: 0
Flags: W
LayerCount: 2
Back
Fore
SplineSet
683 1390 m 1,0,-1
 907 1390 l 1,1,-1
 612 1045 l 1,2,-1
 578 1045 l 1,3,-1
 683 1390 l 1,0,-1
440 944 m 0,4,5
 564.000488281 944 564.000488281 944 627 908.5 c 0,6,7
 651.074115638 894.934290476 651.074115638 894.934290476 665.248042191 885.505058883 c 128,-1,8
 679.421968744 876.07582729 679.421968744 876.07582729 692.898442184 860.931790075 c 128,-1,9
 706.374915623 845.787752861 706.374915623 845.787752861 708.15625 830.4375 c 1,10,11
 824.707761785 943 824.707761785 943 982.4375 943 c 0,12,13
 1112.01611328 943 1112.01611328 943 1195.53125 871.5 c 128,-1,14
 1279.03759766 799.999511719 1279.03759766 799.999511719 1279.03125 723 c 0,15,16
 1279.03125 684.983898094 1279.03125 684.983898094 1255.53125 661.5 c 128,-1,17
 1232.01611328 637.999511719 1232.01611328 637.999511719 1189.78125 638 c 0,18,19
 1133.15039062 638 1133.15039062 638 1104.34375 676 c 0,20,21
 1088.02685547 697 1088.02685547 697 1082.75 756 c 128,-1,22
 1077.47070312 814.999511719 1077.47070312 814.999511719 1043.875 846 c 0,23,24
 1010.28027344 876 1010.28027344 876 950.78125 876 c 0,25,26
 854.797363281 876 854.797363281 876 796.25 802 c 0,27,28
 718.501953125 704.000488281 718.501953125 704.000488281 718.5 543 c 0,29,30
 718.5 531.073778195 718.5 531.073778195 718.875 520 c 1,31,-1
 1035.25 520 l 1,32,-1
 1035.25 455 l 1,33,-1
 724.46875 455 l 1,34,35
 739.959472656 344.143554688 739.959472656 344.143554688 795.75 253.5 c 0,36,37
 873.017578125 127.999511719 873.017578125 127.999511719 1004.53125 128 c 0,38,39
 1098.59619141 128 1098.59619141 128 1173.46875 195 c 0,40,41
 1226.23554701 240.978959645 1226.23554701 240.978959645 1276.15625 362 c 1,42,-1
 1304 348 l 1,43,44
 1268.48486328 166.999511719 1268.48486328 166.999511719 1164.8125 69.5 c 128,-1,45
 1061.14990234 -28 1061.14990234 -28 935.40625 -28 c 0,46,47
 785.669921875 -28 785.669921875 -28 674.34375 103 c 0,48,49
 659.410608809 120.570217212 659.410608809 120.570217212 646.5625 139.65625 c 1,50,-1
 638 132 l 2,51,52
 635 129 635 129 627.5 123.5 c 128,-1,53
 620 118 620 118 607.5 108 c 128,-1,54
 595 98 595 98 583 89 c 0,55,56
 524.999511719 42.0004882812 524.999511719 42.0004882812 505 31 c 0,57,58
 458.000488281 4 458.000488281 4 405 -12 c 128,-1,59
 352.000488281 -28.0004882812 352.000488281 -28.0004882812 296 -28 c 0,60,61
 201.999511719 -28 201.999511719 -28 137.5 38.5 c 128,-1,62
 73 104.999511719 73 104.999511719 73 201 c 0,63,64
 73 288 73 288 116.5 349 c 128,-1,65
 160 410.000488281 160 410.000488281 287 475 c 0,66,67
 443 554.999511719 443 554.999511719 563 597 c 1,68,-1
 563 689 l 2,69,70
 563 797 563 797 523 841.5 c 128,-1,71
 482.999511719 886.000488281 482.999511719 886.000488281 416 886 c 0,72,73
 350 886 350 886 313 854 c 0,74,75
 275.000488281 821 275.000488281 821 275 781 c 0,76,77
 275 697 275 697 266.5 672 c 128,-1,78
 257.999511719 646.999511719 257.999511719 646.999511719 240 634 c 128,-1,79
 222 620.999511719 222 620.999511719 195 621 c 0,80,81
 156 621 156 621 135 644 c 0,82,83
 105 675.999511719 105 675.999511719 105 716 c 0,84,85
 105 767.998816069 105 767.998816069 141.5 820 c 128,-1,86
 177.999511719 872.000488281 177.999511719 872.000488281 256.5 908 c 128,-1,87
 334.999511719 944 334.999511719 944 440 944 c 0,4,5
563 532 m 1,88,89
 428 490 428 490 315 404 c 0,90,91
 241.000488281 347 241.000488281 347 241 258 c 0,92,93
 241 178.999511719 241 178.999511719 288.5 129 c 128,-1,94
 336.000488281 79.0004882812 336.000488281 79.0004882812 402 79 c 0,95,96
 441 79 441 79 484.5 99.5 c 128,-1,97
 528 120.000488281 528 120.000488281 610 184 c 1,98,99
 589 229 589 229 576 301.5 c 128,-1,100
 563 373.996788732 563 373.996788732 563 450 c 2,101,-1
 563 532 l 1,88,89
EndSplineSet
EndChar

StartChar: uniE049
Encoding: 57417 57417 67
Width: 860
VWidth: 0
Flags: W
LayerCount: 2
Back
Fore
SplineSet
705 1390 m 1,0,-1
 410 1045 l 1,1,-1
 376 1045 l 1,2,-1
 481 1390 l 1,3,-1
 705 1390 l 1,0,-1
612 778 m 0,4,5
 561.440169216 887.210301 561.440169216 887.210301 459.6796875 885.484375 c 0,6,7
 387.277773151 884.257150582 387.277773151 884.257150582 337.5 838 c 0,8,9
 288 791.999511719 288 791.999511719 288 721 c 0,10,11
 288 625.999023438 288 625.999023438 357 570 c 0,12,13
 420.999023438 517.999511719 420.999023438 517.999511719 518 518 c 1,14,-1
 518 460 l 1,15,16
 260.999023438 447.998535156 260.999023438 447.998535156 261 249 c 0,17,18
 261 160.999511719 261 160.999511719 313.5 102.5 c 128,-1,19
 366 44 366 44 453 44 c 0,20,21
 600 44 600 44 764 171 c 1,22,-1
 790 145 l 1,23,24
 609.998535156 -27.9995117188 609.998535156 -27.9995117188 415 -28 c 0,25,26
 278.999511719 -28 278.999511719 -28 183 35 c 0,27,28
 70.9995117188 108.000488281 70.9995117188 108.000488281 71 238 c 0,29,30
 71 437.999511719 71 437.999511719 345 495 c 1,31,32
 109.999511719 564.999023438 109.999511719 564.999023438 110 720 c 0,33,34
 110 830.998535156 110 830.998535156 214 892 c 0,35,36
 295.165359142 940.13183632 295.165359142 940.13183632 419.984375 943.5 c 0,37,38
 432.040543731 943.825176827 432.040543731 943.825176827 454.070451434 943.412588414 c 128,-1,39
 476.100359138 943 476.100359138 943 483 943 c 0,40,41
 586.000488281 943 586.000488281 943 671 913 c 0,42,43
 789.999511719 869.999511719 789.999511719 869.999511719 790 785 c 0,44,45
 790 750.999511719 790 750.999511719 764 725.5 c 128,-1,46
 738.000488281 700 738.000488281 700 704 700 c 0,47,48
 648.000488281 700 648.000488281 700 612 778 c 0,4,5
EndSplineSet
EndChar

StartChar: uniE04A
Encoding: 57418 57418 68
Width: 879
VWidth: 0
Flags: W
LayerCount: 2
Back
Fore
SplineSet
488 1390 m 1,0,-1
 712 1390 l 1,1,-1
 417 1045 l 1,2,-1
 383 1045 l 1,3,-1
 488 1390 l 1,0,-1
507 943 m 0,4,5
 634 931 634 931 729 872 c 0,6,7
 801.5 799 801.5 799 816 723 c 0,8,9
 812 687.5 812 687.5 792 662 c 0,10,11
 763.5 642 763.5 642 723 638 c 0,12,13
 669 644.5 669 644.5 634 676 c 0,14,15
 619 703.5 619 703.5 612 756 c 0,16,17
 601 810 601 810 571 846 c 0,18,19
 531.5 871 531.5 871 474 876 c 0,20,21
 380.5 863.5 380.5 863.5 313 802 c 0,22,23
 245.5 693.5 245.5 693.5 232 543 c 0,24,25
 232 531.5 232 531.5 232 520 c 1,26,-1
 562 520 l 1,27,-1
 562 455 l 1,28,-1
 238 455 l 1,29,30
 261.5 347.5 261.5 347.5 312 254 c 0,31,32
 402.5 149 402.5 149 530 128 c 0,33,34
 624.5 139 624.5 139 706 195 c 0,35,36
 760.5 253.5 760.5 253.5 813 362 c 1,37,-1
 842 348 l 1,38,39
 793 180.5 793 180.5 697 70 c 0,40,41
 585 -12 585 -12 458 -28 c 0,42,43
 308.5 -6 308.5 -6 186 103 c 0,44,45
 89.5 249 89.5 249 70 457 c 0,46,47
 91.5 659.5 91.5 659.5 198 808 c 0,48,49
 335.5 920.5 335.5 920.5 507 943 c 0,4,5
EndSplineSet
EndChar

StartChar: uniE04B
Encoding: 57419 57419 69
Width: 569
VWidth: 0
Flags: W
LayerCount: 2
Back
Fore
SplineSet
515 0 m 1,0,-1
 54 0 l 1,1,-1
 54 37 l 1,2,3
 112.5 40 112.5 40 134 42 c 0,4,5
 173 55.5 173 55.5 195 86 c 0,6,7
 208.5 128.5 208.5 128.5 211 215 c 2,8,-1
 211 701 l 2,9,10
 210.5 765 210.5 765 208 793 c 0,11,12
 194.5 844 194.5 844 162 866 c 0,13,14
 127 875 127 875 54 878 c 1,15,-1
 54 916 l 1,16,-1
 515 916 l 1,17,-1
 515 878 l 1,18,19
 423 869 423 869 388 825 c 0,20,21
 379 785.5 379 785.5 377 701 c 2,22,-1
 377 215 l 2,23,24
 377.5 148 377.5 148 379 124 c 0,25,26
 392 77 392 77 425 52 c 0,27,28
 461 39.5 461 39.5 515 37 c 1,29,-1
 515 0 l 1,0,-1
530 1390 m 1,30,-1
 235 1045 l 1,31,-1
 201 1045 l 1,32,-1
 306 1390 l 1,33,-1
 530 1390 l 1,30,-1
EndSplineSet
EndChar

StartChar: O
Encoding: 79 79 70
Width: 1479
VWidth: 0
Flags: W
LayerCount: 2
Back
Fore
SplineSet
749 1387 m 0,0,1
 1001.25 1353.58333334 1001.25 1353.58333334 1206.5 1186.5 c 0,2,3
 1367.75 969.416666665 1367.75 969.416666665 1400 686 c 0,4,5
 1367.5 394.5 1367.5 394.5 1205 173 c 0,6,7
 996.333333333 3 996.333333333 3 733 -31 c 0,8,9
 467.916666667 2.16666666665 467.916666667 2.16666666665 262.5 168 c 0,10,11
 103.75 386.5 103.75 386.5 72 683 c 0,12,13
 108.666666667 986.166666667 108.666666667 986.166666667 292 1210 c 0,14,15
 495.5 1357.5 495.5 1357.5 749 1387 c 0,0,1
730 1314 m 0,16,17
 560 1291.5 560 1291.5 438 1179 c 0,18,19
 323.833333334 985 323.833333334 985 301 687 c 0,20,21
 324.666666666 380.5 324.666666666 380.5 443 176 c 0,22,23
 563.666666667 62.6666666667 563.666666667 62.6666666667 731 40 c 0,24,25
 910.916666667 64.8333333333 910.916666667 64.8333333333 1046.5 189 c 0,26,27
 1150.25 366.666666666 1150.25 366.666666666 1171 659 c 0,28,29
 1148.16666666 977.5 1148.16666666 977.5 1034 1178 c 0,30,31
 910 1291.33333334 910 1291.33333334 730 1314 c 0,16,17
EndSplineSet
Validated: 1
EndChar

StartChar: zero
Encoding: 48 48 71
Width: 1024
VWidth: 0
Flags: W
LayerCount: 2
Back
Fore
SplineSet
74 670 m 0,0,1
 85.6666666667 891.25 85.6666666667 891.25 144 1069.5 c 0,2,3
 221.666666667 1222.75 221.666666667 1222.75 330 1319 c 0,4,5
 421 1373.16666666 421 1373.16666666 516 1384 c 0,6,7
 666.666666667 1357.5 666.666666667 1357.5 796 1225 c 0,8,9
 925.166666667 1004.66666667 925.166666667 1004.66666667 951 691 c 0,10,11
 939.666666667 466.833333333 939.666666667 466.833333333 883 290 c 0,12,13
 808.75 140.083333334 808.75 140.083333334 709.5 50.5 c 0,14,15
 605.25 -11.5833333333 605.25 -11.5833333333 506 -24 c 0,16,17
 322.833333334 14.1666666666 322.833333334 14.1666666666 183 205 c 0,18,19
 92.1666666665 411.166666667 92.1666666665 411.166666667 74 670 c 0,0,1
270 645 m 0,20,21
 281.5 382.166666666 281.5 382.166666666 339 188 c 0,22,23
 405.333333334 63.8333333333 405.333333334 63.8333333333 509 39 c 0,24,25
 563.666666667 47.0833333333 563.666666667 47.0833333333 621 87.5 c 0,26,27
 674.333333333 146.916666666 674.333333333 146.916666666 709 250 c 0,28,29
 747.333333333 445.5 747.333333333 445.5 755 735 c 0,30,31
 747 954.166666669 747 954.166666669 707 1122 c 0,32,33
 667.5 1225.83333334 667.5 1225.83333334 614 1285 c 0,34,35
 570.166666667 1312.5 570.166666667 1312.5 515 1318 c 0,36,37
 449.5 1307.83333334 449.5 1307.83333334 394 1257 c 0,38,39
 329.666666666 1158.16666667 329.666666666 1158.16666667 296 996 c 0,40,41
 274.333333334 818.833333333 274.333333334 818.833333333 270 645 c 0,20,21
EndSplineSet
Validated: 1
EndChar

StartChar: o
Encoding: 111 111 72
Width: 1024
VWidth: 0
Flags: W
LayerCount: 2
Back
Fore
SplineSet
512 943 m 0,0,1
 706.333333333 916.666666667 706.333333333 916.666666667 846 785 c 0,2,3
 935.166666667 643.333333333 935.166666667 643.333333333 953 475 c 0,4,5
 943.166666667 351.5 943.166666667 351.5 894 226 c 0,6,7
 827.583333333 110.333333333 827.583333333 110.333333333 731.5 36 c 0,8,9
 624.083333333 -17.3333333333 624.083333333 -17.3333333333 501 -28 c 0,10,11
 308.166666667 -0.5 308.166666667 -0.5 172 137 c 0,12,13
 86.1666666665 281.666666667 86.1666666665 281.666666667 69 449 c 0,14,15
 79.4166666667 574.75 79.4166666667 574.75 131.5 699.5 c 0,16,17
 200.583333333 813.166666667 200.583333333 813.166666667 296 883.5 c 0,18,19
 400 933.083333333 400 933.083333333 512 943 c 0,0,1
481 878 m 0,20,21
 427.916666667 872.75 427.916666667 872.75 374.5 846.5 c 0,22,23
 324.416666666 807.083333333 324.416666666 807.083333333 288 736 c 0,24,25
 260.5 649.5 260.5 649.5 255 533 c 0,26,27
 268.25 342.166666667 268.25 342.166666667 334.5 188 c 0,28,29
 422.416666666 67.1666666667 422.416666666 67.1666666667 544 43 c 0,30,31
 635.333333333 56.3333333333 635.333333333 56.3333333333 704 123 c 0,32,33
 756.5 222.166666667 756.5 222.166666667 767 398 c 0,34,35
 749.5 624.666666667 749.5 624.666666667 662 782 c 0,36,37
 584.5 862 584.5 862 481 878 c 0,20,21
EndSplineSet
Validated: 1
EndChar

StartChar: exclam
Encoding: 33 33 74
Width: 682
VWidth: 0
Flags: W
LayerCount: 2
Back
Fore
SplineSet
360 359 m 1,0,-1
 322 359 l 1,1,-1
 234 1169 l 2,2,3
 229 1217.5 229 1217.5 228 1248 c 0,4,5
 233.583333333 1306.83333334 233.583333333 1306.83333334 261.5 1349 c 0,6,7
 297.25 1380.66666666 297.25 1380.66666666 342 1387 c 0,8,9
 386.583333333 1380.66666666 386.583333333 1380.66666666 421.5 1349 c 0,10,11
 448.583333334 1304.83333334 448.583333334 1304.83333334 454 1236 c 0,12,13
 453.333333334 1208.83333334 453.333333334 1208.83333334 450 1169 c 2,14,-1
 360 359 l 1,0,-1
340 193 m 0,15,16
 383.75 187.583333333 383.75 187.583333333 418.5 160.5 c 0,17,18
 445.583333334 125.916666667 445.583333334 125.916666667 451 83 c 0,19,20
 445.583333334 39.25 445.583333334 39.25 418.5 4.5 c 0,21,22
 383.75 -22.5833333333 383.75 -22.5833333333 340 -28 c 0,23,24
 296.25 -22.5833333333 296.25 -22.5833333333 261.5 4.5 c 0,25,26
 234.416666667 39.25 234.416666667 39.25 229 83 c 0,27,28
 234.416666667 125.916666667 234.416666667 125.916666667 261.5 160.5 c 0,29,30
 296.25 187.583333333 296.25 187.583333333 340 193 c 0,15,16
EndSplineSet
Validated: 1
EndChar

StartChar: quotedbl
Encoding: 34 34 75
Width: 836
VWidth: 0
Flags: W
LayerCount: 2
Back
Fore
SplineSet
576 803 m 1,0,-1
 522 1095 l 1,1,-1
 500 1216 l 2,2,3
 498.333333334 1241 498.333333334 1241 498 1266 c 0,4,5
 502.666666666 1323.33333334 502.666666666 1323.33333334 526 1358 c 0,6,7
 557 1382.16666666 557 1382.16666666 600 1387 c 0,8,9
 640.583333333 1382.16666666 640.583333333 1382.16666666 671.5 1358 c 0,10,11
 695.25 1325.66666667 695.25 1325.66666667 700 1280 c 0,12,13
 696.833333333 1192.66666666 696.833333333 1192.66666666 681 1096 c 2,14,-1
 624 803 l 1,15,-1
 576 803 l 1,0,-1
210 803 m 1,16,-1
 155 1099 l 2,17,18
 136.666666667 1208 136.666666667 1208 133 1265 c 0,19,20
 137.416666667 1323.16666667 137.416666667 1323.16666667 159.5 1358 c 0,21,22
 189.083333333 1382.16666666 189.083333333 1382.16666666 231 1387 c 0,23,24
 272.5 1382.08333334 272.5 1382.08333334 304 1357.5 c 0,25,26
 328.166666666 1324.75 328.166666666 1324.75 333 1279 c 0,27,28
 328.666666666 1222.83333334 328.666666666 1222.83333334 307 1098 c 2,29,-1
 253 803 l 1,30,-1
 210 803 l 1,16,-1
EndSplineSet
Validated: 1
EndChar

StartChar: quotesingle
Encoding: 39 39 76
Width: 369
VWidth: 0
Flags: W
LayerCount: 2
Back
Fore
SplineSet
158 803 m 1,0,-1
 104 1099 l 2,1,2
 84.8333333333 1208.66666666 84.8333333333 1208.66666666 81 1265 c 0,3,4
 85.3333333333 1323.16666667 85.3333333333 1323.16666667 107 1358 c 0,5,6
 136.166666666 1382.16666666 136.166666666 1382.16666666 178 1387 c 0,7,8
 220.416666667 1382.08333334 220.416666667 1382.08333334 252.5 1357.5 c 0,9,10
 277.083333334 1324.91666666 277.083333334 1324.91666666 282 1280 c 0,11,12
 277.666666666 1225 277.666666666 1225 256 1098 c 2,13,-1
 202 803 l 1,14,-1
 158 803 l 1,0,-1
EndSplineSet
Validated: 1
EndChar

StartChar: numbersign
Encoding: 35 35 77
Width: 1024
VWidth: 0
Flags: W
LayerCount: 2
Back
Fore
SplineSet
115 -28 m 1,0,-1
 208 427 l 1,1,-1
 37 427 l 1,2,-1
 37 509 l 1,3,-1
 224 509 l 1,4,-1
 293 852 l 1,5,-1
 37 852 l 1,6,-1
 37 932 l 1,7,-1
 312 932 l 1,8,-1
 403 1387 l 1,9,-1
 486 1387 l 1,10,-1
 395 932 l 1,11,-1
 732 932 l 1,12,-1
 829 1387 l 1,13,-1
 912 1387 l 1,14,-1
 817 932 l 1,15,-1
 987 932 l 1,16,-1
 987 852 l 1,17,-1
 802 852 l 1,18,-1
 732 509 l 1,19,-1
 987 509 l 1,20,-1
 987 427 l 1,21,-1
 715 427 l 1,22,-1
 622 -28 l 1,23,-1
 541 -28 l 1,24,-1
 632 427 l 1,25,-1
 293 427 l 1,26,-1
 198 -28 l 1,27,-1
 115 -28 l 1,0,-1
308 509 m 1,28,-1
 647 509 l 1,29,-1
 719 852 l 1,30,-1
 378 852 l 1,31,-1
 308 509 l 1,28,-1
EndSplineSet
Validated: 1
EndChar

StartChar: dollar
Encoding: 36 36 78
Width: 1024
VWidth: 0
Flags: W
LayerCount: 2
Back
Fore
SplineSet
108 334 m 1,0,-1
 152 334 l 1,1,2
 173.666666667 207.666666667 173.666666667 207.666666667 238 124 c 0,3,4
 325.333333334 60.8333333333 325.333333334 60.8333333333 462 37 c 1,5,-1
 462 621 l 1,6,7
 262 754.666666667 262 754.666666667 162 867 c 0,8,9
 117.833333334 948.5 117.833333334 948.5 109 1052 c 0,10,11
 124.25 1169.83333334 124.25 1169.83333334 200.5 1267 c 0,12,13
 305.083333334 1346.83333333 305.083333334 1346.83333333 462 1378 c 1,14,-1
 462 1470 l 1,15,-1
 526 1470 l 1,16,-1
 526 1378 l 1,17,18
 603.666666667 1371.5 603.666666667 1371.5 664 1359 c 0,19,20
 715.333333333 1342.83333333 715.333333333 1342.83333333 856 1290 c 1,21,-1
 856 991 l 1,22,-1
 817 991 l 1,23,24
 794.583333333 1135.75 794.583333333 1135.75 734.5 1223.5 c 0,25,26
 653.416666667 1287.08333334 653.416666667 1287.08333334 526 1311 c 1,27,-1
 526 803 l 1,28,29
 747.916666667 642.416666667 747.916666667 642.416666667 849.5 543.5 c 0,30,31
 909.083333333 453.25 909.083333333 453.25 921 336 c 0,32,33
 903.583333333 203.5 903.583333333 203.5 816.5 93 c 0,34,35
 698.416666667 2.83333333335 698.416666667 2.83333333335 526 -28 c 1,36,-1
 526 -156 l 1,37,-1
 462 -156 l 1,38,-1
 462 -28 l 1,39,40
 370.166666666 -21.75 370.166666666 -21.75 287 -6.5 c 0,41,42
 203.166666667 14.75 203.166666667 14.75 108 51 c 1,43,-1
 108 334 l 1,0,-1
462 845 m 1,44,-1
 462 1310 l 1,45,46
 370.583333333 1291.41666666 370.583333333 1291.41666666 313.5 1246.5 c 0,47,48
 273.083333334 1190.58333334 273.083333334 1190.58333334 265 1117 c 0,49,50
 272.333333334 1045.58333333 272.333333334 1045.58333333 309 980.5 c 0,51,52
 363.833333333 915.583333333 363.833333333 915.583333333 462 845 c 1,44,-1
526 37 m 1,53,54
 595.166666667 51.8333333333 595.166666667 51.8333333333 641 74 c 0,55,56
 693.083333333 112.583333333 693.083333333 112.583333333 729.5 165.5 c 0,57,58
 756.583333333 223.25 756.583333333 223.25 762 286 c 0,59,60
 755.416666667 350.833333334 755.416666667 350.833333334 722.5 411 c 0,61,62
 663.416666667 478.166666666 663.416666667 478.166666666 526 578 c 1,63,-1
 526 37 l 1,53,54
EndSplineSet
Validated: 1
EndChar

StartChar: percent
Encoding: 37 37 79
Width: 1706
VWidth: 0
Flags: W
LayerCount: 2
Back
Fore
SplineSet
1392 1387 m 1,0,-1
 404 -56 l 1,1,-1
 315 -56 l 1,2,-1
 1303 1387 l 1,3,-1
 1392 1387 l 1,0,-1
364 1387 m 0,4,5
 488.916666667 1368.33333334 488.916666667 1368.33333334 573.5 1275 c 0,6,7
 635.583333333 1157.5 635.583333333 1157.5 648 1018 c 0,8,9
 634 857.166666667 634 857.166666667 564 749 c 0,10,11
 474.333333334 669.833333333 474.333333334 669.833333333 362 654 c 0,12,13
 285.166666666 661.25 285.166666666 661.25 217 697.5 c 0,14,15
 155.416666667 748.083333333 155.416666667 748.083333333 111.5 827 c 0,16,17
 78.5833333333 916.166666667 78.5833333333 916.166666667 72 1018 c 0,18,19
 78.6666666667 1120.25 78.6666666667 1120.25 112 1211.5 c 0,20,21
 156.916666667 1292.5 156.916666667 1292.5 221.5 1343.5 c 0,22,23
 291.583333333 1379.75 291.583333333 1379.75 364 1387 c 0,4,5
361 1331 m 0,24,25
 311.916666666 1321 311.916666666 1321 270.5 1271 c 0,26,27
 237.583333333 1189 237.583333333 1189 231 1019 c 0,28,29
 234.666666667 891 234.666666667 891 253 807 c 0,30,31
 273.166666666 756.166666667 273.166666666 756.166666667 306 722 c 0,32,33
 328.666666666 707 328.666666666 707 358 704 c 0,34,35
 403.666666666 712.666666667 403.666666666 712.666666667 440 756 c 0,36,37
 481.666666666 850.166666667 481.666666666 850.166666667 490 1013 c 0,38,39
 481.833333334 1184.16666667 481.833333334 1184.16666667 441 1280 c 0,40,41
 406.333333334 1322.5 406.333333334 1322.5 361 1331 c 0,24,25
1346 673 m 0,42,43
 1416.91666666 665.5 1416.91666666 665.5 1487.5 628 c 0,44,45
 1552.66666666 576.166666667 1552.66666666 576.166666667 1596.5 497 c 0,46,47
 1628.58333334 408.166666667 1628.58333334 408.166666667 1635 308 c 0,48,49
 1620.83333334 144.916666667 1620.83333334 144.916666667 1550 37.5 c 0,50,51
 1459.83333333 -40.4166666667 1459.83333333 -40.4166666667 1349 -56 c 0,52,53
 1276.75 -48.5 1276.75 -48.5 1207.5 -11 c 0,54,55
 1143.83333333 40.4166666667 1143.83333333 40.4166666667 1099.5 117.5 c 0,56,57
 1066.58333334 204.916666667 1066.58333334 204.916666667 1060 308 c 0,58,59
 1066.58333334 410 1066.58333334 410 1099.5 500 c 0,60,61
 1143.83333333 579.666666667 1143.83333333 579.666666667 1207.5 630 c 0,62,63
 1276.25 665.833333333 1276.25 665.833333333 1346 673 c 0,42,43
1347 620 m 0,64,65
 1301.16666666 611 1301.16666666 611 1264 566 c 0,66,67
 1226.5 475.166666667 1226.5 475.166666667 1219 301 c 0,68,69
 1226.66666666 140 1226.66666666 140 1265 51 c 0,70,71
 1301.33333334 8.5 1301.33333334 8.5 1347 0 c 0,72,73
 1391.33333334 9.16666666665 1391.33333334 9.16666666665 1429 55 c 0,74,75
 1469 145.5 1469 145.5 1477 306 c 0,76,77
 1469 475.166666666 1469 475.166666666 1429 569 c 0,78,79
 1393.33333334 611.5 1393.33333334 611.5 1347 620 c 0,64,65
EndSplineSet
Validated: 1
EndChar

StartChar: ampersand
Encoding: 38 38 80
Width: 1593
VWidth: 0
Flags: W
LayerCount: 2
Back
Fore
SplineSet
1045 873 m 1,0,-1
 1465 873 l 1,1,-1
 1465 836 l 1,2,3
 1385.58333334 824.916666667 1385.58333334 824.916666667 1336.5 797.5 c 0,4,5
 1287.25 744.75 1287.25 744.75 1207 607 c 0,6,7
 1115.33333333 451.5 1115.33333333 451.5 1009 310 c 1,8,9
 1094.83333333 216.416666667 1094.83333333 216.416666667 1168 164.5 c 0,10,11
 1238.16666667 129.916666667 1238.16666667 129.916666667 1309 123 c 0,12,13
 1374.5 129.25 1374.5 129.25 1426 160.5 c 0,14,15
 1469.33333334 203.916666667 1469.33333334 203.916666667 1494 271 c 1,16,-1
 1531 244 l 1,17,18
 1486.5 115.333333333 1486.5 115.333333333 1412 36 c 0,19,20
 1325.5 -19.8333333333 1325.5 -19.8333333333 1221 -31 c 0,21,22
 1138.58333333 -23.5833333333 1138.58333333 -23.5833333333 1054.5 13.5 c 0,23,24
 967.416666667 68.25 967.416666667 68.25 870 164 c 1,25,26
 750.083333333 65.25 750.083333333 65.25 646.5 11.5 c 0,27,28
 544.75 -23.9166666667 544.75 -23.9166666667 434 -31 c 0,29,30
 280.333333333 -16.3333333333 280.333333333 -16.3333333333 172 57 c 0,31,32
 91.1666666665 150.666666667 91.1666666665 150.666666667 75 267 c 0,33,34
 89.5 387.916666667 89.5 387.916666667 162 508.5 c 0,35,36
 274.5 630.416666667 274.5 630.416666667 489 758 c 1,37,38
 447 855.75 447 855.75 425 928.5 c 0,39,40
 410.833333334 994.083333331 410.833333334 994.083333331 408 1056 c 0,41,42
 429 1213.5 429 1213.5 534 1317 c 0,43,44
 636.5 1375.33333334 636.5 1375.33333334 757 1387 c 0,45,46
 868.666666667 1375.25 868.666666667 1375.25 951 1316.5 c 0,47,48
 1013.5 1240.58333334 1013.5 1240.58333334 1026 1143 c 0,49,50
 1013.91666666 1041.33333333 1013.91666666 1041.33333333 953.5 957 c 0,51,52
 862.416666667 874.5 862.416666667 874.5 697 782 c 1,53,54
 825.833333333 562.333333333 825.833333333 562.333333333 962 368 c 1,55,56
 1108.66666666 567 1108.66666666 567 1138 722 c 0,57,58
 1133 766.333333333 1133 766.333333333 1108 804 c 0,59,60
 1082.83333333 827.333333333 1082.83333333 827.333333333 1045 836 c 1,61,-1
 1045 873 l 1,0,-1
663 847 m 1,62,63
 776.583333333 908.666666667 776.583333333 908.666666667 848.5 981 c 0,64,65
 899.75 1058.83333334 899.75 1058.83333334 910 1148 c 0,66,67
 902.583333333 1215.83333334 902.583333333 1215.83333334 865.5 1267 c 0,68,69
 817.416666667 1306.16666666 817.416666667 1306.16666666 755 1314 c 0,70,71
 675.083333333 1303.91666666 675.083333333 1303.91666666 623.5 1253.5 c 0,72,73
 586.416666667 1193.41666667 586.416666667 1193.41666667 579 1135 c 0,74,75
 581.833333333 1084.08333333 581.833333333 1084.08333333 596 1025.5 c 0,76,77
 618.5 955.416666667 618.5 955.416666667 663 847 c 1,62,63
818 222 m 1,78,79
 699.5 385.833333334 699.5 385.833333334 635 485 c 0,80,81
 582.333333333 574.666666667 582.333333333 574.666666667 523 691 c 1,82,83
 412.916666666 619.666666667 412.916666666 619.666666667 342.5 539 c 0,84,85
 292.083333334 453.666666667 292.083333334 453.666666667 282 359 c 0,86,87
 293.5 256.333333334 293.5 256.333333334 351 171 c 0,88,89
 428 103.5 428 103.5 537 90 c 0,90,91
 599.25 94.1666666667 599.25 94.1666666667 658.5 115 c 0,92,93
 724.083333333 149.5 724.083333333 149.5 818 222 c 1,78,79
EndSplineSet
Validated: 1
EndChar

StartChar: parenleft
Encoding: 40 40 81
Width: 682
VWidth: 0
Flags: W
LayerCount: 2
Back
Fore
SplineSet
636 -401 m 1,0,-1
 636 -438 l 1,1,2
 493.333333333 -357.666666666 493.333333333 -357.666666666 384 -260 c 0,3,4
 251 -106.333333333 251 -106.333333333 162 82 c 0,5,6
 97 281.5 97 281.5 84 491 c 0,7,8
 109.5 791.916666667 109.5 791.916666667 237 1056.5 c 0,9,10
 405.5 1287.75 405.5 1287.75 636 1422 c 1,11,-1
 636 1380 l 1,12,13
 520.333333334 1303.66666667 520.333333334 1303.66666667 434 1194 c 0,14,15
 361.666666666 1065.5 361.666666666 1065.5 316 895 c 0,16,17
 283.5 711.333333333 283.5 711.333333333 277 517 c 0,18,19
 282.5 309.5 282.5 309.5 310 128 c 0,20,21
 337.833333333 -0.91666666665 337.833333333 -0.91666666665 373 -93.5 c 0,22,23
 414.25 -175.916666667 414.25 -175.916666667 472.5 -254 c 0,24,25
 541.416666667 -329.833333333 541.416666667 -329.833333333 636 -401 c 1,0,-1
EndSplineSet
Validated: 1
EndChar

StartChar: parenright
Encoding: 41 41 82
Width: 682
VWidth: 0
Flags: W
LayerCount: 2
Back
Fore
SplineSet
46 1380 m 1,0,-1
 46 1422 l 1,1,2
 189.5 1342.5 189.5 1342.5 299 1245 c 0,3,4
 431.166666666 1090.58333334 431.166666666 1090.58333334 520 902.5 c 0,5,6
 585 703.25 585 703.25 598 493 c 0,7,8
 572.583333333 192.083333333 572.583333333 192.083333333 445.5 -72.5 c 0,9,10
 277.25 -303.75 277.25 -303.75 46 -438 c 1,11,-1
 46 -401 l 1,12,13
 161.75 -323.916666666 161.75 -323.916666666 248.5 -214.5 c 0,14,15
 321.166666666 -86.3333333335 321.166666666 -86.3333333335 366.5 84.5 c 0,16,17
 398.583333334 268.583333334 398.583333334 268.583333334 405 463 c 0,18,19
 399.5 669.833333333 399.5 669.833333333 372 852 c 0,20,21
 344.916666666 980.833333335 344.916666666 980.833333335 309.5 1073 c 0,22,23
 267.916666667 1155 267.916666667 1155 210 1233 c 0,24,25
 141.333333333 1308.83333333 141.333333333 1308.83333333 46 1380 c 1,0,-1
EndSplineSet
Validated: 1
EndChar

StartChar: asterisk
Encoding: 42 42 83
Width: 1024
VWidth: 0
Flags: W
LayerCount: 2
Back
Fore
SplineSet
494 1044 m 1,0,1
 486.666666666 1112.83333334 486.666666666 1112.83333334 466 1181 c 0,2,3
 437.666666666 1268.83333333 437.666666666 1268.83333333 432 1316 c 0,4,5
 436.083333334 1363.83333334 436.083333334 1363.83333334 456.5 1395 c 0,6,7
 482.916666666 1417.5 482.916666666 1417.5 517 1422 c 0,8,9
 546.666666667 1417.5 546.666666667 1417.5 571 1395 c 0,10,11
 590.166666667 1364.16666666 590.166666667 1364.16666666 594 1318 c 0,12,13
 589.583333333 1267.08333334 589.583333333 1267.08333334 567.5 1192.5 c 0,14,15
 544.416666667 1114.08333333 544.416666667 1114.08333333 535 1044 c 1,16,17
 588.166666667 1081.5 588.166666667 1081.5 634 1129 c 0,18,19
 696.166666667 1198 696.166666667 1198 735 1227 c 0,20,21
 768.166666667 1242.83333334 768.166666667 1242.83333334 802 1246 c 0,22,23
 833.25 1242.25 833.25 1242.25 857.5 1223.5 c 0,24,25
 876.25 1199.58333334 876.25 1199.58333334 880 1170 c 0,26,27
 874.5 1134.33333333 874.5 1134.33333333 847 1104 c 0,28,29
 797.5 1075 797.5 1075 682 1046 c 0,30,31
 609.333333333 1028.16666667 609.333333333 1028.16666667 554 1007 c 1,32,33
 609.833333333 982.166666667 609.833333333 982.166666667 681 966 c 0,34,35
 788.083333333 942.166666667 788.083333333 942.166666667 839.5 911 c 0,36,37
 870.75 877 870.75 877 877 839 c 0,38,39
 873.25 810.333333333 873.25 810.333333333 854.5 787 c 0,40,41
 830.75 768.666666667 830.75 768.666666667 802 765 c 0,42,43
 770.916666667 768.5 770.916666667 768.5 735.5 786 c 0,44,45
 694.75 815.666666667 694.75 815.666666667 637 880 c 0,46,47
 592.666666667 928 592.666666667 928 535 972 c 1,48,49
 540.166666667 913.333333333 540.166666667 913.333333333 558 848 c 0,50,51
 588 742.5 588 742.5 594 687 c 0,52,53
 590 649.083333333 590 649.083333333 570 619.5 c 0,54,55
 545.5 596.583333333 545.5 596.583333333 519 592 c 0,56,57
 483.166666666 596.833333333 483.166666666 596.833333333 452 621 c 0,58,59
 434.5 646.166666667 434.5 646.166666667 431 688 c 0,60,61
 434.833333334 739.25 434.833333334 739.25 454 803.5 c 0,62,63
 474.166666666 864 474.166666666 864 483 896.5 c 0,64,65
 488.833333334 926.083333333 488.833333334 926.083333333 494 972 c 1,66,67
 437.5 931.5 437.5 931.5 391 885 c 0,68,69
 324 813 324 813 281 781 c 0,70,71
 254.666666667 767.666666667 254.666666667 767.666666667 227 765 c 0,72,73
 194.666666667 768.833333333 194.666666667 768.833333333 169 788 c 0,74,75
 149 811.833333333 149 811.833333333 145 839 c 0,76,77
 148.416666667 864.416666667 148.416666667 864.416666667 165.5 891.5 c 0,78,79
 189.416666667 917.416666667 189.416666667 917.416666667 227 937 c 0,80,81
 265.5 950.333333333 265.5 950.333333333 350 969 c 0,82,83
 411.5 984 411.5 984 471 1007 c 1,84,85
 413.5 1032 413.5 1032 342 1049 c 0,86,87
 234.666666667 1074.16666666 234.666666667 1074.16666666 190 1096 c 0,88,89
 152.5 1131.33333334 152.5 1131.33333334 145 1176 c 0,90,91
 148.75 1202.25 148.75 1202.25 167.5 1225.5 c 0,92,93
 191.25 1244.25 191.25 1244.25 220 1248 c 0,94,95
 253.666666666 1244.5 253.666666666 1244.5 290 1227 c 0,96,97
 330 1198.91666666 330 1198.91666666 382 1142.5 c 0,98,99
 437.333333334 1083.75 437.333333334 1083.75 494 1044 c 1,0,1
EndSplineSet
Validated: 1
EndChar

StartChar: plus
Encoding: 43 43 84
Width: 1155
VWidth: 0
Flags: W
LayerCount: 2
Back
Fore
SplineSet
535 141 m 1,0,-1
 535 640 l 1,1,-1
 37 640 l 1,2,-1
 37 722 l 1,3,-1
 535 722 l 1,4,-1
 535 1219 l 1,5,-1
 615 1219 l 1,6,-1
 615 722 l 1,7,-1
 1115 722 l 1,8,-1
 1115 640 l 1,9,-1
 615 640 l 1,10,-1
 615 141 l 1,11,-1
 535 141 l 1,0,-1
EndSplineSet
Validated: 1
EndChar

StartChar: comma
Encoding: 44 44 85
Width: 512
VWidth: 0
Flags: W
LayerCount: 2
Back
Fore
SplineSet
110 -341 m 1,0,-1
 110 -297 l 1,1,2
 205.25 -256.75 205.25 -256.75 269.5 -191.5 c 0,3,4
 316.583333334 -118.583333333 316.583333334 -118.583333333 326 -40 c 0,5,6
 324.5 -22 324.5 -22 317 -8 c 0,7,8
 310 -0.5 310 -0.5 303 1 c 0,9,10
 287.666666667 -2.33333333334 287.666666667 -2.33333333334 255 -19 c 0,11,12
 236.666666667 -26.5 236.666666667 -26.5 217 -28 c 0,13,14
 171.333333333 -23.1666666667 171.333333333 -23.1666666667 139 1 c 0,15,16
 114.833333334 33.6666666667 114.833333334 33.6666666667 110 81 c 0,17,18
 116.25 127.666666667 116.25 127.666666667 147.5 165 c 0,19,20
 187.75 194.166666667 187.75 194.166666667 239 200 c 0,21,22
 302.583333334 190.416666667 302.583333334 190.416666667 356.5 142.5 c 0,23,24
 399.416666666 78.7500000001 399.416666666 78.7500000001 408 -10 c 0,25,26
 396.083333334 -110.583333333 396.083333334 -110.583333333 336.5 -201.5 c 0,27,28
 251.083333333 -283.75 251.083333333 -283.75 110 -341 c 1,0,-1
EndSplineSet
Validated: 1
EndChar

StartChar: hyphen
Encoding: 45 45 86
Width: 682
VWidth: 0
Flags: W
LayerCount: 2
Back
Fore
SplineSet
83 535 m 1,0,-1
 600 535 l 1,1,-1
 600 384 l 1,2,-1
 83 384 l 1,3,-1
 83 535 l 1,0,-1
EndSplineSet
Validated: 1
EndChar

StartChar: period
Encoding: 46 46 87
Width: 512
VWidth: 0
Flags: W
LayerCount: 2
Back
Fore
SplineSet
256 194 m 0,0,1
 300.5 188.583333333 300.5 188.583333333 335 161.5 c 0,2,3
 361.666666666 126.75 361.666666666 126.75 367 83 c 0,4,5
 361.583333334 39.25 361.583333334 39.25 334.5 4.5 c 0,6,7
 299.75 -22.5833333333 299.75 -22.5833333333 256 -28 c 0,8,9
 212.25 -22.5833333333 212.25 -22.5833333333 177.5 4.5 c 0,10,11
 150.416666667 39.25 150.416666667 39.25 145 83 c 0,12,13
 150.416666667 127.5 150.416666667 127.5 177.5 162 c 0,14,15
 212.25 188.666666667 212.25 188.666666667 256 194 c 0,0,1
EndSplineSet
Validated: 1
EndChar

StartChar: slash
Encoding: 47 47 88
Width: 569
VWidth: 0
Flags: W
LayerCount: 2
Back
Fore
SplineSet
574 1422 m 1,0,-1
 83 -28 l 1,1,-1
 3 -28 l 1,2,-1
 494 1422 l 1,3,-1
 574 1422 l 1,0,-1
EndSplineSet
Validated: 1
EndChar

StartChar: colon
Encoding: 58 58 89
Width: 569
VWidth: 0
Flags: W
LayerCount: 2
Back
Fore
SplineSet
289 944 m 0,0,1
 332.75 938.583333333 332.75 938.583333333 367.5 911.5 c 0,2,3
 394.583333334 876.75 394.583333334 876.75 400 833 c 0,4,5
 394.583333334 789.25 394.583333334 789.25 367.5 754.5 c 0,6,7
 332.75 727.416666667 332.75 727.416666667 289 722 c 0,8,9
 245.25 727.416666667 245.25 727.416666667 210.5 754.5 c 0,10,11
 183.416666667 789.25 183.416666667 789.25 178 833 c 0,12,13
 183.416666667 876.75 183.416666667 876.75 210.5 911.5 c 0,14,15
 245.25 938.583333333 245.25 938.583333333 289 944 c 0,0,1
287 195 m 0,16,17
 331.583333333 189.5 331.583333333 189.5 366.5 162 c 0,18,19
 393.583333334 126.833333334 393.583333334 126.833333334 399 83 c 0,20,21
 393.5 39.25 393.5 39.25 366 4.5 c 0,22,23
 330.833333334 -22.5833333333 330.833333334 -22.5833333333 287 -28 c 0,24,25
 243.25 -22.5833333333 243.25 -22.5833333333 208.5 4.5 c 0,26,27
 181.416666667 39.25 181.416666667 39.25 176 83 c 0,28,29
 181.416666667 126.833333334 181.416666667 126.833333334 208.5 162 c 0,30,31
 243.25 189.5 243.25 189.5 287 195 c 0,16,17
EndSplineSet
Validated: 1
EndChar

StartChar: semicolon
Encoding: 59 59 90
Width: 569
VWidth: 0
Flags: W
LayerCount: 2
Back
Fore
SplineSet
282 945 m 0,0,1
 325.75 939.666666667 325.75 939.666666667 360.5 913 c 0,2,3
 387.583333334 878.666666667 387.583333334 878.666666667 393 835 c 0,4,5
 387.583333334 791.25 387.583333334 791.25 360.5 756.5 c 0,6,7
 325.75 729.416666667 325.75 729.416666667 282 724 c 0,8,9
 238.25 729.416666667 238.25 729.416666667 203.5 756.5 c 0,10,11
 176.416666667 791.25 176.416666667 791.25 171 835 c 0,12,13
 176.416666667 878.666666667 176.416666667 878.666666667 203.5 913 c 0,14,15
 238.25 939.666666667 238.25 939.666666667 282 945 c 0,0,1
142 -341 m 1,16,-1
 142 -297 l 1,17,18
 237.25 -256.75 237.25 -256.75 301.5 -191.5 c 0,19,20
 348.583333334 -118.583333333 348.583333334 -118.583333333 358 -40 c 0,21,22
 356.5 -22 356.5 -22 349 -8 c 0,23,24
 342 -0.5 342 -0.5 335 1 c 0,25,26
 319.666666667 -2.33333333334 319.666666667 -2.33333333334 287 -19 c 0,27,28
 268.666666666 -26.5 268.666666666 -26.5 249 -28 c 0,29,30
 203.333333333 -23.1666666667 203.333333333 -23.1666666667 171 1 c 0,31,32
 146.833333333 33.6666666667 146.833333333 33.6666666667 142 81 c 0,33,34
 148.25 127.666666667 148.25 127.666666667 179.5 165 c 0,35,36
 219.75 194.166666667 219.75 194.166666667 271 200 c 0,37,38
 334.583333334 190.416666667 334.583333334 190.416666667 388.5 142.5 c 0,39,40
 431.416666666 78.7500000001 431.416666666 78.7500000001 440 -10 c 0,41,42
 428.083333334 -110.583333333 428.083333334 -110.583333333 368.5 -201.5 c 0,43,44
 283.083333333 -283.75 283.083333333 -283.75 142 -341 c 1,16,-1
EndSplineSet
Validated: 1
EndChar

StartChar: one
Encoding: 49 49 91
Width: 1024
VWidth: 0
Flags: W
LayerCount: 2
Back
Fore
SplineSet
240 1223 m 1,0,-1
 570 1384 l 1,1,-1
 603 1384 l 1,2,-1
 603 239 l 2,3,4
 604.583333333 139.333333334 604.583333333 139.333333334 612.5 97 c 0,5,6
 625.416666667 71.1666666667 625.416666667 71.1666666667 652 54 c 0,7,8
 692.333333333 41.1666666667 692.333333333 41.1666666667 774 37 c 1,9,-1
 774 0 l 1,10,-1
 264 0 l 1,11,-1
 264 37 l 1,12,13
 348.666666666 41.0833333333 348.666666666 41.0833333333 388 53.5 c 0,14,15
 413.166666667 69.6666666667 413.166666667 69.6666666667 427 92.5 c 0,16,17
 436.166666666 133.25 436.166666666 133.25 438 239 c 2,18,-1
 438 971 l 2,19,20
 436.333333334 1101.33333334 436.333333334 1101.33333334 428 1161 c 0,21,22
 419.083333333 1190.16666666 419.083333333 1190.16666666 402.5 1208 c 0,23,24
 382.75 1220.5 382.75 1220.5 358 1223 c 0,25,26
 316.166666666 1217.83333334 316.166666666 1217.83333334 255 1192 c 1,27,-1
 240 1223 l 1,0,-1
EndSplineSet
Validated: 1
EndChar

StartChar: two
Encoding: 50 50 92
Width: 1024
VWidth: 0
Flags: W
LayerCount: 2
Back
Fore
SplineSet
939 261 m 1,0,-1
 844 0 l 1,1,-1
 44 0 l 1,2,-1
 44 37 l 1,3,4
 362.166666666 339.333333333 362.166666666 339.333333333 541 563 c 0,5,6
 661 761.166666667 661 761.166666667 685 936 c 0,7,8
 671.833333333 1057.33333334 671.833333333 1057.33333334 606 1148 c 0,9,10
 521.833333333 1217.16666666 521.833333333 1217.16666666 417 1231 c 0,11,12
 320.416666666 1221.25 320.416666666 1221.25 237.5 1172.5 c 0,13,14
 164.916666667 1104.91666666 164.916666667 1104.91666666 120 1001 c 1,15,-1
 83 1001 l 1,16,17
 121.083333333 1171.66666666 121.083333333 1171.66666666 211.5 1285 c 0,18,19
 323.583333334 1367.5 323.583333334 1367.5 470 1384 c 0,20,21
 625.916666667 1366.33333334 625.916666667 1366.33333334 745.5 1278 c 0,22,23
 837.583333333 1165.66666666 837.583333333 1165.66666666 856 1028 c 0,24,25
 848 925 848 925 808 822 c 0,26,27
 718.666666667 656.833333333 718.666666667 656.833333333 568 479 c 0,28,29
 350.166666666 243 350.166666666 243 257 151 c 1,30,-1
 611 151 l 2,31,32
 708.25 152.333333333 708.25 152.333333333 762.5 159 c 0,33,34
 804.583333333 169.75 804.583333333 169.75 841 191.5 c 0,35,36
 874.5 219.416666667 874.5 219.416666667 902 261 c 1,37,-1
 939 261 l 1,0,-1
EndSplineSet
Validated: 1
EndChar

StartChar: three
Encoding: 51 51 93
Width: 1024
VWidth: 0
Flags: W
LayerCount: 2
Back
Fore
SplineSet
104 1098 m 1,0,1
 167.083333333 1224.58333333 167.083333333 1224.58333333 250.5 1309.5 c 0,2,3
 346.25 1371.58333334 346.25 1371.58333334 471 1384 c 0,4,5
 621.333333333 1366.33333334 621.333333333 1366.33333334 721 1278 c 0,6,7
 776 1197.16666666 776 1197.16666666 787 1109 c 0,8,9
 756 959.333333331 756 959.333333331 601 803 c 1,10,11
 715.833333333 747 715.833333333 747 790 663 c 0,12,13
 843.333333333 566.666666667 843.333333333 566.666666667 854 449 c 0,14,15
 835.333333333 280.833333334 835.333333333 280.833333334 742 144 c 0,16,17
 574.166666667 4 574.166666667 4 319 -24 c 0,18,19
 196.583333333 -18.3333333333 196.583333333 -18.3333333333 132.5 10 c 0,20,21
 91.25 44.8333333333 91.25 44.8333333333 83 83 c 0,22,23
 86.9166666667 110.833333333 86.9166666667 110.833333333 106.5 134 c 0,24,25
 131.583333334 152.333333333 131.583333334 152.333333333 163 156 c 0,26,27
 188.166666667 154.666666667 188.166666667 154.666666667 214 148 c 0,28,29
 238.166666667 138.583333333 238.166666667 138.583333333 291 111.5 c 0,30,31
 344.833333334 84.25 344.833333334 84.25 374 74 c 0,32,33
 411.833333334 64.8333333333 411.833333334 64.8333333333 453 63 c 0,34,35
 550.583333333 76.1666666667 550.583333333 76.1666666667 630.5 142 c 0,36,37
 693.416666667 225.833333333 693.416666667 225.833333333 706 329 c 0,38,39
 700.166666667 407.333333334 700.166666667 407.333333334 671 483 c 0,40,41
 644.166666667 534.5 644.166666667 534.5 614 568 c 0,42,43
 565.666666667 606.75 565.666666667 606.75 496 640.5 c 0,44,45
 420.5 667.583333333 420.5 667.583333333 343 673 c 2,46,-1
 311 673 l 1,47,-1
 311 703 l 1,48,49
 390.083333334 719.166666667 390.083333334 719.166666667 469.5 760 c 0,50,51
 541.75 810.166666667 541.75 810.166666667 585 873 c 0,52,53
 615 941.166666667 615 941.166666667 621 1018 c 0,54,55
 610.25 1114.41666667 610.25 1114.41666667 556.5 1184.5 c 0,56,57
 486.75 1237.41666666 486.75 1237.41666666 396 1248 c 0,58,59
 249.5 1220.33333334 249.5 1220.33333334 137 1082 c 1,60,-1
 104 1098 l 1,0,1
EndSplineSet
Validated: 1
EndChar

StartChar: four
Encoding: 52 52 94
Width: 1024
VWidth: 0
Flags: W
LayerCount: 2
Back
Fore
SplineSet
953 500 m 1,0,-1
 953 358 l 1,1,-1
 771 358 l 1,2,-1
 771 0 l 1,3,-1
 606 0 l 1,4,-1
 606 358 l 1,5,-1
 32 358 l 1,6,-1
 32 486 l 1,7,-1
 661 1384 l 1,8,-1
 771 1384 l 1,9,-1
 771 500 l 1,10,-1
 953 500 l 1,0,-1
606 500 m 1,11,-1
 606 1173 l 1,12,-1
 130 500 l 1,13,-1
 606 500 l 1,11,-1
EndSplineSet
Validated: 1
EndChar

StartChar: five
Encoding: 53 53 95
Width: 1024
VWidth: 0
Flags: W
LayerCount: 2
Back
Fore
SplineSet
889 1356 m 1,0,-1
 811 1186 l 1,1,-1
 403 1186 l 1,2,-1
 314 1004 l 1,3,4
 560.666666667 945.166666667 560.666666667 945.166666667 734 807 c 0,5,6
 844.833333333 663 844.833333333 663 867 487 c 0,7,8
 859.75 382.666666667 859.75 382.666666667 823.5 289 c 0,9,10
 776.25 202.5 776.25 202.5 714 134 c 0,11,12
 645.5 74.1666666667 645.5 74.1666666667 567 31 c 0,13,14
 451 -14.8333333333 451 -14.8333333333 331 -24 c 0,15,16
 220.083333333 -17.0833333333 220.083333333 -17.0833333333 153.5 17.5 c 0,17,18
 107.25 60.4166666667 107.25 60.4166666667 98 109 c 0,19,20
 101.833333334 135.916666667 101.833333334 135.916666667 121 158.5 c 0,21,22
 146 176.416666667 146 176.416666667 179 180 c 0,23,24
 203.916666667 178.666666667 203.916666667 178.666666667 224.5 172 c 0,25,26
 248.583333334 159.833333333 248.583333334 159.833333333 291 131 c 0,27,28
 366.333333334 87.6666666667 366.333333334 87.6666666667 443 79 c 0,29,30
 555.25 93.75 555.25 93.75 648.5 167.5 c 0,31,32
 722.25 262.416666666 722.25 262.416666666 737 383 c 0,33,34
 723.833333333 503.25 723.833333333 503.25 658 612.5 c 0,35,36
 569 710.916666667 569 710.916666667 440 777 c 0,37,38
 317.833333333 815.666666667 317.833333333 815.666666667 143 829 c 1,39,-1
 403 1356 l 1,40,-1
 889 1356 l 1,0,-1
EndSplineSet
Validated: 1
EndChar

StartChar: six
Encoding: 54 54 96
Width: 1024
VWidth: 0
Flags: W
LayerCount: 2
Back
Fore
SplineSet
918 1384 m 1,0,-1
 918 1347 l 1,1,2
 794.083333333 1329.58333333 794.083333333 1329.58333333 702.5 1294.5 c 0,3,4
 619.333333333 1248.08333334 619.333333333 1248.08333334 537.5 1174 c 0,5,6
 460.666666667 1089.91666666 460.666666667 1089.91666666 402.5 993.5 c 0,7,8
 351.916666666 887.75 351.916666666 887.75 313 757 c 1,9,10
 457.166666666 839.5 457.166666666 839.5 602 856 c 0,11,12
 734.833333333 837.333333333 734.833333333 837.333333333 843 744 c 0,13,14
 928 621.333333333 928 621.333333333 945 456 c 0,15,16
 927.833333333 291 927.833333333 291 842 146 c 0,17,18
 704.666666667 4.33333333335 704.666666667 4.33333333335 514 -24 c 0,19,20
 382 -8.66666666666 382 -8.66666666666 278 68 c 0,21,22
 119.666666667 264.666666667 119.666666667 264.666666667 88 532 c 0,23,24
 100.166666666 711 100.166666666 711 161 878 c 0,25,26
 244.416666667 1035.83333333 244.416666667 1035.83333333 369.5 1169 c 0,27,28
 503.083333333 1282.16666667 503.083333333 1282.16666667 629 1340 c 0,29,30
 750.166666667 1376.66666666 750.166666667 1376.66666666 860 1384 c 2,31,-1
 918 1384 l 1,0,-1
296 684 m 1,32,33
 281 557.666666667 281 557.666666667 278 466 c 0,34,35
 283.916666666 367.25 283.916666666 367.25 313.5 257.5 c 0,36,37
 354.75 152.75 354.75 152.75 419 79 c 0,38,39
 473.666666666 39.8333333333 473.666666666 39.8333333333 543 32 c 0,40,41
 626.916666667 45.6666666667 626.916666667 45.6666666667 698.5 114 c 0,42,43
 755.583333333 207.666666667 755.583333333 207.666666667 767 348 c 0,44,45
 755.666666667 511.333333333 755.666666667 511.333333333 699 644 c 0,46,47
 621.5 748.166666667 621.5 748.166666667 506 769 c 0,48,49
 467.083333334 766.333333333 467.083333334 766.333333333 424.5 753 c 0,50,51
 374.083333334 730.833333333 374.083333334 730.833333333 296 684 c 1,32,33
EndSplineSet
Validated: 1
EndChar

StartChar: seven
Encoding: 55 55 97
Width: 1024
VWidth: 0
Flags: W
LayerCount: 2
Back
Fore
SplineSet
206 1356 m 1,0,-1
 933 1356 l 1,1,-1
 933 1318 l 1,2,-1
 481 -28 l 1,3,-1
 369 -28 l 1,4,-1
 774 1193 l 1,5,-1
 401 1193 l 2,6,7
 298.833333334 1188.5 298.833333334 1188.5 240 1166 c 0,8,9
 161.5 1111.66666666 161.5 1111.66666666 105 1024 c 1,10,-1
 76 1035 l 1,11,-1
 206 1356 l 1,0,-1
EndSplineSet
Validated: 1
EndChar

StartChar: eight
Encoding: 56 56 98
Width: 1024
VWidth: 0
Flags: W
LayerCount: 2
Back
Fore
SplineSet
393 683 m 1,0,1
 251.083333334 806.333333333 251.083333334 806.333333333 185.5 895 c 0,2,3
 146.75 976.000000001 146.75 976.000000001 139 1061 c 0,4,5
 156 1186.91666666 156 1186.91666666 241 1288.5 c 0,6,7
 354.166666666 1368.08333334 354.166666666 1368.08333334 512 1384 c 0,8,9
 665.333333333 1369.16666666 665.333333333 1369.16666666 776 1295 c 0,10,11
 859.333333333 1201.83333334 859.333333333 1201.83333334 876 1092 c 0,12,13
 867 1015.5 867 1015.5 822 937 c 0,14,15
 748.5 853.333333333 748.5 853.333333333 597 751 c 1,16,17
 753.166666667 624.666666667 753.166666667 624.666666667 830 537 c 0,18,19
 893.333333333 433.166666666 893.333333333 433.166666666 906 322 c 0,20,21
 887.833333333 185.916666667 887.833333333 185.916666667 797 77.5 c 0,22,23
 676.666666667 -7.08333333334 676.666666667 -7.08333333334 511 -24 c 0,24,25
 332.166666666 -3.83333333335 332.166666666 -3.83333333335 210 97 c 0,26,27
 138.333333333 197 138.333333333 197 124 309 c 0,28,29
 134.083333333 398.75 134.083333333 398.75 184.5 487.5 c 0,30,31
 259.583333333 579.083333333 259.583333333 579.083333333 393 683 c 1,0,1
550 790 m 1,32,33
 655.333333333 890.416666667 655.333333333 890.416666667 702 960.5 c 0,34,35
 728.666666667 1025.75 728.666666667 1025.75 734 1102 c 0,36,37
 724.166666667 1199.41666666 724.166666667 1199.41666666 675 1266.5 c 0,38,39
 608.833333333 1316.08333334 608.833333333 1316.08333334 514 1326 c 0,40,41
 418.333333334 1316.16666666 418.333333334 1316.16666666 348 1267 c 0,42,43
 294.666666666 1204.66666667 294.666666666 1204.66666667 284 1129 c 0,44,45
 288.416666666 1077 288.416666666 1077 310.5 1025 c 0,46,47
 340.75 973.833333333 340.75 973.833333333 386 926 c 1,48,-1
 550 790 l 1,32,33
440 645 m 1,49,50
 364.166666667 572.916666667 364.166666667 572.916666667 317 492.5 c 0,51,52
 283.666666666 407.75 283.666666666 407.75 277 314 c 0,53,54
 288.75 193.583333333 288.75 193.583333333 347.5 107.5 c 0,55,56
 424.416666666 42.9166666667 424.416666666 42.9166666667 527 30 c 0,57,58
 627.833333333 40.1666666667 627.833333333 40.1666666667 700 91 c 0,59,60
 754.166666667 156.333333333 754.166666667 156.333333333 765 239 c 0,61,62
 758.666666667 308.5 758.666666667 308.5 727 368 c 0,63,64
 631.833333333 484.833333334 631.833333333 484.833333334 440 645 c 1,49,50
EndSplineSet
Validated: 1
EndChar

StartChar: nine
Encoding: 57 57 99
Width: 1024
VWidth: 0
Flags: W
LayerCount: 2
Back
Fore
SplineSet
108 -28 m 1,0,-1
 108 9 l 1,1,2
 235 20.4166666667 235 20.4166666667 350 69.5 c 0,3,4
 460.75 142.583333333 460.75 142.583333333 566.5 274 c 0,5,6
 660.416666667 424.833333333 660.416666667 424.833333333 712 595 c 1,7,8
 560 510.833333333 560 510.833333333 428 494 c 0,9,10
 291.833333334 512.416666667 291.833333334 512.416666667 183 604.5 c 0,11,12
 98 727.083333333 98 727.083333333 81 898 c 0,13,14
 98 1069.5 98 1069.5 183 1215 c 0,15,16
 318.5 1355.83333334 318.5 1355.83333334 504 1384 c 0,17,18
 663 1361 663 1361 790 1246 c 0,19,20
 911.666666667 1061.66666667 911.666666667 1061.66666667 936 824 c 0,21,22
 917.5 603.083333333 917.5 603.083333333 825 402.5 c 0,23,24
 699.5 218.083333334 699.5 218.083333334 516 78 c 0,25,26
 350.166666667 -10.3333333333 350.166666667 -10.3333333333 165 -28 c 2,27,-1
 108 -28 l 1,0,-1
728 669 m 1,28,29
 743 790.333333333 743 790.333333333 746 877 c 0,30,31
 740.5 976.583333333 740.5 976.583333333 713 1086.5 c 0,32,33
 675.416666667 1190.25 675.416666667 1190.25 619.5 1259 c 0,34,35
 556.25 1309 556.25 1309 482 1319 c 0,36,37
 396.666666667 1305.66666666 396.666666667 1305.66666666 326 1239 c 0,38,39
 270.166666666 1146 270.166666666 1146 259 1001 c 0,40,41
 273.833333334 805.333333333 273.833333334 805.333333333 348 671 c 0,42,43
 418 599.333333333 418 599.333333333 508 585 c 0,44,45
 556.833333333 588.666666667 556.833333333 588.666666667 617 607 c 0,46,47
 677.5 632 677.5 632 728 669 c 1,28,29
EndSplineSet
Validated: 1
EndChar

StartChar: A
Encoding: 65 65 100
Width: 1479
VWidth: 0
Flags: W
LayerCount: 2
Back
Fore
SplineSet
937 454 m 1,0,-1
 412 454 l 1,1,-1
 320 240 l 2,2,3
 291.666666666 167.666666667 291.666666666 167.666666667 286 122 c 0,4,5
 290.916666666 92.2499999998 290.916666666 92.2499999998 315.5 67.5 c 0,6,7
 356.416666667 46.75 356.416666667 46.75 443 37 c 1,8,-1
 443 0 l 1,9,-1
 16 0 l 1,10,-1
 16 37 l 1,11,12
 90.9999999998 53.5 90.9999999998 53.5 126 76 c 0,13,14
 178.833333333 140.5 178.833333333 140.5 239 271 c 2,15,-1
 716 1387 l 1,16,-1
 751 1387 l 1,17,-1
 1223 259 l 2,18,19
 1278.25 138.916666667 1278.25 138.916666667 1326.5 82.5 c 0,20,21
 1379.08333334 47.9166666667 1379.08333334 47.9166666667 1456 37 c 1,22,-1
 1456 0 l 1,23,-1
 921 0 l 1,24,-1
 921 37 l 1,25,26
 993.25 44.1666666667 993.25 44.1666666667 1030.5 64 c 0,27,28
 1054.25 88.6666666667 1054.25 88.6666666667 1059 120 c 0,29,30
 1052.33333334 172.5 1052.33333334 172.5 1019 259 c 2,31,-1
 937 454 l 1,0,-1
909 528 m 1,32,-1
 679 1076 l 1,33,-1
 443 528 l 1,34,-1
 909 528 l 1,32,-1
EndSplineSet
Validated: 1
EndChar

StartChar: B
Encoding: 66 66 101
Width: 1366
VWidth: 0
Flags: W
LayerCount: 2
Back
Fore
SplineSet
946 692 m 1,0,1
 1075.16666666 656 1075.16666666 656 1157 596 c 0,2,3
 1237.83333334 497.166666667 1237.83333334 497.166666667 1254 371 c 0,4,5
 1243.33333334 271.416666667 1243.33333334 271.416666667 1190 177.5 c 0,6,7
 1118.08333333 93.3333333331 1118.08333333 93.3333333331 1014.5 42.5 c 0,8,9
 883.416666667 7.08333333335 883.416666667 7.08333333335 674 0 c 2,10,-1
 34 0 l 1,11,-1
 34 37 l 1,12,-1
 85 37 l 2,13,14
 162 46 162 46 207 91 c 0,15,16
 226.166666667 139.166666666 226.166666667 139.166666666 230 240 c 2,17,-1
 230 1116 l 2,18,19
 225.166666667 1226.5 225.166666667 1226.5 201 1275 c 0,20,21
 155.666666667 1311.66666666 155.666666667 1311.66666666 85 1319 c 2,22,-1
 34 1319 l 1,23,-1
 34 1356 l 1,24,-1
 620 1356 l 2,25,26
 773.166666667 1352 773.166666667 1352 883 1332 c 0,27,28
 1021.16666666 1286.75 1021.16666666 1286.75 1112 1204.5 c 0,29,30
 1177.83333334 1108.41666666 1177.83333334 1108.41666666 1191 994 c 0,31,32
 1180.66666666 895.583333333 1180.66666666 895.583333333 1129 811.5 c 0,33,34
 1057.16666667 737.916666667 1057.16666667 737.916666667 946 692 c 1,0,1
422 746 m 1,35,36
 460.75 739.583333333 460.75 739.583333333 506.5 735.5 c 0,37,38
 555.583333333 732.583333333 555.583333333 732.583333333 611 732 c 0,39,40
 744.916666667 737.25 744.916666667 737.25 830.5 763.5 c 0,41,42
 898.25 800.583333333 898.25 800.583333333 943 860 c 0,43,44
 975.5 927 975.5 927 982 1002 c 0,45,46
 965.833333333 1115.16666666 965.833333333 1115.16666666 885 1205 c 0,47,48
 773.166666667 1275 773.166666667 1275 602 1289 c 0,49,50
 505.333333333 1285.33333334 505.333333333 1285.33333334 422 1267 c 1,51,-1
 422 746 l 1,35,36
422 98 m 1,52,53
 537.5 75.5 537.5 75.5 651 71 c 0,54,55
 817.666666667 84.5833333333 817.666666667 84.5833333333 927 152.5 c 0,56,57
 1006.16666667 240.416666667 1006.16666667 240.416666667 1022 354 c 0,58,59
 1014.83333334 432 1014.83333334 432 979 506 c 0,60,61
 927 573.833333333 927 573.833333333 839 621 c 0,62,63
 734.333333333 656 734.333333333 656 599 663 c 0,64,65
 540 662.666666667 540 662.666666667 493 661 c 0,66,67
 451.833333334 658.5 451.833333334 658.5 422 654 c 1,68,-1
 422 98 l 1,52,53
EndSplineSet
Validated: 1
EndChar

StartChar: C
Encoding: 67 67 102
Width: 1366
VWidth: 0
Flags: W
LayerCount: 2
Back
Fore
SplineSet
1233 1387 m 1,0,-1
 1264 926 l 1,1,-1
 1233 926 l 1,2,3
 1162.16666667 1113.66666666 1162.16666667 1113.66666666 1056 1224 c 0,4,5
 933.333333333 1299.83333334 933.333333333 1299.83333334 780 1315 c 0,6,7
 649.333333333 1303.58333334 649.333333333 1303.58333334 536 1246.5 c 0,8,9
 434.75 1164.41666666 434.75 1164.41666666 364.5 1028 c 0,10,11
 312.416666666 865.833333333 312.416666666 865.833333333 302 655 c 0,12,13
 311.833333334 479.166666667 311.833333334 479.166666667 361 336 c 0,14,15
 429.916666666 211.5 429.916666666 211.5 538.5 129 c 0,16,17
 662.583333333 69 662.583333333 69 809 57 c 0,18,19
 935.833333333 66.4166666667 935.833333333 66.4166666667 1042 113.5 c 0,20,21
 1146.33333333 188.583333333 1146.33333333 188.583333333 1264 338 c 1,22,-1
 1295 318 l 1,23,24
 1187.33333334 153.166666667 1187.33333334 153.166666667 1057 53 c 0,25,26
 912.5 -17 912.5 -17 734 -31 c 0,27,28
 422.333333333 10.6666666666 422.333333333 10.6666666666 212 219 c 0,29,30
 97 416 97 416 74 657 c 0,31,32
 89.1666666665 854.5 89.1666666665 854.5 165 1030 c 0,33,34
 267.416666667 1187.25 267.416666667 1187.25 415.5 1293.5 c 0,35,36
 579.916666667 1371.41666666 579.916666667 1371.41666666 764 1387 c 0,37,38
 910.333333333 1375 910.333333333 1375 1054 1315 c 0,39,40
 1092 1296.66666666 1092 1296.66666666 1114 1293 c 0,41,42
 1139.83333334 1296.16666666 1139.83333334 1296.16666666 1161 1312 c 0,43,44
 1184.5 1342.5 1184.5 1342.5 1198 1387 c 1,45,-1
 1233 1387 l 1,0,-1
EndSplineSet
Validated: 1
EndChar

StartChar: D
Encoding: 68 68 103
Width: 1479
VWidth: 0
Flags: W
LayerCount: 2
Back
Fore
SplineSet
35 0 m 1,0,-1
 35 37 l 1,1,-1
 86 37 l 2,2,3
 163.666666667 46.1666666667 163.666666667 46.1666666667 208 92 c 0,4,5
 226.333333333 138.666666667 226.333333333 138.666666667 230 240 c 2,6,-1
 230 1116 l 2,7,8
 225.333333333 1227.16666667 225.333333333 1227.16666667 202 1275 c 0,9,10
 156.666666667 1311.66666666 156.666666667 1311.66666666 86 1319 c 2,11,-1
 35 1319 l 1,12,-1
 35 1356 l 1,13,-1
 587 1356 l 2,14,15
 866.75 1344.5 866.75 1344.5 1049.5 1287 c 0,16,17
 1197.66666667 1202.66666666 1197.66666667 1202.66666666 1304.5 1057 c 0,18,19
 1384.91666666 887.666666667 1384.91666666 887.666666667 1401 685 c 0,20,21
 1372.33333334 417.5 1372.33333334 417.5 1229 212 c 0,22,23
 1002.33333333 35.3333333333 1002.33333333 35.3333333333 641 0 c 2,24,-1
 35 0 l 1,0,-1
422 98 m 1,25,26
 542.166666667 74.6666666667 542.166666667 74.6666666667 635 70 c 0,27,28
 853.833333333 97.1666666665 853.833333333 97.1666666665 1020 233 c 0,29,30
 1147.5 415.333333334 1147.5 415.333333334 1173 675 c 0,31,32
 1147.5 936.166666667 1147.5 936.166666667 1020 1118 c 0,33,34
 852.5 1253 852.5 1253 627 1280 c 0,35,36
 532.833333334 1275.16666666 532.833333334 1275.16666666 422 1251 c 1,37,-1
 422 98 l 1,25,26
EndSplineSet
Validated: 1
EndChar

StartChar: E
Encoding: 69 69 104
Width: 1251
VWidth: 0
Flags: W
LayerCount: 2
Back
Fore
SplineSet
428 1282 m 1,0,-1
 428 746 l 1,1,-1
 726 746 l 2,2,3
 829.166666667 751.833333333 829.166666667 751.833333333 881 781 c 0,4,5
 925.333333333 838.666666667 925.333333333 838.666666667 939 943 c 1,6,-1
 976 943 l 1,7,-1
 976 471 l 1,8,-1
 939 471 l 1,9,10
 925 558.166666667 925 558.166666667 911 598 c 0,11,12
 889.166666667 630.5 889.166666667 630.5 852 653 c 0,13,14
 803.666666667 669.666666667 803.666666667 669.666666667 726 673 c 2,15,-1
 428 673 l 1,16,-1
 428 226 l 2,17,18
 429.333333334 147.75 429.333333334 147.75 436 116.5 c 0,19,20
 446 98.3333333333 446 98.3333333333 464 85.5 c 0,21,22
 490 75.9166666667 490 75.9166666667 540 74 c 2,23,-1
 770 74 l 2,24,25
 874.5 76.6666666667 874.5 76.6666666667 937 90 c 0,26,27
 988.333333333 111.166666667 988.333333333 111.166666667 1037 153 c 0,28,29
 1099.5 225.5 1099.5 225.5 1164 340 c 1,30,-1
 1204 340 l 1,31,-1
 1087 0 l 1,32,-1
 42 0 l 1,33,-1
 42 37 l 1,34,-1
 90 37 l 2,35,36
 137.166666667 40.8333333333 137.166666667 40.8333333333 181 60 c 0,37,38
 209.583333333 78.6666666667 209.583333333 78.6666666667 224.5 108 c 0,39,40
 234.083333333 151.166666667 234.083333333 151.166666667 236 239 c 2,41,-1
 236 1120 l 2,42,43
 231.666666667 1232.5 231.666666667 1232.5 210 1279 c 0,44,45
 166 1312.33333334 166 1312.33333334 90 1319 c 2,46,-1
 42 1319 l 1,47,-1
 42 1356 l 1,48,-1
 1087 1356 l 1,49,-1
 1102 1059 l 1,50,-1
 1063 1059 l 1,51,52
 1041.25 1154.83333333 1041.25 1154.83333333 1016.5 1206 c 0,53,54
 986.916666667 1242.83333334 986.916666667 1242.83333334 941 1267 c 0,55,56
 890.833333333 1279.5 890.833333333 1279.5 800 1282 c 2,57,-1
 428 1282 l 1,0,-1
EndSplineSet
Validated: 1
EndChar

StartChar: F
Encoding: 70 70 105
Width: 1139
VWidth: 0
Flags: W
LayerCount: 2
Back
Fore
SplineSet
419 1282 m 1,0,-1
 419 749 l 1,1,-1
 666 749 l 2,2,3
 743.416666667 755.25 743.416666667 755.25 790.5 786.5 c 0,4,5
 825.583333333 836.25 825.583333333 836.25 843 935 c 1,6,-1
 880 935 l 1,7,-1
 880 476 l 1,8,-1
 843 476 l 1,9,10
 838.916666667 548 838.916666667 548 822.5 592 c 0,11,12
 800.5 625.916666667 800.5 625.916666667 768.5 647.5 c 0,13,14
 728.416666667 662.916666667 728.416666667 662.916666667 666 666 c 2,15,-1
 419 666 l 1,16,-1
 419 240 l 2,17,18
 421.166666666 148.666666667 421.166666666 148.666666667 432 104 c 0,19,20
 445.666666667 80.1666666667 445.666666667 80.1666666667 474 61 c 0,21,22
 518.666666666 41 518.666666666 41 566 37 c 2,23,-1
 615 37 l 1,24,-1
 615 0 l 1,25,-1
 33 0 l 1,26,-1
 33 37 l 1,27,-1
 81 37 l 2,28,29
 157.333333333 45.1666666667 157.333333333 45.1666666667 203 86 c 0,30,31
 223 133 223 133 227 240 c 2,32,-1
 227 1116 l 2,33,34
 224.833333333 1207.33333334 224.833333333 1207.33333334 214 1252 c 0,35,36
 200.5 1275.83333334 200.5 1275.83333334 173 1295 c 0,37,38
 129 1315 129 1315 81 1319 c 2,39,-1
 33 1319 l 1,40,-1
 33 1356 l 1,41,-1
 1042 1356 l 1,42,-1
 1055 1058 l 1,43,-1
 1020 1058 l 1,44,45
 992.583333335 1144.58333333 992.583333335 1144.58333333 959.5 1197.5 c 0,46,47
 922.333333333 1237.91666667 922.333333333 1237.91666667 874.5 1262 c 0,48,49
 814.75 1278.66666666 814.75 1278.66666666 718 1282 c 2,50,-1
 419 1282 l 1,0,-1
EndSplineSet
Validated: 1
EndChar

StartChar: H
Encoding: 72 72 106
Width: 1479
VWidth: 0
Flags: W
LayerCount: 2
Back
Fore
SplineSet
421 727 m 1,0,-1
 1051 727 l 1,1,-1
 1051 1115 l 2,2,3
 1048.83333334 1207.16666666 1048.83333334 1207.16666666 1038 1252 c 0,4,5
 1024.33333333 1275.83333334 1024.33333333 1275.83333334 996 1295 c 0,6,7
 952.166666667 1315 952.166666667 1315 905 1319 c 2,8,-1
 857 1319 l 1,9,-1
 857 1356 l 1,10,-1
 1437 1356 l 1,11,-1
 1437 1319 l 1,12,-1
 1389 1319 l 2,13,14
 1341.83333334 1315.16666666 1341.83333334 1315.16666666 1298 1296 c 0,15,16
 1269.41666667 1277.25 1269.41666667 1277.25 1254.5 1247.5 c 0,17,18
 1244.91666666 1203.75 1244.91666666 1203.75 1243 1115 c 2,19,-1
 1243 240 l 2,20,21
 1245.16666666 148.666666667 1245.16666666 148.666666667 1256 104 c 0,22,23
 1269.5 80.1666666667 1269.5 80.1666666667 1297 61 c 0,24,25
 1341.66666666 41 1341.66666666 41 1389 37 c 2,26,-1
 1437 37 l 1,27,-1
 1437 0 l 1,28,-1
 857 0 l 1,29,-1
 857 37 l 1,30,-1
 905 37 l 2,31,32
 980.500000001 45.1666666667 980.500000001 45.1666666667 1026 86 c 0,33,34
 1046.83333334 133 1046.83333334 133 1051 240 c 2,35,-1
 1051 653 l 1,36,-1
 421 653 l 1,37,-1
 421 240 l 2,38,39
 423.166666666 148.666666667 423.166666666 148.666666667 434 104 c 0,40,41
 447.666666667 80.1666666667 447.666666667 80.1666666667 476 61 c 0,42,43
 519.833333334 41 519.833333334 41 567 37 c 2,44,-1
 616 37 l 1,45,-1
 616 0 l 1,46,-1
 35 0 l 1,47,-1
 35 37 l 1,48,-1
 83 37 l 2,49,50
 159.333333333 45.1666666667 159.333333333 45.1666666667 205 86 c 0,51,52
 225 133 225 133 229 240 c 2,53,-1
 229 1115 l 2,54,55
 226.833333333 1207.16666666 226.833333333 1207.16666666 216 1252 c 0,56,57
 202.5 1275.83333334 202.5 1275.83333334 175 1295 c 0,58,59
 130.333333333 1315 130.333333333 1315 83 1319 c 2,60,-1
 35 1319 l 1,61,-1
 35 1356 l 1,62,-1
 616 1356 l 1,63,-1
 616 1319 l 1,64,-1
 567 1319 l 2,65,66
 519.833333334 1315.16666666 519.833333334 1315.16666666 476 1296 c 0,67,68
 448.166666666 1277.25 448.166666666 1277.25 433 1247.5 c 0,69,70
 423 1203.75 423 1203.75 421 1115 c 2,71,-1
 421 727 l 1,0,-1
EndSplineSet
Validated: 1
EndChar

StartChar: G
Encoding: 71 71 107
Width: 1479
VWidth: 0
Flags: W
LayerCount: 2
Back
Fore
SplineSet
1257 1387 m 1,0,-1
 1292 959 l 1,1,-1
 1257 959 l 1,2,3
 1198.83333334 1105.83333334 1198.83333334 1105.83333334 1120 1200 c 0,4,5
 987.499999999 1297.5 987.499999999 1297.5 809 1317 c 0,6,7
 570.666666667 1282.83333334 570.666666667 1282.83333334 415 1112 c 0,8,9
 320.833333334 928 320.833333334 928 302 700 c 0,10,11
 314.5 511.666666667 314.5 511.666666667 377 346 c 0,12,13
 459.75 200.25 459.75 200.25 573.5 111.5 c 0,14,15
 696.083333333 49.4166666667 696.083333333 49.4166666667 823 37 c 0,16,17
 897.166666667 40.1666666667 897.166666667 40.1666666667 968 56 c 0,18,19
 1037.16666667 78 1037.16666667 78 1103 112 c 1,20,-1
 1103 504 l 2,21,22
 1100.41666666 594.25 1100.41666666 594.25 1087.5 637.5 c 0,23,24
 1069.16666667 666.5 1069.16666667 666.5 1039.5 685.5 c 0,25,26
 998.749999999 699.25 998.749999999 699.25 925 702 c 1,27,-1
 925 740 l 1,28,-1
 1450 740 l 1,29,-1
 1450 702 l 1,30,-1
 1425 702 l 2,31,32
 1355.16666666 693.333333333 1355.16666666 693.333333333 1318 650 c 0,33,34
 1301.33333334 601 1301.33333334 601 1298 504 c 2,35,-1
 1298 89 l 1,36,37
 1183.5 32.5 1183.5 32.5 1071 -2 c 0,38,39
 954.833333333 -26.1666666667 954.833333333 -26.1666666667 822 -31 c 0,40,41
 460.5 11 460.5 11 225 221 c 0,42,43
 97.5 419.666666666 97.5 419.666666666 72 657 c 0,44,45
 86.3333333335 833.5 86.3333333335 833.5 158 1000 c 0,46,47
 272.666666666 1180 272.666666666 1180 438 1300 c 0,48,49
 596 1372.5 596 1372.5 790 1387 c 0,50,51
 861.75 1385 861.75 1385 924.5 1375 c 0,52,53
 993.416666667 1358.16666666 993.416666667 1358.16666666 1096 1322 c 0,54,55
 1145.83333333 1304.5 1145.83333333 1304.5 1171 1301 c 0,56,57
 1189.08333334 1303.91666666 1189.08333334 1303.91666666 1203.5 1318.5 c 0,58,59
 1215.25 1341.58333334 1215.25 1341.58333334 1220 1387 c 1,60,-1
 1257 1387 l 1,0,-1
EndSplineSet
Validated: 1
EndChar

StartChar: I
Encoding: 73 73 108
Width: 682
VWidth: 0
Flags: W
LayerCount: 2
Back
Fore
SplineSet
632 37 m 1,0,-1
 632 0 l 1,1,-1
 51 0 l 1,2,-1
 51 37 l 1,3,-1
 99 37 l 2,4,5
 175.333333333 45.1666666667 175.333333333 45.1666666667 221 86 c 0,6,7
 241 133 241 133 245 240 c 2,8,-1
 245 1116 l 2,9,10
 242.833333333 1207.33333334 242.833333333 1207.33333334 232 1252 c 0,11,12
 218.5 1275.83333334 218.5 1275.83333334 191 1295 c 0,13,14
 146.333333333 1315 146.333333333 1315 99 1319 c 2,15,-1
 51 1319 l 1,16,-1
 51 1356 l 1,17,-1
 632 1356 l 1,18,-1
 632 1319 l 1,19,-1
 583 1319 l 2,20,21
 507.5 1310.83333334 507.5 1310.83333334 462 1270 c 0,22,23
 441.166666666 1223 441.166666666 1223 437 1116 c 2,24,-1
 437 240 l 2,25,26
 439.166666666 148.666666667 439.166666666 148.666666667 450 104 c 0,27,28
 463.666666667 80.1666666667 463.666666667 80.1666666667 492 61 c 0,29,30
 535.833333333 41 535.833333333 41 583 37 c 2,31,-1
 632 37 l 1,0,-1
EndSplineSet
Validated: 1
EndChar

StartChar: J
Encoding: 74 74 109
Width: 797
VWidth: 0
Flags: W
LayerCount: 2
Back
Fore
SplineSet
204 1319 m 1,0,-1
 204 1356 l 1,1,-1
 785 1356 l 1,2,-1
 785 1319 l 1,3,-1
 736 1319 l 2,4,5
 660.5 1310.83333334 660.5 1310.83333334 615 1270 c 0,6,7
 595 1223 595 1223 591 1116 c 2,8,-1
 591 453 l 2,9,10
 585.416666667 309.666666666 585.416666667 309.666666666 557.5 205 c 0,11,12
 515.916666667 114.083333333 515.916666667 114.083333333 442 39.5 c 0,13,14
 354.333333333 -19.25 354.333333333 -19.25 244 -31 c 0,15,16
 156.666666667 -23.25 156.666666667 -23.25 96 15.5 c 0,17,18
 51 64.25 51 64.25 42 122 c 0,19,20
 46.1666666667 167 46.1666666667 167 67 196 c 0,21,22
 101.833333334 221.833333333 101.833333334 221.833333333 144 227 c 0,23,24
 174.916666667 223.5 174.916666667 223.5 201.5 206 c 0,25,26
 229.25 173.333333333 229.25 173.333333333 266 94 c 0,27,28
 291.166666666 49 291.166666666 49 325 40 c 0,29,30
 351.416666666 45.5 351.416666666 45.5 375.5 73 c 0,31,32
 395.083333334 114.5 395.083333334 114.5 399 190 c 2,33,-1
 399 1116 l 2,34,35
 396.833333334 1207.33333334 396.833333334 1207.33333334 386 1252 c 0,36,37
 372.333333333 1275.83333334 372.333333333 1275.83333334 344 1295 c 0,38,39
 300.166666666 1315 300.166666666 1315 253 1319 c 2,40,-1
 204 1319 l 1,0,-1
EndSplineSet
Validated: 1
EndChar

StartChar: K
Encoding: 75 75 110
Width: 1479
VWidth: 0
Flags: W
LayerCount: 2
Back
Fore
SplineSet
612 752 m 1,0,-1
 1112 255 l 2,1,2
 1229 145.083333334 1229 145.083333334 1322 87.5 c 0,3,4
 1409 49.4166666667 1409 49.4166666667 1496 37 c 1,5,-1
 1496 0 l 1,6,-1
 851 0 l 1,7,-1
 851 37 l 1,8,9
 903.583333333 40.25 903.583333333 40.25 934.5 56.5 c 0,10,11
 955.75 76.75 955.75 76.75 960 100 c 0,12,13
 958.416666667 123.166666667 958.416666667 123.166666667 950.5 143 c 0,14,15
 933.75 167.5 933.75 167.5 888 214 c 2,16,-1
 420 677 l 1,17,-1
 420 240 l 2,18,19
 422.166666666 148.666666667 422.166666666 148.666666667 433 104 c 0,20,21
 446.666666667 80.1666666667 446.666666667 80.1666666667 475 61 c 0,22,23
 518.833333334 41 518.833333334 41 566 37 c 2,24,-1
 612 37 l 1,25,-1
 612 0 l 1,26,-1
 34 0 l 1,27,-1
 34 37 l 1,28,-1
 82 37 l 2,29,30
 158.333333333 45.1666666667 158.333333333 45.1666666667 204 86 c 0,31,32
 224 133 224 133 228 240 c 2,33,-1
 228 1116 l 2,34,35
 225.833333333 1207.5 225.833333333 1207.5 215 1253 c 0,36,37
 201.5 1276 201.5 1276 174 1295 c 0,38,39
 129.333333333 1315 129.333333333 1315 82 1319 c 2,40,-1
 34 1319 l 1,41,-1
 34 1356 l 1,42,-1
 612 1356 l 1,43,-1
 612 1319 l 1,44,-1
 566 1319 l 2,45,46
 519.5 1315.16666666 519.5 1315.16666666 475 1296 c 0,47,48
 447.166666666 1277.33333333 447.166666666 1277.33333333 432 1248 c 0,49,50
 422 1204.66666667 422 1204.66666667 420 1116 c 2,51,-1
 420 701 l 1,52,53
 456.166666666 734.833333333 456.166666666 734.833333333 557 828 c 0,54,55
 814.833333333 1069.83333333 814.833333333 1069.83333333 916 1191 c 0,56,57
 938.5 1229.33333334 938.5 1229.33333334 943 1261 c 0,58,59
 939.5 1283.08333333 939.5 1283.08333333 922 1301.5 c 0,60,61
 896.166666667 1316.08333334 896.166666667 1316.08333334 851 1319 c 2,62,-1
 820 1319 l 1,63,-1
 820 1356 l 1,64,-1
 1318 1356 l 1,65,-1
 1318 1319 l 1,66,67
 1275.33333334 1316.33333333 1275.33333334 1316.33333333 1238 1307 c 0,68,69
 1199.33333334 1292.58333334 1199.33333334 1292.58333334 1150 1264.5 c 0,70,71
 1094 1226.58333334 1094 1226.58333334 1022 1163 c 0,72,73
 973.499999999 1115.5 973.499999999 1115.5 819 958 c 2,74,-1
 612 752 l 1,0,-1
EndSplineSet
Validated: 1
EndChar

StartChar: L
Encoding: 76 76 111
Width: 1251
VWidth: 0
Flags: W
LayerCount: 2
Back
Fore
SplineSet
1174 375 m 1,0,-1
 1207 368 l 1,1,-1
 1091 0 l 1,2,-1
 41 0 l 1,3,-1
 41 37 l 1,4,-1
 92 37 l 2,5,6
 169.833333333 46.3333333333 169.833333333 46.3333333333 215 93 c 0,7,8
 232.5 139 232.5 139 236 241 c 2,9,-1
 236 1116 l 2,10,11
 231.333333333 1227.16666667 231.333333333 1227.16666667 208 1275 c 0,12,13
 162.666666667 1311.66666666 162.666666667 1311.66666666 92 1319 c 2,14,-1
 41 1319 l 1,15,-1
 41 1356 l 1,16,-1
 655 1356 l 1,17,-1
 655 1319 l 1,18,19
 557.75 1316.33333334 557.75 1316.33333334 503.5 1299 c 0,20,21
 464.583333334 1276.16666666 464.583333334 1276.16666666 444 1246 c 0,22,23
 430.666666666 1199.16666667 430.666666666 1199.16666667 428 1093 c 2,24,-1
 428 241 l 2,25,26
 430.666666666 166.666666667 430.666666666 166.666666667 444 127 c 0,27,28
 458.166666666 107.833333334 458.166666666 107.833333334 481 96 c 0,29,30
 523.666666667 87.6666666667 523.666666667 87.6666666667 637 86 c 2,31,-1
 736 86 l 2,32,33
 876.5 89.8333333333 876.5 89.8333333333 955 109 c 0,34,35
 1016.16666666 137.916666666 1016.16666666 137.916666666 1070 190.5 c 0,36,37
 1122 260.25 1122 260.25 1174 375 c 1,0,-1
EndSplineSet
Validated: 1
EndChar

StartChar: M
Encoding: 77 77 112
Width: 1821
VWidth: 0
Flags: W
LayerCount: 2
Back
Fore
SplineSet
838 0 m 1,0,-1
 314 1141 l 1,1,-1
 314 235 l 2,2,3
 318.5 125.666666667 318.5 125.666666667 341 79 c 0,4,5
 385.166666667 44 385.166666667 44 458 37 c 2,6,-1
 506 37 l 1,7,-1
 506 0 l 1,8,-1
 34 0 l 1,9,-1
 34 37 l 1,10,-1
 82 37 l 2,11,12
 159.666666667 45.6666666667 159.666666667 45.6666666667 204 89 c 0,13,14
 222.333333333 134.666666666 222.333333333 134.666666666 226 235 c 2,15,-1
 226 1121 l 2,16,17
 222.666666667 1202.66666666 222.666666667 1202.66666666 206 1251 c 0,18,19
 188.083333333 1278.41666666 188.083333333 1278.41666666 154.5 1299.5 c 0,20,21
 109.416666667 1315.75 109.416666667 1315.75 34 1319 c 1,22,-1
 34 1356 l 1,23,-1
 418 1356 l 1,24,-1
 910 295 l 1,25,-1
 1394 1356 l 1,26,-1
 1778 1356 l 1,27,-1
 1778 1319 l 1,28,-1
 1731 1319 l 2,29,30
 1652.5 1310.33333334 1652.5 1310.33333334 1608 1267 c 0,31,32
 1589.66666666 1221.33333334 1589.66666666 1221.33333334 1586 1121 c 2,33,-1
 1586 235 l 2,34,35
 1590.66666666 125.666666667 1590.66666666 125.666666667 1614 79 c 0,36,37
 1658.16666667 44 1658.16666667 44 1731 37 c 2,38,-1
 1778 37 l 1,39,-1
 1778 0 l 1,40,-1
 1202 0 l 1,41,-1
 1202 37 l 1,42,-1
 1250 37 l 2,43,44
 1328.33333334 45.6666666667 1328.33333334 45.6666666667 1372 89 c 0,45,46
 1390.33333334 134.666666666 1390.33333334 134.666666666 1394 235 c 2,47,-1
 1394 1141 l 1,48,-1
 871 0 l 1,49,-1
 838 0 l 1,0,-1
EndSplineSet
Validated: 1
EndChar

StartChar: N
Encoding: 78 78 113
Width: 1479
VWidth: 0
Flags: W
LayerCount: 2
Back
Fore
SplineSet
-27 1356 m 1,0,-1
 341 1356 l 1,1,-1
 1170 339 l 1,2,-1
 1170 1121 l 2,3,4
 1165.33333334 1230.33333333 1165.33333334 1230.33333333 1142 1277 c 0,5,6
 1097.83333333 1312 1097.83333333 1312 1025 1319 c 2,7,-1
 978 1319 l 1,8,-1
 978 1356 l 1,9,-1
 1450 1356 l 1,10,-1
 1450 1319 l 1,11,-1
 1402 1319 l 2,12,13
 1324.33333334 1310.33333334 1324.33333334 1310.33333334 1280 1267 c 0,14,15
 1261.66666666 1221.33333334 1261.66666666 1221.33333334 1258 1121 c 2,16,-1
 1258 -22 l 1,17,-1
 1222 -22 l 1,18,-1
 328 1070 l 1,19,-1
 328 235 l 2,20,21
 332.5 125.666666667 332.5 125.666666667 355 79 c 0,22,23
 399.833333333 44 399.833333333 44 472 37 c 2,24,-1
 520 37 l 1,25,-1
 520 0 l 1,26,-1
 48 0 l 1,27,-1
 48 37 l 1,28,-1
 95 37 l 2,29,30
 173.5 45.6666666667 173.5 45.6666666667 218 89 c 0,31,32
 236.333333333 134.666666666 236.333333333 134.666666666 240 235 c 2,33,-1
 240 1178 l 1,34,35
 185.75 1239.16666666 185.75 1239.16666666 150.5 1269 c 0,36,37
 115.25 1290.5 115.25 1290.5 61 1310 c 0,38,39
 27 1317.5 27 1317.5 -27 1319 c 1,40,-1
 -27 1356 l 1,0,-1
EndSplineSet
Validated: 1
EndChar

StartChar: uniE000
Encoding: 57344 57344 114
Width: 1479
Flags: W
LayerCount: 2
Back
Fore
SplineSet
937 454 m 1,0,-1
 412 454 l 1,1,-1
 320 240 l 2,2,3
 286 161 286 161 286 122 c 0,4,5
 286 91 286 91 315.5 67.5 c 128,-1,6
 345 44 345 44 443 37 c 1,7,-1
 443 0 l 1,8,-1
 16 0 l 1,9,-1
 16 37 l 1,10,11
 101 52 101 52 126 76 c 0,12,13
 177 124 177 124 239 271 c 2,14,-1
 716 1387 l 1,15,-1
 751 1387 l 1,16,-1
 1223 259 l 2,17,18
 1280 123 1280 123 1326.5 82.5 c 128,-1,19
 1373 42 1373 42 1456 37 c 1,20,-1
 1456 0 l 1,21,-1
 921 0 l 1,22,-1
 921 37 l 1,23,24
 1002 41 1002 41 1030.5 64 c 128,-1,25
 1059 87 1059 87 1059 120 c 0,26,27
 1059 164 1059 164 1019 259 c 2,28,-1
 937 454 l 1,0,-1
909 528 m 1,29,-1
 679 1076 l 1,30,-1
 443 528 l 1,31,-1
 909 528 l 1,29,-1
EndSplineSet
Validated: 1
EndChar

StartChar: uniE001
Encoding: 57345 57345 115
Width: 1821
Flags: W
LayerCount: 2
Back
Fore
SplineSet
1027 1282 m 1,0,-1
 1027 746 l 1,1,-1
 1284 746 l 2,2,3
 1399 746 1399 746 1446 789 c 128,-1,4
 1493 832 1493 832 1501 943 c 1,5,-1
 1537 943 l 1,6,-1
 1537 472 l 1,7,-1
 1501 472 l 1,8,9
 1489 572 1489 572 1468.5 606.5 c 128,-1,10
 1448 641 1448 641 1400 662 c 0,11,12
 1377 673 1377 673 1284 673 c 2,13,-1
 1027 673 l 1,14,-1
 1027 224 l 2,15,16
 1027 133 1027 133 1034 115.5 c 128,-1,17
 1041 98 1041 98 1063 86 c 128,-1,18
 1085 74 1085 74 1142 74 c 2,19,-1
 1324 74 l 2,20,21
 1433 74 1433 74 1492 92 c 128,-1,22
 1551 110 1551 110 1606 162 c 0,23,24
 1679 230 1679 230 1726 341 c 1,25,-1
 1764 341 l 1,26,-1
 1656 0 l 1,27,-1
 638 0 l 1,28,-1
 638 37 l 1,29,-1
 689 37 l 2,30,31
 772 37 772 37 811 86 c 0,32,33
 835 118 835 118 835 239 c 2,34,-1
 835 525 l 1,35,-1
 439 525 l 1,36,-1
 315 292 l 2,37,38
 245 160 245 160 245 119 c 0,39,40
 245 91 245 91 275.5 67.5 c 128,-1,41
 306 44 306 44 402 37 c 1,42,-1
 402 0 l 1,43,-1
 -24 0 l 1,44,-1
 -24 37 l 1,45,46
 20 38 20 38 51.5 56 c 128,-1,47
 83 74 83 74 120 121 c 128,-1,48
 157 168 157 168 214 274 c 2,49,-1
 626 1045 l 2,50,51
 703 1188 703 1188 703 1238 c 0,52,53
 703 1270 703 1270 676 1288 c 0,54,55
 642 1313 642 1313 530 1319 c 1,56,-1
 530 1356 l 1,57,-1
 1641 1356 l 1,58,-1
 1656 1058 l 1,59,-1
 1622 1058 l 1,60,61
 1609 1161 1609 1161 1572 1215 c 0,62,63
 1545 1254 1545 1254 1494 1272 c 0,64,65
 1465 1282 1465 1282 1358 1282 c 2,66,-1
 1027 1282 l 1,0,-1
835 1282 m 1,67,-1
 478 598 l 1,68,-1
 835 598 l 1,69,-1
 835 1282 l 1,67,-1
EndSplineSet
Validated: 1
EndChar

StartChar: uniE002
Encoding: 57346 57346 116
Width: 1366
Flags: W
LayerCount: 2
Back
Fore
SplineSet
946 692 m 1,0,1
 1087 662 1087 662 1157 596 c 0,2,3
 1254 504 1254 504 1254 371 c 0,4,5
 1254 270 1254 270 1190 177.5 c 128,-1,6
 1126 85 1126 85 1014.5 42.5 c 128,-1,7
 903 0 903 0 674 0 c 2,8,-1
 34 0 l 1,9,-1
 34 37 l 1,10,-1
 85 37 l 2,11,12
 170 37 170 37 207 91 c 0,13,14
 230 126 230 126 230 240 c 2,15,-1
 230 1116 l 2,16,17
 230 1242 230 1242 201 1275 c 0,18,19
 162 1319 162 1319 85 1319 c 2,20,-1
 34 1319 l 1,21,-1
 34 1356 l 1,22,-1
 620 1356 l 2,23,24
 784 1356 784 1356 883 1332 c 0,25,26
 1033 1296 1033 1296 1112 1204.5 c 128,-1,27
 1191 1113 1191 1113 1191 994 c 0,28,29
 1191 892 1191 892 1129 811.5 c 128,-1,30
 1067 731 1067 731 946 692 c 1,0,1
422 746 m 1,31,32
 459 739 459 739 506.5 735.5 c 128,-1,33
 554 732 554 732 611 732 c 0,34,35
 757 732 757 732 830.5 763.5 c 128,-1,36
 904 795 904 795 943 860 c 128,-1,37
 982 925 982 925 982 1002 c 0,38,39
 982 1121 982 1121 885 1205 c 128,-1,40
 788 1289 788 1289 602 1289 c 0,41,42
 502 1289 502 1289 422 1267 c 1,43,-1
 422 746 l 1,31,32
422 98 m 1,44,45
 538 71 538 71 651 71 c 0,46,47
 832 71 832 71 927 152.5 c 128,-1,48
 1022 234 1022 234 1022 354 c 0,49,50
 1022 433 1022 433 979 506 c 128,-1,51
 936 579 936 579 839 621 c 128,-1,52
 742 663 742 663 599 663 c 0,53,54
 537 663 537 663 493 661 c 128,-1,55
 449 659 449 659 422 654 c 1,56,-1
 422 98 l 1,44,45
EndSplineSet
Validated: 1
EndChar

StartChar: uniE004
Encoding: 57348 57348 117
Width: 1184
Flags: W
LayerCount: 2
Back
Fore
SplineSet
1125 1356 m 1,0,-1
 1130 1039 l 1,1,-1
 1091 1039 l 1,2,3
 1087 1135 1087 1135 1050 1193 c 128,-1,4
 1013 1251 1013 1251 959.5 1266.5 c 128,-1,5
 906 1282 906 1282 805 1282 c 2,6,-1
 425 1282 l 1,7,-1
 425 247 l 2,8,9
 425 113 425 113 459.5 77 c 128,-1,10
 494 41 494 41 619 37 c 1,11,-1
 619 0 l 1,12,-1
 37 0 l 1,13,-1
 37 37 l 1,14,15
 163 41 163 41 198 77 c 128,-1,16
 233 113 233 113 233 247 c 2,17,-1
 233 1109 l 2,18,19
 233 1243 233 1243 198 1279 c 128,-1,20
 163 1315 163 1315 37 1319 c 1,21,-1
 37 1356 l 1,22,-1
 1125 1356 l 1,0,-1
EndSplineSet
Validated: 1
EndChar

StartChar: uniE006
Encoding: 57350 57350 118
Width: 1317
Flags: W
LayerCount: 2
Back
Fore
SplineSet
50 0 m 1,0,-1
 658 1387 l 1,1,-1
 692 1387 l 1,2,-1
 1266 0 l 1,3,-1
 50 0 l 1,0,-1
1027 85 m 1,4,-1
 622 1081 l 1,5,-1
 184 85 l 1,6,-1
 1027 85 l 1,4,-1
EndSplineSet
Validated: 1
EndChar

StartChar: uniE008
Encoding: 57352 57352 119
Width: 1251
Flags: W
LayerCount: 2
Back
Fore
SplineSet
428 1282 m 1,0,-1
 428 746 l 1,1,-1
 726 746 l 2,2,3
 842 746 842 746 881 781 c 0,4,5
 933 827 933 827 939 943 c 1,6,-1
 976 943 l 1,7,-1
 976 471 l 1,8,-1
 939 471 l 1,9,10
 925 570 925 570 911 598 c 0,11,12
 893 633 893 633 852 653 c 128,-1,13
 811 673 811 673 726 673 c 2,14,-1
 428 673 l 1,15,-1
 428 226 l 2,16,17
 428 136 428 136 436 116.5 c 128,-1,18
 444 97 444 97 464 85.5 c 128,-1,19
 484 74 484 74 540 74 c 2,20,-1
 770 74 l 2,21,22
 885 74 885 74 937 90 c 128,-1,23
 989 106 989 106 1037 153 c 0,24,25
 1099 215 1099 215 1164 340 c 1,26,-1
 1204 340 l 1,27,-1
 1087 0 l 1,28,-1
 42 0 l 1,29,-1
 42 37 l 1,30,-1
 90 37 l 2,31,32
 138 37 138 37 181 60 c 0,33,34
 213 76 213 76 224.5 108 c 128,-1,35
 236 140 236 140 236 239 c 2,36,-1
 236 1120 l 2,37,38
 236 1249 236 1249 210 1279 c 0,39,40
 174 1319 174 1319 90 1319 c 2,41,-1
 42 1319 l 1,42,-1
 42 1356 l 1,43,-1
 1087 1356 l 1,44,-1
 1102 1059 l 1,45,-1
 1063 1059 l 1,46,47
 1042 1166 1042 1166 1016.5 1206 c 128,-1,48
 991 1246 991 1246 941 1267 c 0,49,50
 901 1282 901 1282 800 1282 c 2,51,-1
 428 1282 l 1,0,-1
EndSplineSet
Validated: 1
EndChar

StartChar: uniE00A
Encoding: 57354 57354 120
Width: 1251
Flags: W
LayerCount: 2
Back
Fore
SplineSet
1178 1356 m 1,0,-1
 287 82 l 1,1,-1
 843 82 l 2,2,3
 971 82 971 82 1039.5 138 c 128,-1,4
 1108 194 1108 194 1161 365 c 1,5,-1
 1194 359 l 1,6,-1
 1130 0 l 1,7,-1
 26 0 l 1,8,-1
 26 37 l 1,9,-1
 896 1275 l 1,10,-1
 462 1275 l 2,11,12
 354 1275 354 1275 305.5 1251.5 c 128,-1,13
 257 1228 257 1228 231.5 1183.5 c 128,-1,14
 206 1139 206 1139 185 1017 c 1,15,-1
 147 1017 l 1,16,-1
 175 1356 l 1,17,-1
 1178 1356 l 1,0,-1
EndSplineSet
Validated: 1
EndChar

StartChar: uniE00C
Encoding: 57356 57356 121
Width: 1479
Flags: W
LayerCount: 2
Back
Fore
SplineSet
421 727 m 1,0,-1
 1051 727 l 1,1,-1
 1051 1115 l 2,2,3
 1051 1219 1051 1219 1038 1252 c 0,4,5
 1028 1277 1028 1277 996 1295 c 0,6,7
 953 1319 953 1319 905 1319 c 2,8,-1
 857 1319 l 1,9,-1
 857 1356 l 1,10,-1
 1437 1356 l 1,11,-1
 1437 1319 l 1,12,-1
 1389 1319 l 2,13,14
 1341 1319 1341 1319 1298 1296 c 0,15,16
 1266 1280 1266 1280 1254.5 1247.5 c 128,-1,17
 1243 1215 1243 1215 1243 1115 c 2,18,-1
 1243 240 l 2,19,20
 1243 137 1243 137 1256 104 c 0,21,22
 1266 79 1266 79 1297 61 c 0,23,24
 1341 37 1341 37 1389 37 c 2,25,-1
 1437 37 l 1,26,-1
 1437 0 l 1,27,-1
 857 0 l 1,28,-1
 857 37 l 1,29,-1
 905 37 l 2,30,31
 988 37 988 37 1026 86 c 0,32,33
 1051 118 1051 118 1051 240 c 2,34,-1
 1051 653 l 1,35,-1
 421 653 l 1,36,-1
 421 240 l 2,37,38
 421 137 421 137 434 104 c 0,39,40
 444 79 444 79 476 61 c 0,41,42
 519 37 519 37 567 37 c 2,43,-1
 616 37 l 1,44,-1
 616 0 l 1,45,-1
 35 0 l 1,46,-1
 35 37 l 1,47,-1
 83 37 l 2,48,49
 167 37 167 37 205 86 c 0,50,51
 229 118 229 118 229 240 c 2,52,-1
 229 1115 l 2,53,54
 229 1219 229 1219 216 1252 c 0,55,56
 206 1277 206 1277 175 1295 c 0,57,58
 131 1319 131 1319 83 1319 c 2,59,-1
 35 1319 l 1,60,-1
 35 1356 l 1,61,-1
 616 1356 l 1,62,-1
 616 1319 l 1,63,-1
 567 1319 l 2,64,65
 519 1319 519 1319 476 1296 c 0,66,67
 445 1280 445 1280 433 1247.5 c 128,-1,68
 421 1215 421 1215 421 1115 c 2,69,-1
 421 727 l 1,0,-1
EndSplineSet
Validated: 1
EndChar

StartChar: uniE00D
Encoding: 57357 57357 122
Width: 1479
Flags: W
LayerCount: 2
Back
Fore
SplineSet
1400 686 m 0,0,1
 1400 390 1400 390 1216 184 c 0,2,3
 1025 -31 1025 -31 733 -31 c 0,4,5
 437 -31 437 -31 250 180 c 0,6,7
 72 383 72 383 72 683 c 0,8,9
 72 1006 72 1006 292 1210 c 0,10,11
 483 1387 483 1387 749 1387 c 0,12,13
 1031 1387 1031 1387 1219 1175 c 0,14,15
 1400 972 1400 972 1400 686 c 0,0,1
1170 727 m 1,16,17
 1160 977 1160 977 1071 1126 c 0,18,19
 958 1314 958 1314 730 1314 c 0,20,21
 510 1314 510 1314 398 1122 c 0,22,23
 309 968 309 968 302 727 c 1,24,-1
 1170 727 l 1,16,17
1171 653 m 5,25,-1
 301 653 l 5,26,27
 308 345 308 345 443 176 c 0,28,29
 551 40 551 40 731 40 c 0,30,31
 967 40 967 40 1080 239 c 0,32,33
 1171 399 1171 399 1171 653 c 5,25,-1
EndSplineSet
Validated: 1
EndChar

StartChar: uniE00E
Encoding: 57358 57358 123
Width: 682
Flags: W
LayerCount: 2
Back
Fore
SplineSet
632 37 m 1,0,-1
 632 0 l 1,1,-1
 51 0 l 1,2,-1
 51 37 l 1,3,-1
 99 37 l 2,4,5
 183 37 183 37 221 86 c 0,6,7
 245 118 245 118 245 240 c 2,8,-1
 245 1116 l 2,9,10
 245 1219 245 1219 232 1252 c 0,11,12
 222 1277 222 1277 191 1295 c 0,13,14
 147 1319 147 1319 99 1319 c 2,15,-1
 51 1319 l 1,16,-1
 51 1356 l 1,17,-1
 632 1356 l 1,18,-1
 632 1319 l 1,19,-1
 583 1319 l 2,20,21
 500 1319 500 1319 462 1270 c 0,22,23
 437 1238 437 1238 437 1116 c 2,24,-1
 437 240 l 2,25,26
 437 137 437 137 450 104 c 0,27,28
 460 79 460 79 492 61 c 0,29,30
 535 37 535 37 583 37 c 2,31,-1
 632 37 l 1,0,-1
EndSplineSet
Validated: 1
EndChar

StartChar: uniE00F
Encoding: 57359 57359 124
Width: 797
Flags: W
LayerCount: 2
Back
Fore
SplineSet
204 1319 m 1,0,-1
 204 1356 l 1,1,-1
 785 1356 l 1,2,-1
 785 1319 l 1,3,-1
 736 1319 l 2,4,5
 653 1319 653 1319 615 1270 c 0,6,7
 591 1238 591 1238 591 1116 c 2,8,-1
 591 453 l 2,9,10
 591 300 591 300 557.5 205 c 128,-1,11
 524 110 524 110 442 39.5 c 128,-1,12
 360 -31 360 -31 244 -31 c 0,13,14
 150 -31 150 -31 96 15.5 c 128,-1,15
 42 62 42 62 42 122 c 0,16,17
 42 171 42 171 67 196 c 0,18,19
 100 227 100 227 144 227 c 0,20,21
 176 227 176 227 201.5 206 c 128,-1,22
 227 185 227 185 266 94 c 0,23,24
 289 40 289 40 325 40 c 0,25,26
 352 40 352 40 375.5 73 c 128,-1,27
 399 106 399 106 399 190 c 2,28,-1
 399 1116 l 2,29,30
 399 1219 399 1219 386 1252 c 0,31,32
 376 1277 376 1277 344 1295 c 0,33,34
 301 1319 301 1319 253 1319 c 2,35,-1
 204 1319 l 1,0,-1
EndSplineSet
Validated: 1
EndChar

StartChar: uniE011
Encoding: 57361 57361 125
Width: 1485
Flags: W
LayerCount: 2
Back
Fore
SplineSet
28 0 m 1,0,-1
 28 37 l 1,1,2
 105 49 105 49 146 87 c 128,-1,3
 187 125 187 125 232 233 c 2,4,-1
 705 1387 l 1,5,-1
 742 1387 l 1,6,-1
 1246 227 l 2,7,8
 1297 109 1297 109 1334 74.5 c 128,-1,9
 1371 40 1371 40 1464 37 c 1,10,-1
 1464 0 l 1,11,-1
 911 0 l 1,12,-1
 911 37 l 1,13,14
 1006 45 1006 45 1033.5 69 c 128,-1,15
 1061 93 1061 93 1061 131 c 0,16,17
 1061 178 1061 178 1015 284 c 2,18,-1
 670 1079 l 1,19,-1
 350 294 l 2,20,21
 305 185 305 185 305 134 c 0,22,23
 305 92 305 92 333 67.5 c 128,-1,24
 361 43 361 43 446 37 c 1,25,-1
 446 0 l 1,26,-1
 28 0 l 1,0,-1
EndSplineSet
Validated: 1
EndChar

StartChar: uniE012
Encoding: 57362 57362 126
Width: 1821
VWidth: 0
Flags: W
LayerCount: 2
Back
Fore
SplineSet
838 0 m 1,0,-1
 314 1141 l 1,1,-1
 314 235 l 2,2,3
 314 110 314 110 341 79 c 0,4,5
 378 37 378 37 458 37 c 2,6,-1
 506 37 l 1,7,-1
 506 0 l 1,8,-1
 34 0 l 1,9,-1
 34 37 l 1,10,-1
 82 37 l 2,11,12
 168 37 168 37 204 89 c 0,13,14
 226 121 226 121 226 235 c 2,15,-1
 226 1121 l 2,16,17
 226 1211 226 1211 206 1251 c 0,18,19
 192 1280 192 1280 154.5 1299.5 c 128,-1,20
 117 1319 117 1319 34 1319 c 1,21,-1
 34 1356 l 1,22,-1
 418 1356 l 1,23,-1
 910 295 l 1,24,-1
 1394 1356 l 1,25,-1
 1778 1356 l 1,26,-1
 1778 1319 l 1,27,-1
 1731 1319 l 2,28,29
 1644 1319 1644 1319 1608 1267 c 0,30,31
 1586 1235 1586 1235 1586 1121 c 2,32,-1
 1586 235 l 2,33,34
 1586 110 1586 110 1614 79 c 0,35,36
 1651 37 1651 37 1731 37 c 2,37,-1
 1778 37 l 1,38,-1
 1778 0 l 1,39,-1
 1202 0 l 1,40,-1
 1202 37 l 1,41,-1
 1250 37 l 2,42,43
 1337 37 1337 37 1372 89 c 0,44,45
 1394 121 1394 121 1394 235 c 2,46,-1
 1394 1141 l 1,47,-1
 871 0 l 1,48,-1
 838 0 l 1,0,-1
EndSplineSet
Validated: 1
EndChar

StartChar: uniE013
Encoding: 57363 57363 127
Width: 1479
VWidth: 0
Flags: W
LayerCount: 2
Back
Fore
SplineSet
-27 1356 m 1,0,-1
 341 1356 l 1,1,-1
 1170 339 l 1,2,-1
 1170 1121 l 2,3,4
 1165.5 1230 1165.5 1230 1142 1277 c 0,5,6
 1097.5 1312 1097.5 1312 1025 1319 c 2,7,-1
 978 1319 l 1,8,-1
 978 1356 l 1,9,-1
 1450 1356 l 1,10,-1
 1450 1319 l 1,11,-1
 1402 1319 l 2,12,13
 1324.5 1310.5 1324.5 1310.5 1280 1267 c 0,14,15
 1261.5 1221.5 1261.5 1221.5 1258 1121 c 2,16,-1
 1258 -22 l 1,17,-1
 1222 -22 l 1,18,-1
 328 1070 l 1,19,-1
 328 235 l 2,20,21
 332.5 126 332.5 126 355 79 c 0,22,23
 399.5 44 399.5 44 472 37 c 2,24,-1
 520 37 l 1,25,-1
 520 0 l 1,26,-1
 48 0 l 1,27,-1
 48 37 l 1,28,-1
 95 37 l 2,29,30
 173.5 45.5 173.5 45.5 218 89 c 0,31,32
 236.5 134.5 236.5 134.5 240 235 c 2,33,-1
 240 1178 l 1,34,35
 186 1239 186 1239 150 1269 c 0,36,37
 115 1290.5 115 1290.5 61 1310 c 0,38,39
 27 1317.5 27 1317.5 -27 1319 c 1,40,-1
 -27 1356 l 1,0,-1
EndSplineSet
Validated: 1
EndChar

StartChar: uniE015
Encoding: 57365 57365 128
Width: 1479
Flags: W
LayerCount: 2
Back
Fore
SplineSet
749 1387 m 0,0,1
 1013 1387 1013 1387 1206.5 1186.5 c 128,-1,2
 1400 986 1400 986 1400 686 c 0,3,4
 1400 377 1400 377 1205 173 c 128,-1,5
 1010 -31 1010 -31 733 -31 c 0,6,7
 453 -31 453 -31 262.5 168 c 128,-1,8
 72 367 72 367 72 683 c 0,9,10
 72 1006 72 1006 292 1210 c 0,11,12
 483 1387 483 1387 749 1387 c 0,0,1
730 1314 m 0,13,14
 548 1314 548 1314 438 1179 c 0,15,16
 301 1011 301 1011 301 687 c 0,17,18
 301 355 301 355 443 176 c 0,19,20
 552 40 552 40 731 40 c 0,21,22
 922 40 922 40 1046.5 189 c 128,-1,23
 1171 338 1171 338 1171 659 c 0,24,25
 1171 1007 1171 1007 1034 1178 c 0,26,27
 924 1314 924 1314 730 1314 c 0,13,14
EndSplineSet
Validated: 1
EndChar

StartChar: uniE016
Encoding: 57366 57366 129
Width: 1479
Flags: W
LayerCount: 2
Back
Fore
SplineSet
1054 1282 m 1,0,-1
 425 1282 l 1,1,-1
 425 247 l 2,2,3
 425 113 425 113 459.5 77 c 128,-1,4
 494 41 494 41 621 37 c 1,5,-1
 621 0 l 1,6,-1
 37 0 l 1,7,-1
 37 37 l 1,8,9
 163 41 163 41 198 77 c 128,-1,10
 233 113 233 113 233 247 c 2,11,-1
 233 1109 l 2,12,13
 233 1243 233 1243 198 1279 c 128,-1,14
 163 1315 163 1315 37 1319 c 1,15,-1
 37 1356 l 1,16,-1
 1442 1356 l 1,17,-1
 1442 1319 l 1,18,19
 1316 1315 1316 1315 1281 1279 c 128,-1,20
 1246 1243 1246 1243 1246 1109 c 2,21,-1
 1246 247 l 2,22,23
 1246 113 1246 113 1281 77 c 128,-1,24
 1316 41 1316 41 1442 37 c 1,25,-1
 1442 0 l 1,26,-1
 859 0 l 1,27,-1
 859 37 l 1,28,29
 984 41 984 41 1019 76.5 c 128,-1,30
 1054 112 1054 112 1054 247 c 2,31,-1
 1054 1282 l 1,0,-1
EndSplineSet
Validated: 1
EndChar

StartChar: uniE018
Encoding: 57368 57368 130
Width: 1139
Flags: W
LayerCount: 2
Back
Fore
SplineSet
420 635 m 1,0,-1
 420 240 l 2,1,2
 420 112 420 112 448 81 c 0,3,4
 486 37 486 37 563 37 c 2,5,-1
 615 37 l 1,6,-1
 615 0 l 1,7,-1
 34 0 l 1,8,-1
 34 37 l 1,9,-1
 85 37 l 2,10,11
 171 37 171 37 208 93 c 0,12,13
 228 124 228 124 228 240 c 2,14,-1
 228 1116 l 2,15,16
 228 1244 228 1244 201 1275 c 0,17,18
 162 1319 162 1319 85 1319 c 2,19,-1
 34 1319 l 1,20,-1
 34 1356 l 1,21,-1
 531 1356 l 2,22,23
 713 1356 713 1356 818 1318.5 c 128,-1,24
 923 1281 923 1281 995 1192 c 128,-1,25
 1067 1103 1067 1103 1067 981 c 0,26,27
 1067 815 1067 815 957.5 711 c 128,-1,28
 848 607 848 607 648 607 c 0,29,30
 599 607 599 607 542 614 c 128,-1,31
 485 621 485 621 420 635 c 1,0,-1
420 692 m 1,32,33
 473 682 473 682 514 677 c 128,-1,34
 555 672 555 672 584 672 c 0,35,36
 688 672 688 672 763.5 752.5 c 128,-1,37
 839 833 839 833 839 961 c 0,38,39
 839 1049 839 1049 803 1124.5 c 128,-1,40
 767 1200 767 1200 701 1237.5 c 128,-1,41
 635 1275 635 1275 551 1275 c 0,42,43
 500 1275 500 1275 420 1256 c 1,44,-1
 420 692 l 1,32,33
EndSplineSet
Validated: 1
EndChar

StartChar: uniE01A
Encoding: 57370 57370 131
Width: 1251
Flags: W
LayerCount: 2
Back
Fore
SplineSet
1185 1356 m 1,0,-1
 1200 1038 l 1,1,-1
 1162 1038 l 1,2,3
 1151 1122 1151 1122 1132 1158 c 0,4,5
 1101 1216 1101 1216 1049.5 1243.5 c 128,-1,6
 998 1271 998 1271 914 1271 c 2,7,-1
 723 1271 l 1,8,-1
 723 235 l 2,9,10
 723 110 723 110 750 79 c 0,11,12
 788 37 788 37 867 37 c 2,13,-1
 914 37 l 1,14,-1
 914 0 l 1,15,-1
 339 0 l 1,16,-1
 339 37 l 1,17,-1
 387 37 l 2,18,19
 473 37 473 37 509 89 c 0,20,21
 531 121 531 121 531 235 c 2,22,-1
 531 1271 l 1,23,-1
 368 1271 l 2,24,25
 273 1271 273 1271 233 1257 c 0,26,27
 181 1238 181 1238 144 1184 c 128,-1,28
 107 1130 107 1130 100 1038 c 1,29,-1
 62 1038 l 1,30,-1
 78 1356 l 1,31,-1
 1185 1356 l 1,0,-1
EndSplineSet
Validated: 1
EndChar

StartChar: uniE01B
Encoding: 57371 57371 132
Width: 1479
VWidth: 0
Flags: W
LayerCount: 2
Back
Fore
SplineSet
976 1356 m 1,0,-1
 1449 1356 l 1,1,-1
 1449 1319 l 1,2,-1
 1423 1319 l 2,3,4
 1393 1315 1393 1315 1347 1296 c 0,5,6
 1298.5 1270 1298.5 1270 1256 1230 c 0,7,8
 1212 1178 1212 1178 1155 1090 c 2,9,-1
 828 575 l 1,10,-1
 828 235 l 2,11,12
 832.5 126 832.5 126 856 79 c 0,13,14
 901 44 901 44 976 37 c 2,15,-1
 1020 37 l 1,16,-1
 1020 0 l 1,17,-1
 444 0 l 1,18,-1
 444 37 l 1,19,-1
 492 37 l 2,20,21
 569.5 45.5 569.5 45.5 614 89 c 0,22,23
 632.5 134.5 632.5 134.5 636 235 c 2,24,-1
 636 556 l 1,25,-1
 264 1124 l 2,26,27
 205 1211.5 205 1211.5 174 1249 c 0,28,29
 142.5 1276 142.5 1276 77 1309 c 0,30,31
 54 1317.5 54 1317.5 19 1319 c 1,32,-1
 19 1356 l 1,33,-1
 599 1356 l 1,34,-1
 599 1319 l 1,35,-1
 569 1319 l 2,36,37
 523.5 1315.5 523.5 1315.5 482 1297 c 0,38,39
 449.5 1271 449.5 1271 443 1231 c 0,40,41
 453 1185.5 453 1185.5 504 1101 c 2,42,-1
 787 664 l 1,43,-1
 1053 1082 l 2,44,45
 1103 1168 1103 1168 1113 1222 c 0,46,47
 1110.5 1249 1110.5 1249 1098 1272 c 0,48,49
 1082 1292.5 1082 1292.5 1057 1306 c 0,50,51
 1025.5 1317 1025.5 1317 976 1319 c 1,52,-1
 976 1356 l 1,0,-1
EndSplineSet
Validated: 1
EndChar

StartChar: uniE01D
Encoding: 57373 57373 133
Width: 1497
VWidth: 0
Flags: W
LayerCount: 2
Back
Fore
SplineSet
844 191 m 1,0,1
 885 62.5 885 62.5 1036 37 c 1,2,-1
 1036 0 l 1,3,-1
 460 0 l 1,4,-1
 460 37 l 1,5,6
 611 62.5 611 62.5 652 191 c 1,7,8
 405.5 214.5 405.5 214.5 230 333 c 0,9,10
 97.5 485.5 97.5 485.5 71 678 c 0,11,12
 98 880.5 98 880.5 232 1024 c 0,13,14
 409 1134.5 409 1134.5 652 1165 c 1,15,16
 612 1293.5 612 1293.5 460 1319 c 1,17,-1
 460 1356 l 1,18,-1
 1036 1356 l 1,19,-1
 1036 1319 l 1,20,21
 885 1293.5 885 1293.5 844 1165 c 1,22,23
 1107 1134 1107 1134 1278 1014 c 0,24,25
 1400.5 864 1400.5 864 1425 678 c 0,26,27
 1398.5 485.5 1398.5 485.5 1267 333 c 0,28,29
 1091.5 214.5 1091.5 214.5 844 191 c 1,0,1
652 1110 m 1,30,31
 493.5 1085.5 493.5 1085.5 384 1004 c 0,32,33
 303 882 303 882 287 661 c 0,34,35
 348 329 348 329 652 246 c 1,36,-1
 652 1110 l 1,30,31
844 1110 m 1,37,-1
 844 246 l 1,38,39
 998 268 998 268 1110 348 c 0,40,41
 1193 469 1193 469 1210 694 c 0,42,43
 1149 1026.5 1149 1026.5 844 1110 c 1,37,-1
EndSplineSet
Validated: 1
EndChar

StartChar: uniE024
Encoding: 57380 57380 134
Width: 1479
VWidth: 0
Flags: W
LayerCount: 2
Back
Fore
SplineSet
749 1387 m 0,0,1
 1013 1387 1013 1387 1206.5 1186.5 c 128,-1,2
 1400 986 1400 986 1400 686 c 0,3,4
 1400 377 1400 377 1205 173 c 128,-1,5
 1010 -31 1010 -31 733 -31 c 0,6,7
 453 -31 453 -31 262.5 168 c 128,-1,8
 72 367 72 367 72 683 c 0,9,10
 72 1006 72 1006 292 1210 c 0,11,12
 483 1387 483 1387 749 1387 c 0,0,1
730 1314 m 0,13,14
 548 1314 548 1314 438 1179 c 0,15,16
 301 1011 301 1011 301 687 c 0,17,18
 301 355 301 355 443 176 c 0,19,20
 552 40 552 40 731 40 c 0,21,22
 922 40 922 40 1046.5 189 c 128,-1,23
 1171 338 1171 338 1171 659 c 0,24,25
 1171 1007 1171 1007 1034 1178 c 0,26,27
 924 1314 924 1314 730 1314 c 0,13,14
957 1797 m 1,28,-1
 662 1452 l 1,29,-1
 628 1452 l 1,30,-1
 733 1797 l 1,31,-1
 957 1797 l 1,28,-1
EndSplineSet
Validated: 1
EndChar

StartChar: uniE025
Encoding: 57381 57381 135
Width: 1479
VWidth: 0
Flags: W
LayerCount: 2
Back
Fore
SplineSet
976 1356 m 1,0,-1
 1449 1356 l 1,1,-1
 1449 1319 l 1,2,-1
 1423 1319 l 2,3,4
 1393 1315 1393 1315 1347 1296 c 0,5,6
 1298.5 1270 1298.5 1270 1256 1230 c 0,7,8
 1212 1178 1212 1178 1155 1090 c 2,9,-1
 828 575 l 1,10,-1
 828 235 l 2,11,12
 832.5 126 832.5 126 856 79 c 0,13,14
 901 44 901 44 976 37 c 2,15,-1
 1020 37 l 1,16,-1
 1020 0 l 1,17,-1
 444 0 l 1,18,-1
 444 37 l 1,19,-1
 492 37 l 2,20,21
 569.5 45.5 569.5 45.5 614 89 c 0,22,23
 632.5 134.5 632.5 134.5 636 235 c 2,24,-1
 636 556 l 1,25,-1
 264 1124 l 2,26,27
 205 1211.5 205 1211.5 174 1249 c 0,28,29
 142.5 1276 142.5 1276 77 1309 c 0,30,31
 54 1317.5 54 1317.5 19 1319 c 1,32,-1
 19 1356 l 1,33,-1
 599 1356 l 1,34,-1
 599 1319 l 1,35,-1
 569 1319 l 2,36,37
 523.5 1315.5 523.5 1315.5 482 1297 c 0,38,39
 449.5 1271 449.5 1271 443 1231 c 0,40,41
 453 1185.5 453 1185.5 504 1101 c 2,42,-1
 787 664 l 1,43,-1
 1053 1082 l 2,44,45
 1103 1168 1103 1168 1113 1222 c 0,46,47
 1110.5 1249 1110.5 1249 1098 1272 c 0,48,49
 1082 1292.5 1082 1292.5 1057 1306 c 0,50,51
 1025.5 1317 1025.5 1317 976 1319 c 1,52,-1
 976 1356 l 1,0,-1
996 1797 m 1,53,-1
 701 1452 l 1,54,-1
 667 1452 l 1,55,-1
 772 1797 l 1,56,-1
 996 1797 l 1,53,-1
EndSplineSet
Validated: 1
EndChar

StartChar: P
Encoding: 80 80 136
Width: 1139
VWidth: 0
Flags: W
LayerCount: 2
Back
Fore
SplineSet
420 635 m 1,0,-1
 420 240 l 2,1,2
 420 112 420 112 448 81 c 0,3,4
 486 37 486 37 563 37 c 2,5,-1
 615 37 l 1,6,-1
 615 0 l 1,7,-1
 34 0 l 1,8,-1
 34 37 l 1,9,-1
 85 37 l 2,10,11
 171 37 171 37 208 93 c 0,12,13
 228 124 228 124 228 240 c 2,14,-1
 228 1116 l 2,15,16
 228 1244 228 1244 201 1275 c 0,17,18
 162 1319 162 1319 85 1319 c 2,19,-1
 34 1319 l 1,20,-1
 34 1356 l 1,21,-1
 531 1356 l 2,22,23
 713 1356 713 1356 818 1318.5 c 128,-1,24
 923 1281 923 1281 995 1192 c 128,-1,25
 1067 1103 1067 1103 1067 981 c 0,26,27
 1067 815 1067 815 957.5 711 c 128,-1,28
 848 607 848 607 648 607 c 0,29,30
 599 607 599 607 542 614 c 128,-1,31
 485 621 485 621 420 635 c 1,0,-1
420 692 m 1,32,33
 473 682 473 682 514 677 c 128,-1,34
 555 672 555 672 584 672 c 0,35,36
 688 672 688 672 763.5 752.5 c 128,-1,37
 839 833 839 833 839 961 c 0,38,39
 839 1049 839 1049 803 1124.5 c 128,-1,40
 767 1200 767 1200 701 1237.5 c 128,-1,41
 635 1275 635 1275 551 1275 c 0,42,43
 500 1275 500 1275 420 1256 c 1,44,-1
 420 692 l 1,32,33
EndSplineSet
Validated: 1
EndChar

StartChar: Q
Encoding: 81 81 137
Width: 1479
VWidth: 0
Flags: W
LayerCount: 2
Back
Fore
SplineSet
902 -15 m 1,0,1
 1004 -191 1004 -191 1122.5 -274 c 128,-1,2
 1241 -357 1241 -357 1392 -369 c 1,3,-1
 1392 -401 l 1,4,5
 1254 -396 1254 -396 1097 -345.5 c 128,-1,6
 940 -295 940 -295 799.5 -205.5 c 128,-1,7
 659 -116 659 -116 557 -15 c 1,8,9
 413 43 413 43 329 108 c 0,10,11
 207 205 207 205 139.5 346.5 c 128,-1,12
 72 488 72 488 72 681 c 0,13,14
 72 985 72 985 269 1186 c 128,-1,15
 466 1387 466 1387 746 1387 c 0,16,17
 1012 1387 1012 1387 1206.5 1185.5 c 128,-1,18
 1401 984 1401 984 1401 677 c 0,19,20
 1401 428 1401 428 1262.5 240 c 128,-1,21
 1124 52 1124 52 902 -15 c 1,0,1
734 1310 m 0,22,23
 552 1310 552 1310 441 1180 c 0,24,25
 301 1017 301 1017 301 681 c 0,26,27
 301 352 301 352 443 174 c 0,28,29
 553 37 553 37 734 37 c 0,30,31
 922 37 922 37 1037 174 c 0,32,33
 1172 336 1172 336 1172 652 c 0,34,35
 1172 895 1172 895 1098 1061 c 0,36,37
 1041 1189 1041 1189 946.5 1249.5 c 128,-1,38
 852 1310 852 1310 734 1310 c 0,22,23
EndSplineSet
Validated: 1
EndChar

StartChar: R
Encoding: 82 82 138
Width: 1366
VWidth: 0
Flags: W
LayerCount: 2
Back
Fore
SplineSet
1384 0 m 1,0,-1
 1022 0 l 1,1,-1
 563 634 l 1,2,3
 512 632 512 632 480 632 c 0,4,5
 467 632 467 632 452 632.5 c 128,-1,6
 437 633 437 633 421 634 c 1,7,-1
 421 240 l 2,8,9
 421 112 421 112 449 81 c 0,10,11
 487 37 487 37 563 37 c 2,12,-1
 616 37 l 1,13,-1
 616 0 l 1,14,-1
 35 0 l 1,15,-1
 35 37 l 1,16,-1
 86 37 l 2,17,18
 172 37 172 37 209 93 c 0,19,20
 230 124 230 124 230 240 c 2,21,-1
 230 1116 l 2,22,23
 230 1244 230 1244 202 1275 c 0,24,25
 163 1319 163 1319 86 1319 c 2,26,-1
 35 1319 l 1,27,-1
 35 1356 l 1,28,-1
 529 1356 l 2,29,30
 745 1356 745 1356 847.5 1324.5 c 128,-1,31
 950 1293 950 1293 1021.5 1208.5 c 128,-1,32
 1093 1124 1093 1124 1093 1007 c 0,33,34
 1093 882 1093 882 1011.5 790 c 128,-1,35
 930 698 930 698 759 660 c 1,36,-1
 1039 271 l 2,37,38
 1135 137 1135 137 1204 93 c 128,-1,39
 1273 49 1273 49 1384 37 c 1,40,-1
 1384 0 l 1,0,-1
421 697 m 1,41,42
 440 697 440 697 454 696.5 c 128,-1,43
 468 696 468 696 477 696 c 0,44,45
 671 696 671 696 769.5 780 c 128,-1,46
 868 864 868 864 868 994 c 0,47,48
 868 1121 868 1121 788.5 1200.5 c 128,-1,49
 709 1280 709 1280 578 1280 c 0,50,51
 520 1280 520 1280 421 1261 c 1,52,-1
 421 697 l 1,41,42
EndSplineSet
Validated: 1
EndChar

StartChar: S
Encoding: 83 83 139
Width: 1139
VWidth: 0
Flags: W
LayerCount: 2
Back
Fore
SplineSet
939 1387 m 1,0,-1
 939 918 l 1,1,-1
 902 918 l 1,2,3
 884 1053 884 1053 837.5 1133 c 128,-1,4
 791 1213 791 1213 705 1260 c 128,-1,5
 619 1307 619 1307 527 1307 c 0,6,7
 423 1307 423 1307 355 1243.5 c 128,-1,8
 287 1180 287 1180 287 1099 c 0,9,10
 287 1037 287 1037 330 986 c 0,11,12
 392 911 392 911 625 786 c 0,13,14
 815 684 815 684 884.5 629.5 c 128,-1,15
 954 575 954 575 991.5 501 c 128,-1,16
 1029 427 1029 427 1029 346 c 0,17,18
 1029 192 1029 192 909.5 80.5 c 128,-1,19
 790 -31 790 -31 602 -31 c 0,20,21
 543 -31 543 -31 491 -22 c 0,22,23
 460 -17 460 -17 362.5 14.5 c 128,-1,24
 265 46 265 46 239 46 c 0,25,26
 214 46 214 46 199.5 31 c 128,-1,27
 185 16 185 16 178 -31 c 1,28,-1
 141 -31 l 1,29,-1
 141 434 l 1,30,-1
 178 434 l 1,31,32
 204 288 204 288 248 215.5 c 128,-1,33
 292 143 292 143 382.5 95 c 128,-1,34
 473 47 473 47 581 47 c 0,35,36
 706 47 706 47 778.5 113 c 128,-1,37
 851 179 851 179 851 269 c 0,38,39
 851 319 851 319 823.5 370 c 128,-1,40
 796 421 796 421 738 465 c 0,41,42
 699 495 699 495 525 592.5 c 128,-1,43
 351 690 351 690 277.5 748 c 128,-1,44
 204 806 204 806 166 876 c 128,-1,45
 128 946 128 946 128 1030 c 0,46,47
 128 1176 128 1176 240 1281.5 c 128,-1,48
 352 1387 352 1387 525 1387 c 0,49,50
 633 1387 633 1387 754 1334 c 0,51,52
 810 1309 810 1309 833 1309 c 0,53,54
 859 1309 859 1309 875.5 1324.5 c 128,-1,55
 892 1340 892 1340 902 1387 c 1,56,-1
 939 1387 l 1,0,-1
EndSplineSet
Validated: 1
EndChar

StartChar: T
Encoding: 84 84 140
Width: 1251
VWidth: 0
Flags: W
LayerCount: 2
Back
Fore
SplineSet
1185 1356 m 1,0,-1
 1200 1038 l 1,1,-1
 1162 1038 l 1,2,3
 1151 1122 1151 1122 1132 1158 c 0,4,5
 1101 1216 1101 1216 1049.5 1243.5 c 128,-1,6
 998 1271 998 1271 914 1271 c 2,7,-1
 723 1271 l 1,8,-1
 723 235 l 2,9,10
 723 110 723 110 750 79 c 0,11,12
 788 37 788 37 867 37 c 2,13,-1
 914 37 l 1,14,-1
 914 0 l 1,15,-1
 339 0 l 1,16,-1
 339 37 l 1,17,-1
 387 37 l 2,18,19
 473 37 473 37 509 89 c 0,20,21
 531 121 531 121 531 235 c 2,22,-1
 531 1271 l 1,23,-1
 368 1271 l 2,24,25
 273 1271 273 1271 233 1257 c 0,26,27
 181 1238 181 1238 144 1184 c 128,-1,28
 107 1130 107 1130 100 1038 c 1,29,-1
 62 1038 l 1,30,-1
 78 1356 l 1,31,-1
 1185 1356 l 1,0,-1
EndSplineSet
Validated: 1
EndChar

StartChar: U
Encoding: 85 85 141
Width: 1479
VWidth: 0
Flags: W
LayerCount: 2
Back
Fore
SplineSet
977 1319 m 1,0,-1
 977 1356 l 1,1,-1
 1457 1356 l 1,2,-1
 1457 1319 l 1,3,-1
 1406 1319 l 2,4,5
 1326 1319 1326 1319 1283 1252 c 0,6,7
 1262 1221 1262 1221 1262 1108 c 2,8,-1
 1262 558 l 2,9,10
 1262 354 1262 354 1221.5 241.5 c 128,-1,11
 1181 129 1181 129 1062.5 48.5 c 128,-1,12
 944 -32 944 -32 740 -32 c 0,13,14
 518 -32 518 -32 403 45 c 128,-1,15
 288 122 288 122 240 252 c 0,16,17
 208 341 208 341 208 586 c 2,18,-1
 208 1116 l 2,19,20
 208 1241 208 1241 173.5 1280 c 128,-1,21
 139 1319 139 1319 62 1319 c 2,22,-1
 11 1319 l 1,23,-1
 11 1356 l 1,24,-1
 597 1356 l 1,25,-1
 597 1319 l 1,26,-1
 545 1319 l 2,27,28
 461 1319 461 1319 425 1266 c 0,29,30
 400 1230 400 1230 400 1116 c 2,31,-1
 400 525 l 2,32,33
 400 446 400 446 414.5 344 c 128,-1,34
 429 242 429 242 467 185 c 128,-1,35
 505 128 505 128 576.5 91 c 128,-1,36
 648 54 648 54 752 54 c 0,37,38
 885 54 885 54 990 112 c 128,-1,39
 1095 170 1095 170 1133.5 260.5 c 128,-1,40
 1172 351 1172 351 1172 567 c 2,41,-1
 1172 1116 l 2,42,43
 1172 1243 1172 1243 1144 1275 c 0,44,45
 1105 1319 1105 1319 1028 1319 c 2,46,-1
 977 1319 l 1,0,-1
EndSplineSet
Validated: 1
EndChar

StartChar: V
Encoding: 86 86 142
Width: 1479
VWidth: 0
Flags: W
LayerCount: 2
Back
Fore
SplineSet
1454 1356 m 1,0,-1
 1454 1319 l 1,1,2
 1382 1306 1382 1306 1345 1273 c 0,3,4
 1292 1224 1292 1224 1251 1123 c 2,5,-1
 778 -31 l 1,6,-1
 741 -31 l 1,7,-1
 233 1138 l 2,8,9
 194 1228 194 1228 178 1248 c 0,10,11
 153 1279 153 1279 116.5 1296.5 c 128,-1,12
 80 1314 80 1314 18 1319 c 1,13,-1
 18 1356 l 1,14,-1
 572 1356 l 1,15,-1
 572 1319 l 1,16,17
 478 1310 478 1310 450 1287 c 128,-1,18
 422 1264 422 1264 422 1228 c 0,19,20
 422 1178 422 1178 468 1072 c 2,21,-1
 813 277 l 1,22,-1
 1133 1062 l 2,23,24
 1180 1178 1180 1178 1180 1223 c 0,25,26
 1180 1252 1180 1252 1151 1278.5 c 128,-1,27
 1122 1305 1122 1305 1053 1316 c 0,28,29
 1048 1317 1048 1317 1036 1319 c 1,30,-1
 1036 1356 l 1,31,-1
 1454 1356 l 1,0,-1
EndSplineSet
Validated: 1
EndChar

StartChar: W
Encoding: 87 87 143
Width: 1933
VWidth: 0
Flags: W
LayerCount: 2
Back
Fore
SplineSet
1917 1356 m 1,0,-1
 1917 1319 l 1,1,2
 1864 1319 1864 1319 1831 1300 c 128,-1,3
 1798 1281 1798 1281 1768 1229 c 0,4,5
 1748 1194 1748 1194 1705 1062 c 2,6,-1
 1327 -31 l 1,7,-1
 1287 -31 l 1,8,-1
 978 836 l 1,9,-1
 671 -31 l 1,10,-1
 635 -31 l 1,11,-1
 232 1095 l 2,12,13
 187 1221 187 1221 175 1244 c 0,14,15
 155 1282 155 1282 120.5 1300.5 c 128,-1,16
 86 1319 86 1319 27 1319 c 1,17,-1
 27 1356 l 1,18,-1
 529 1356 l 1,19,-1
 529 1319 l 1,20,-1
 505 1319 l 2,21,22
 452 1319 452 1319 424 1295 c 128,-1,23
 396 1271 396 1271 396 1237 c 0,24,25
 396 1202 396 1202 440 1076 c 2,26,-1
 707 315 l 1,27,-1
 932 962 l 1,28,-1
 892 1076 l 1,29,-1
 860 1167 l 2,30,31
 839 1217 839 1217 813 1255 c 0,32,33
 800 1274 800 1274 781 1287 c 0,34,35
 756 1305 756 1305 731 1313 c 0,36,37
 712 1319 712 1319 671 1319 c 1,38,-1
 671 1356 l 1,39,-1
 1199 1356 l 1,40,-1
 1199 1319 l 1,41,-1
 1163 1319 l 2,42,43
 1107 1319 1107 1319 1081 1295 c 128,-1,44
 1055 1271 1055 1271 1055 1230 c 0,45,46
 1055 1179 1055 1179 1100 1052 c 2,47,-1
 1360 315 l 1,48,-1
 1618 1062 l 2,49,50
 1662 1186 1662 1186 1662 1234 c 0,51,52
 1662 1257 1662 1257 1647.5 1277 c 128,-1,53
 1633 1297 1633 1297 1611 1305 c 0,54,55
 1573 1319 1573 1319 1512 1319 c 1,56,-1
 1512 1356 l 1,57,-1
 1917 1356 l 1,0,-1
EndSplineSet
Validated: 1
EndChar

StartChar: Z
Encoding: 90 90 144
Width: 1251
VWidth: 0
Flags: W
LayerCount: 2
Back
Fore
SplineSet
1178 1356 m 1,0,-1
 287 82 l 1,1,-1
 843 82 l 2,2,3
 971 82 971 82 1039.5 138 c 128,-1,4
 1108 194 1108 194 1161 365 c 1,5,-1
 1194 359 l 1,6,-1
 1130 0 l 1,7,-1
 26 0 l 1,8,-1
 26 37 l 1,9,-1
 896 1275 l 1,10,-1
 462 1275 l 2,11,12
 354 1275 354 1275 305.5 1251.5 c 128,-1,13
 257 1228 257 1228 231.5 1183.5 c 128,-1,14
 206 1139 206 1139 185 1017 c 1,15,-1
 147 1017 l 1,16,-1
 175 1356 l 1,17,-1
 1178 1356 l 1,0,-1
EndSplineSet
Validated: 1
EndChar

StartChar: Y
Encoding: 89 89 145
Width: 1479
VWidth: 0
Flags: W
LayerCount: 2
Back
Fore
SplineSet
976 1356 m 1,0,-1
 1449 1356 l 1,1,-1
 1449 1319 l 1,2,-1
 1423 1319 l 2,3,4
 1397 1319 1397 1319 1347 1296 c 128,-1,5
 1297 1273 1297 1273 1256 1230 c 128,-1,6
 1215 1187 1215 1187 1155 1090 c 2,7,-1
 828 575 l 1,8,-1
 828 235 l 2,9,10
 828 110 828 110 856 79 c 0,11,12
 894 37 894 37 976 37 c 2,13,-1
 1020 37 l 1,14,-1
 1020 0 l 1,15,-1
 444 0 l 1,16,-1
 444 37 l 1,17,-1
 492 37 l 2,18,19
 578 37 578 37 614 89 c 0,20,21
 636 121 636 121 636 235 c 2,22,-1
 636 556 l 1,23,-1
 264 1124 l 2,24,25
 198 1224 198 1224 174.5 1249 c 128,-1,26
 151 1274 151 1274 77 1309 c 0,27,28
 57 1319 57 1319 19 1319 c 1,29,-1
 19 1356 l 1,30,-1
 599 1356 l 1,31,-1
 599 1319 l 1,32,-1
 569 1319 l 2,33,34
 522 1319 522 1319 482.5 1297 c 128,-1,35
 443 1275 443 1275 443 1231 c 0,36,37
 443 1195 443 1195 504 1101 c 2,38,-1
 787 664 l 1,39,-1
 1053 1082 l 2,40,41
 1113 1176 1113 1176 1113 1222 c 0,42,43
 1113 1250 1113 1250 1098.5 1272 c 128,-1,44
 1084 1294 1084 1294 1057 1306.5 c 128,-1,45
 1030 1319 1030 1319 976 1319 c 1,46,-1
 976 1356 l 1,0,-1
EndSplineSet
Validated: 1
EndChar

StartChar: X
Encoding: 88 88 146
Width: 1479
VWidth: 0
Flags: W
LayerCount: 2
Back
Fore
SplineSet
836 751 m 1,0,-1
 1127 317 l 2,1,2
 1248 137 1248 137 1306.5 89.5 c 128,-1,3
 1365 42 1365 42 1455 37 c 1,4,-1
 1455 0 l 1,5,-1
 873 0 l 1,6,-1
 873 37 l 1,7,8
 931 38 931 38 959 49 c 0,9,10
 980 58 980 58 993.5 76.5 c 128,-1,11
 1007 95 1007 95 1007 114 c 0,12,13
 1007 137 1007 137 998 160 c 0,14,15
 991 177 991 177 943 248 c 2,16,-1
 713 596 l 1,17,-1
 429 232 l 2,18,19
 384 174 384 174 375 154.5 c 128,-1,20
 366 135 366 135 366 114 c 0,21,22
 366 82 366 82 393 61 c 128,-1,23
 420 40 420 40 496 37 c 1,24,-1
 496 0 l 1,25,-1
 15 0 l 1,26,-1
 15 37 l 1,27,28
 66 42 66 42 103 58 c 0,29,30
 165 84 165 84 221 128 c 128,-1,31
 277 172 277 172 349 263 c 2,32,-1
 669 667 l 1,33,-1
 402 1058 l 2,34,35
 293 1217 293 1217 217 1266.5 c 128,-1,36
 141 1316 141 1316 42 1319 c 1,37,-1
 42 1356 l 1,38,-1
 669 1356 l 1,39,-1
 669 1319 l 1,40,41
 589 1316 589 1316 559.5 1293 c 128,-1,42
 530 1270 530 1270 530 1242 c 0,43,44
 530 1205 530 1205 578 1134 c 2,45,-1
 786 823 l 1,46,-1
 1027 1128 l 2,47,48
 1069 1182 1069 1182 1078.5 1202 c 128,-1,49
 1088 1222 1088 1222 1088 1243 c 128,-1,50
 1088 1264 1088 1264 1076 1280 c 0,51,52
 1061 1301 1061 1301 1038 1309.5 c 128,-1,53
 1015 1318 1015 1318 943 1319 c 1,54,-1
 943 1356 l 1,55,-1
 1424 1356 l 1,56,-1
 1424 1319 l 1,57,58
 1367 1316 1367 1316 1331 1301 c 0,59,60
 1277 1278 1277 1278 1232 1239 c 128,-1,61
 1187 1200 1187 1200 1105 1095 c 2,62,-1
 836 751 l 1,0,-1
EndSplineSet
Validated: 1
EndChar

StartChar: a
Encoding: 97 97 147
Width: 909
VWidth: 0
Flags: W
LayerCount: 2
Back
Fore
SplineSet
583 132 m 1,0,1
 442 23 442 23 406 6 c 0,2,3
 352 -19 352 -19 291 -19 c 0,4,5
 196 -19 196 -19 134.5 46 c 128,-1,6
 73 111 73 111 73 217 c 0,7,8
 73 284 73 284 103 333 c 0,9,10
 144 401 144 401 245.5 461 c 128,-1,11
 347 521 347 521 583 607 c 1,12,-1
 583 643 l 2,13,14
 583 780 583 780 539.5 831 c 128,-1,15
 496 882 496 882 413 882 c 0,16,17
 350 882 350 882 313 848 c 0,18,19
 275 814 275 814 275 770 c 2,20,-1
 277 712 l 2,21,22
 277 666 277 666 253.5 641 c 128,-1,23
 230 616 230 616 192 616 c 0,24,25
 155 616 155 616 131.5 642 c 128,-1,26
 108 668 108 668 108 713 c 0,27,28
 108 799 108 799 196 871 c 128,-1,29
 284 943 284 943 443 943 c 0,30,31
 565 943 565 943 643 902 c 0,32,33
 702 871 702 871 730 805 c 0,34,35
 748 762 748 762 748 629 c 2,36,-1
 748 318 l 2,37,38
 748 187 748 187 753 157.5 c 128,-1,39
 758 128 758 128 769.5 118 c 128,-1,40
 781 108 781 108 796 108 c 0,41,42
 812 108 812 108 824 115 c 0,43,44
 845 128 845 128 905 188 c 1,45,-1
 905 132 l 1,46,47
 793 -18 793 -18 691 -18 c 0,48,49
 642 -18 642 -18 613 16 c 128,-1,50
 584 50 584 50 583 132 c 1,0,1
583 197 m 1,51,-1
 583 546 l 1,52,53
 432 486 432 486 388 461 c 0,54,55
 309 417 309 417 275 369 c 128,-1,56
 241 321 241 321 241 264 c 0,57,58
 241 192 241 192 284 144.5 c 128,-1,59
 327 97 327 97 383 97 c 0,60,61
 459 97 459 97 583 197 c 1,51,-1
EndSplineSet
Validated: 1
EndChar

StartChar: b
Encoding: 98 98 148
Width: 1024
VWidth: 0
Flags: W
LayerCount: 2
Back
Fore
SplineSet
315 758 m 1,0,1
 448 943 448 943 602 943 c 0,2,3
 743 943 743 943 848 822.5 c 128,-1,4
 953 702 953 702 953 493 c 0,5,6
 953 249 953 249 791 100 c 0,7,8
 652 -28 652 -28 481 -28 c 0,9,10
 401 -28 401 -28 318.5 1 c 128,-1,11
 236 30 236 30 150 88 c 1,12,-1
 150 1037 l 2,13,14
 150 1193 150 1193 142.5 1229 c 128,-1,15
 135 1265 135 1265 119 1278 c 128,-1,16
 103 1291 103 1291 79 1291 c 0,17,18
 51 1291 51 1291 9 1275 c 1,19,-1
 -5 1310 l 1,20,-1
 270 1422 l 1,21,-1
 315 1422 l 1,22,-1
 315 758 l 1,0,1
315 694 m 1,23,-1
 315 146 l 1,24,25
 366 96 366 96 420.5 70.5 c 128,-1,26
 475 45 475 45 532 45 c 0,27,28
 623 45 623 45 701.5 145 c 128,-1,29
 780 245 780 245 780 436 c 0,30,31
 780 612 780 612 701.5 706.5 c 128,-1,32
 623 801 623 801 523 801 c 0,33,34
 470 801 470 801 417 774 c 0,35,36
 377 754 377 754 315 694 c 1,23,-1
EndSplineSet
Validated: 1
EndChar

StartChar: c
Encoding: 99 99 149
Width: 909
VWidth: 0
Flags: W
LayerCount: 2
Back
Fore
SplineSet
842 348 m 1,0,1
 805 167 805 167 697 69.5 c 128,-1,2
 589 -28 589 -28 458 -28 c 0,3,4
 302 -28 302 -28 186 103 c 128,-1,5
 70 234 70 234 70 457 c 0,6,7
 70 673 70 673 198.5 808 c 128,-1,8
 327 943 327 943 507 943 c 0,9,10
 642 943 642 943 729 871.5 c 128,-1,11
 816 800 816 800 816 723 c 0,12,13
 816 685 816 685 791.5 661.5 c 128,-1,14
 767 638 767 638 723 638 c 0,15,16
 664 638 664 638 634 676 c 0,17,18
 617 697 617 697 611.5 756 c 128,-1,19
 606 815 606 815 571 846 c 0,20,21
 536 876 536 876 474 876 c 0,22,23
 374 876 374 876 313 802 c 0,24,25
 232 704 232 704 232 543 c 0,26,27
 232 379 232 379 312.5 253.5 c 128,-1,28
 393 128 393 128 530 128 c 0,29,30
 628 128 628 128 706 195 c 0,31,32
 761 241 761 241 813 362 c 1,33,-1
 842 348 l 1,0,1
EndSplineSet
Validated: 1
EndChar

StartChar: d
Encoding: 100 100 150
Width: 1024
VWidth: 0
Flags: W
LayerCount: 2
Back
Fore
SplineSet
711 103 m 1,0,1
 644 33 644 33 580 2.5 c 128,-1,2
 516 -28 516 -28 442 -28 c 0,3,4
 292 -28 292 -28 180 97.5 c 128,-1,5
 68 223 68 223 68 420 c 128,-1,6
 68 617 68 617 192 780.5 c 128,-1,7
 316 944 316 944 511 944 c 0,8,9
 632 944 632 944 711 867 c 1,10,-1
 711 1036 l 2,11,12
 711 1193 711 1193 703.5 1229 c 128,-1,13
 696 1265 696 1265 680 1278 c 128,-1,14
 664 1291 664 1291 640 1291 c 0,15,16
 614 1291 614 1291 571 1275 c 1,17,-1
 558 1310 l 1,18,-1
 831 1422 l 1,19,-1
 876 1422 l 1,20,-1
 876 363 l 2,21,22
 876 202 876 202 883.5 166.5 c 128,-1,23
 891 131 891 131 907.5 117 c 128,-1,24
 924 103 924 103 946 103 c 0,25,26
 973 103 973 103 1018 120 c 1,27,-1
 1029 85 l 1,28,-1
 757 -28 l 1,29,-1
 711 -28 l 1,30,-1
 711 103 l 1,0,1
711 173 m 1,31,-1
 711 645 l 1,32,33
 705 713 705 713 675 769 c 128,-1,34
 645 825 645 825 595.5 853.5 c 128,-1,35
 546 882 546 882 499 882 c 0,36,37
 411 882 411 882 342 803 c 0,38,39
 251 699 251 699 251 499 c 0,40,41
 251 297 251 297 339 189.5 c 128,-1,42
 427 82 427 82 535 82 c 0,43,44
 626 82 626 82 711 173 c 1,31,-1
EndSplineSet
Validated: 1
EndChar

StartChar: e
Encoding: 101 101 151
Width: 909
VWidth: 0
Flags: W
LayerCount: 2
Back
Fore
SplineSet
218 571 m 1,0,1
 217 367 217 367 317 251 c 128,-1,2
 417 135 417 135 552 135 c 0,3,4
 642 135 642 135 708.5 184.5 c 128,-1,5
 775 234 775 234 820 354 c 1,6,-1
 851 334 l 1,7,8
 830 197 830 197 729 84.5 c 128,-1,9
 628 -28 628 -28 476 -28 c 0,10,11
 311 -28 311 -28 193.5 100.5 c 128,-1,12
 76 229 76 229 76 446 c 0,13,14
 76 681 76 681 196.5 812.5 c 128,-1,15
 317 944 317 944 499 944 c 0,16,17
 653 944 653 944 752 842.5 c 128,-1,18
 851 741 851 741 851 571 c 1,19,-1
 218 571 l 1,0,1
218 629 m 1,20,-1
 642 629 l 1,21,22
 637 717 637 717 621 753 c 0,23,24
 596 809 596 809 546.5 841 c 128,-1,25
 497 873 497 873 443 873 c 0,26,27
 360 873 360 873 294.5 808.5 c 128,-1,28
 229 744 229 744 218 629 c 1,20,-1
EndSplineSet
Validated: 33
EndChar

StartChar: f
Encoding: 102 102 152
Width: 682
VWidth: 0
Flags: W
LayerCount: 2
Back
Fore
SplineSet
422 844 m 1,0,-1
 422 242 l 2,1,2
 422 114 422 114 450 80 c 0,3,4
 487 36 487 36 549 36 c 2,5,-1
 632 36 l 1,6,-1
 632 0 l 1,7,-1
 85 0 l 1,8,-1
 85 36 l 1,9,-1
 126 36 l 2,10,11
 166 36 166 36 199 56 c 128,-1,12
 232 76 232 76 244.5 110 c 128,-1,13
 257 144 257 144 257 242 c 2,14,-1
 257 844 l 1,15,-1
 79 844 l 1,16,-1
 79 916 l 1,17,-1
 257 916 l 1,18,-1
 257 976 l 2,19,20
 257 1113 257 1113 301 1208 c 128,-1,21
 345 1303 345 1303 435.5 1361.5 c 128,-1,22
 526 1420 526 1420 639 1420 c 0,23,24
 744 1420 744 1420 832 1352 c 0,25,26
 890 1307 890 1307 890 1251 c 0,27,28
 890 1221 890 1221 864 1194.5 c 128,-1,29
 838 1168 838 1168 808 1168 c 0,30,31
 785 1168 785 1168 759.5 1184.5 c 128,-1,32
 734 1201 734 1201 697 1255.5 c 128,-1,33
 660 1310 660 1310 629 1329 c 128,-1,34
 598 1348 598 1348 560 1348 c 0,35,36
 514 1348 514 1348 482 1323.5 c 128,-1,37
 450 1299 450 1299 436 1247.5 c 128,-1,38
 422 1196 422 1196 422 982 c 2,39,-1
 422 916 l 1,40,-1
 658 916 l 1,41,-1
 658 844 l 1,42,-1
 422 844 l 1,0,-1
EndSplineSet
Validated: 1
EndChar

StartChar: g
Encoding: 103 103 153
Width: 1024
VWidth: 0
Flags: W
LayerCount: 2
Back
Fore
SplineSet
309 334 m 1,0,1
 225 375 225 375 180 448.5 c 128,-1,2
 135 522 135 522 135 611 c 0,3,4
 135 747 135 747 237.5 845 c 128,-1,5
 340 943 340 943 500 943 c 0,6,7
 631 943 631 943 727 879 c 1,8,-1
 921 879 l 2,9,10
 964 879 964 879 971 876.5 c 128,-1,11
 978 874 978 874 981 868 c 0,12,13
 987 859 987 859 987 836 c 0,14,15
 987 810 987 810 982 800 c 0,16,17
 979 795 979 795 971.5 792 c 128,-1,18
 964 789 964 789 921 789 c 2,19,-1
 802 789 l 1,20,21
 858 717 858 717 858 605 c 0,22,23
 858 477 858 477 760 386 c 128,-1,24
 662 295 662 295 497 295 c 0,25,26
 429 295 429 295 358 315 c 1,27,28
 314 277 314 277 298.5 248.5 c 128,-1,29
 283 220 283 220 283 200 c 0,30,31
 283 183 283 183 299.5 167 c 128,-1,32
 316 151 316 151 364 144 c 0,33,34
 392 140 392 140 504 137 c 0,35,36
 710 132 710 132 771 123 c 0,37,38
 864 110 864 110 919.5 54 c 128,-1,39
 975 -2 975 -2 975 -84 c 0,40,41
 975 -197 975 -197 869 -296 c 0,42,43
 713 -442 713 -442 462 -442 c 0,44,45
 269 -442 269 -442 136 -355 c 0,46,47
 61 -305 61 -305 61 -251 c 0,48,49
 61 -227 61 -227 72 -203 c 0,50,51
 89 -166 89 -166 142 -100 c 0,52,53
 149 -91 149 -91 244 8 c 1,54,55
 192 39 192 39 170.5 63.5 c 128,-1,56
 149 88 149 88 149 119 c 0,57,58
 149 154 149 154 177.5 201 c 128,-1,59
 206 248 206 248 309 334 c 1,0,1
483 895 m 0,60,61
 409 895 409 895 359 836 c 128,-1,62
 309 777 309 777 309 655 c 0,63,64
 309 497 309 497 377 410 c 0,65,66
 429 344 429 344 509 344 c 0,67,68
 585 344 585 344 634 401 c 128,-1,69
 683 458 683 458 683 580 c 0,70,71
 683 739 683 739 614 829 c 0,72,73
 563 895 563 895 483 895 c 0,60,61
299 0 m 1,74,75
 252 -51 252 -51 228 -95 c 128,-1,76
 204 -139 204 -139 204 -176 c 0,77,78
 204 -224 204 -224 262 -260 c 0,79,80
 362 -322 362 -322 551 -322 c 0,81,82
 731 -322 731 -322 816.5 -258.5 c 128,-1,83
 902 -195 902 -195 902 -123 c 0,84,85
 902 -71 902 -71 851 -49 c 0,86,87
 799 -27 799 -27 645 -23 c 0,88,89
 420 -17 420 -17 299 0 c 1,74,75
EndSplineSet
Validated: 1
EndChar

StartChar: h
Encoding: 104 104 154
Width: 1024
VWidth: 0
Flags: W
LayerCount: 2
Back
Fore
SplineSet
333 1422 m 1,0,-1
 333 752 l 1,1,2
 444 874 444 874 509 908.5 c 128,-1,3
 574 943 574 943 639 943 c 0,4,5
 717 943 717 943 773 900 c 128,-1,6
 829 857 829 857 856 765 c 0,7,8
 875 701 875 701 875 531 c 2,9,-1
 875 207 l 2,10,11
 875 120 875 120 889 88 c 0,12,13
 899 64 899 64 923 50 c 128,-1,14
 947 36 947 36 1011 36 c 1,15,-1
 1011 0 l 1,16,-1
 561 0 l 1,17,-1
 561 36 l 1,18,-1
 582 36 l 2,19,20
 646 36 646 36 671 55.5 c 128,-1,21
 696 75 696 75 706 113 c 0,22,23
 709 129 709 129 709 207 c 2,24,-1
 709 531 l 2,25,26
 709 681 709 681 693.5 728 c 128,-1,27
 678 775 678 775 644 798.5 c 128,-1,28
 610 822 610 822 562 822 c 0,29,30
 513 822 513 822 460 796 c 128,-1,31
 407 770 407 770 333 691 c 1,32,-1
 333 207 l 2,33,34
 333 113 333 113 343.5 90 c 128,-1,35
 354 67 354 67 382.5 51.5 c 128,-1,36
 411 36 411 36 481 36 c 1,37,-1
 481 0 l 1,38,-1
 27 0 l 1,39,-1
 27 36 l 1,40,41
 88 36 88 36 123 55 c 0,42,43
 143 65 143 65 155 93 c 128,-1,44
 167 121 167 121 167 207 c 2,45,-1
 167 1036 l 2,46,47
 167 1193 167 1193 159.5 1229 c 128,-1,48
 152 1265 152 1265 136.5 1278 c 128,-1,49
 121 1291 121 1291 95 1291 c 0,50,51
 74 1291 74 1291 27 1275 c 1,52,-1
 13 1310 l 1,53,-1
 287 1422 l 1,54,-1
 333 1422 l 1,0,-1
EndSplineSet
Validated: 1
EndChar

StartChar: i
Encoding: 105 105 155
Width: 569
VWidth: 0
Flags: W
LayerCount: 2
Back
Fore
SplineSet
297 1422 m 0,0,1
 339 1422 339 1422 368.5 1392.5 c 128,-1,2
 398 1363 398 1363 398 1321 c 128,-1,3
 398 1279 398 1279 368.5 1249 c 128,-1,4
 339 1219 339 1219 297 1219 c 128,-1,5
 255 1219 255 1219 225 1249 c 128,-1,6
 195 1279 195 1279 195 1321 c 128,-1,7
 195 1363 195 1363 224.5 1392.5 c 128,-1,8
 254 1422 254 1422 297 1422 c 0,0,1
380 943 m 1,9,-1
 380 207 l 2,10,11
 380 121 380 121 392.5 92.5 c 128,-1,12
 405 64 405 64 429.5 50 c 128,-1,13
 454 36 454 36 519 36 c 1,14,-1
 519 0 l 1,15,-1
 74 0 l 1,16,-1
 74 36 l 1,17,18
 141 36 141 36 164 49 c 128,-1,19
 187 62 187 62 200.5 92 c 128,-1,20
 214 122 214 122 214 207 c 2,21,-1
 214 560 l 2,22,23
 214 709 214 709 205 753 c 0,24,25
 198 785 198 785 183 797.5 c 128,-1,26
 168 810 168 810 142 810 c 0,27,28
 114 810 114 810 74 795 c 1,29,-1
 60 831 l 1,30,-1
 336 943 l 1,31,-1
 380 943 l 1,9,-1
EndSplineSet
Validated: 1
EndChar

StartChar: j
Encoding: 106 106 156
Width: 569
VWidth: 0
Flags: W
LayerCount: 2
Back
Fore
SplineSet
296 1423 m 0,0,1
 339 1423 339 1423 369 1393 c 128,-1,2
 399 1363 399 1363 399 1320 c 0,3,4
 399 1278 399 1278 369 1248 c 128,-1,5
 339 1218 339 1218 296 1218 c 0,6,7
 254 1218 254 1218 224 1248 c 128,-1,8
 194 1278 194 1278 194 1320 c 0,9,10
 194 1363 194 1363 224 1393 c 128,-1,11
 254 1423 254 1423 296 1423 c 0,0,1
382 943 m 1,12,-1
 382 21 l 2,13,14
 382 -214 382 -214 282 -328 c 128,-1,15
 182 -442 182 -442 22 -442 c 0,16,17
 -69 -442 -69 -442 -113 -409 c 128,-1,18
 -157 -376 -157 -376 -157 -341 c 128,-1,19
 -157 -306 -157 -306 -132.5 -281 c 128,-1,20
 -108 -256 -108 -256 -75 -256 c 0,21,22
 -49 -256 -49 -256 -22 -269 c 0,23,24
 -5 -276 -5 -276 43.5 -319.5 c 128,-1,25
 92 -363 92 -363 125 -363 c 0,26,27
 149 -363 149 -363 172 -344.5 c 128,-1,28
 195 -326 195 -326 206 -282.5 c 128,-1,29
 217 -239 217 -239 217 -94 c 2,30,-1
 217 558 l 2,31,32
 217 709 217 709 208 752 c 0,33,34
 201 785 201 785 186 797.5 c 128,-1,35
 171 810 171 810 145 810 c 0,36,37
 117 810 117 810 77 795 c 1,38,-1
 63 831 l 1,39,-1
 339 943 l 1,40,-1
 382 943 l 1,12,-1
EndSplineSet
Validated: 1
EndChar

StartChar: k
Encoding: 107 107 157
Width: 1024
VWidth: 0
Flags: W
LayerCount: 2
Back
Fore
SplineSet
335 1422 m 1,0,-1
 335 511 l 1,1,-1
 568 723 l 2,2,3
 642 791 642 791 654 809 c 0,4,5
 662 821 662 821 662 833 c 0,6,7
 662 853 662 853 645.5 867.5 c 128,-1,8
 629 882 629 882 591 884 c 1,9,-1
 591 916 l 1,10,-1
 989 916 l 1,11,-1
 989 884 l 1,12,13
 907 882 907 882 852.5 859 c 128,-1,14
 798 836 798 836 733 777 c 2,15,-1
 498 560 l 1,16,-1
 733 263 l 2,17,18
 831 140 831 140 865 107 c 0,19,20
 913 60 913 60 949 46 c 0,21,22
 974 36 974 36 1036 36 c 1,23,-1
 1036 0 l 1,24,-1
 591 0 l 1,25,-1
 591 36 l 1,26,27
 629 37 629 37 642.5 47.5 c 128,-1,28
 656 58 656 58 656 77 c 0,29,30
 656 100 656 100 616 151 c 2,31,-1
 335 510 l 1,32,-1
 335 206 l 2,33,34
 335 117 335 117 347.5 89 c 128,-1,35
 360 61 360 61 383 49 c 128,-1,36
 406 37 406 37 483 36 c 1,37,-1
 483 0 l 1,38,-1
 17 0 l 1,39,-1
 17 36 l 1,40,41
 87 36 87 36 122 53 c 0,42,43
 143 64 143 64 154 87 c 0,44,45
 169 120 169 120 169 201 c 2,46,-1
 169 1035 l 2,47,48
 169 1194 169 1194 162 1229.5 c 128,-1,49
 155 1265 155 1265 139 1278.5 c 128,-1,50
 123 1292 123 1292 97 1292 c 0,51,52
 76 1292 76 1292 34 1275 c 1,53,-1
 17 1310 l 1,54,-1
 289 1422 l 1,55,-1
 335 1422 l 1,0,-1
EndSplineSet
Validated: 1
EndChar

StartChar: l
Encoding: 108 108 158
Width: 569
VWidth: 0
Flags: W
LayerCount: 2
Back
Fore
SplineSet
379 1422 m 1,0,-1
 379 207 l 2,1,2
 379 121 379 121 391.5 93 c 128,-1,3
 404 65 404 65 430 50.5 c 128,-1,4
 456 36 456 36 527 36 c 1,5,-1
 527 0 l 1,6,-1
 78 0 l 1,7,-1
 78 36 l 1,8,9
 141 36 141 36 164 49 c 128,-1,10
 187 62 187 62 200 92 c 128,-1,11
 213 122 213 122 213 207 c 2,12,-1
 213 1039 l 2,13,14
 213 1194 213 1194 206 1229.5 c 128,-1,15
 199 1265 199 1265 183.5 1278 c 128,-1,16
 168 1291 168 1291 144 1291 c 0,17,18
 118 1291 118 1291 78 1275 c 1,19,-1
 61 1310 l 1,20,-1
 334 1422 l 1,21,-1
 379 1422 l 1,0,-1
EndSplineSet
Validated: 1
EndChar

StartChar: m
Encoding: 109 109 159
Width: 1593
VWidth: 0
Flags: W
LayerCount: 2
Back
Fore
SplineSet
336 748 m 1,0,1
 436 848 436 848 454 863 c 0,2,3
 499 901 499 901 551 922 c 128,-1,4
 603 943 603 943 654 943 c 0,5,6
 740 943 740 943 802 893 c 128,-1,7
 864 843 864 843 885 748 c 1,8,9
 988 868 988 868 1059 905.5 c 128,-1,10
 1130 943 1130 943 1205 943 c 0,11,12
 1278 943 1278 943 1334.5 905.5 c 128,-1,13
 1391 868 1391 868 1424 783 c 0,14,15
 1446 725 1446 725 1446 601 c 2,16,-1
 1446 207 l 2,17,18
 1446 121 1446 121 1459 89 c 0,19,20
 1469 67 1469 67 1496 51.5 c 128,-1,21
 1523 36 1523 36 1584 36 c 1,22,-1
 1584 0 l 1,23,-1
 1132 0 l 1,24,-1
 1132 36 l 1,25,-1
 1151 36 l 2,26,27
 1210 36 1210 36 1243 59 c 0,28,29
 1266 75 1266 75 1276 110 c 0,30,31
 1280 127 1280 127 1280 207 c 2,32,-1
 1280 601 l 2,33,34
 1280 713 1280 713 1253 759 c 0,35,36
 1214 823 1214 823 1128 823 c 0,37,38
 1075 823 1075 823 1021.5 796.5 c 128,-1,39
 968 770 968 770 892 698 c 1,40,-1
 890 687 l 1,41,-1
 892 644 l 1,42,-1
 892 207 l 2,43,44
 892 113 892 113 902.5 90 c 128,-1,45
 913 67 913 67 942 51.5 c 128,-1,46
 971 36 971 36 1041 36 c 1,47,-1
 1041 0 l 1,48,-1
 578 0 l 1,49,-1
 578 36 l 1,50,51
 654 36 654 36 682.5 54 c 128,-1,52
 711 72 711 72 722 108 c 0,53,54
 727 125 727 125 727 207 c 2,55,-1
 727 601 l 2,56,57
 727 713 727 713 694 762 c 0,58,59
 650 826 650 826 571 826 c 0,60,61
 517 826 517 826 464 797 c 0,62,63
 381 753 381 753 336 698 c 1,64,-1
 336 207 l 2,65,66
 336 117 336 117 348.5 90 c 128,-1,67
 361 63 361 63 385.5 49.5 c 128,-1,68
 410 36 410 36 485 36 c 1,69,-1
 485 0 l 1,70,-1
 32 0 l 1,71,-1
 32 36 l 1,72,73
 95 36 95 36 120 49.5 c 128,-1,74
 145 63 145 63 158 92.5 c 128,-1,75
 171 122 171 122 171 207 c 2,76,-1
 171 557 l 2,77,78
 171 708 171 708 162 752 c 0,79,80
 155 785 155 785 140 797.5 c 128,-1,81
 125 810 125 810 99 810 c 0,82,83
 71 810 71 810 32 795 c 1,84,-1
 17 831 l 1,85,-1
 293 943 l 1,86,-1
 336 943 l 1,87,-1
 336 748 l 1,0,1
EndSplineSet
Validated: 1
EndChar

